<?xml version="1.0" encoding="UTF-8" standalone="no"?>
<svg width="226.483mm" height="170.039mm"
 viewBox="0 0 642 482"
 xmlns="http://www.w3.org/2000/svg" xmlns:xlink="http://www.w3.org/1999/xlink"  version="1.2" baseProfile="tiny">
<title>Qt SVG Document</title>
<desc>Generated with Qt</desc>
<defs>
</defs>
<g fill="none" stroke="black" stroke-width="1" fill-rule="evenodd" stroke-linecap="square" stroke-linejoin="bevel" >

<g fill="none" stroke="#000000" stroke-opacity="1" stroke-width="1" stroke-linecap="square" stroke-linejoin="bevel" transform="matrix(1,0,0,1,0,0)"
font-family="Sans Serif" font-size="9" font-weight="400" font-style="normal" 
>
</g>

<g fill="none" stroke="#000000" stroke-opacity="1" stroke-width="1" stroke-linecap="square" stroke-linejoin="bevel" transform="matrix(1.00313,0,0,1.00313,0,0)"
font-family="Sans Serif" font-size="9" font-weight="400" font-style="normal" 
>
</g>

<g fill="none" stroke="#a0a0a4" stroke-opacity="1" stroke-dasharray="0.5,1" stroke-dashoffset="0" stroke-width="0.5" stroke-linecap="round" stroke-linejoin="round" transform="matrix(1.00313,0,0,1.00313,0,0)"
font-family="Sans Serif" font-size="9" font-weight="400" font-style="normal" 
>
<polyline fill="none" vector-effect="none" points="45.5,450.5 618.5,450.5 " />
</g>

<g fill="none" stroke="#000000" stroke-opacity="1" stroke-width="1" stroke-linecap="round" stroke-linejoin="round" transform="matrix(1.00313,0,0,1.00313,0,0)"
font-family="Sans Serif" font-size="9" font-weight="400" font-style="normal" 
>
<polyline fill="none" vector-effect="none" points="45.5,450.5 51.5,450.5 " />
<polyline fill="none" vector-effect="none" points="618.5,450.5 612.5,450.5 " />
</g>

<g fill="none" stroke="#000000" stroke-opacity="1" stroke-width="1" stroke-linecap="square" stroke-linejoin="bevel" transform="matrix(1.00313,0,0,1.00313,0,0)"
font-family="Sans Serif" font-size="9" font-weight="400" font-style="normal" 
>
</g>

<g fill="none" stroke="#000000" stroke-opacity="1" stroke-width="1" stroke-linecap="square" stroke-linejoin="bevel" transform="matrix(1.00313,0,0,1.00313,16.05,455.92)"
font-family="Sans Serif" font-size="9" font-weight="400" font-style="normal" 
>
</g>

<g fill="none" stroke="#000000" stroke-opacity="1" stroke-width="1" stroke-linecap="square" stroke-linejoin="bevel" transform="matrix(1.00313,0,0,1.00313,16.05,455.92)"
font-family="Sans Serif" font-size="9" font-weight="400" font-style="normal" 
>
</g>

<g fill="none" stroke="#000000" stroke-opacity="1" stroke-width="1" stroke-linecap="square" stroke-linejoin="bevel" transform="matrix(1.00313,0,0,1.00313,16.05,455.92)"
font-family="Sans Serif" font-size="9" font-weight="400" font-style="normal" 
>
</g>

<g fill="none" stroke="#000000" stroke-opacity="1" stroke-width="1" stroke-linecap="square" stroke-linejoin="bevel" transform="matrix(1.00313,0,0,1.00313,16.05,455.92)"
font-family="Sans Serif" font-size="9" font-weight="400" font-style="normal" 
>
</g>

<g fill="none" stroke="#000000" stroke-opacity="1" stroke-width="1" stroke-linecap="square" stroke-linejoin="bevel" transform="matrix(1.00313,0,0,1.00313,16.05,455.92)"
font-family="Sans Serif" font-size="9" font-weight="400" font-style="normal" 
>
</g>

<g fill="none" stroke="#000000" stroke-opacity="1" stroke-width="1" stroke-linecap="square" stroke-linejoin="bevel" transform="matrix(1.00313,0,0,1.00313,16.05,455.92)"
font-family="Sans" font-size="9" font-weight="400" font-style="normal" 
>
<text fill="#000000" fill-opacity="1" stroke="none" xml:space="preserve" x="0" y="0" font-family="Sans" font-size="9" font-weight="400" font-style="normal" 
 >-0.4</text>
</g>

<g fill="none" stroke="#000000" stroke-opacity="1" stroke-width="1" stroke-linecap="square" stroke-linejoin="bevel" transform="matrix(1.00313,0,0,1.00313,16.05,455.92)"
font-family="Sans Serif" font-size="9" font-weight="400" font-style="normal" 
>
</g>

<g fill="none" stroke="#000000" stroke-opacity="1" stroke-width="1" stroke-linecap="square" stroke-linejoin="bevel" transform="matrix(1.00313,0,0,1.00313,0,0)"
font-family="Sans Serif" font-size="9" font-weight="400" font-style="normal" 
>
</g>

<g fill="none" stroke="#a0a0a4" stroke-opacity="1" stroke-dasharray="0.5,1" stroke-dashoffset="0" stroke-width="0.5" stroke-linecap="round" stroke-linejoin="round" transform="matrix(1.00313,0,0,1.00313,0,0)"
font-family="Sans Serif" font-size="9" font-weight="400" font-style="normal" 
>
<polyline fill="none" vector-effect="none" points="45.5,377.5 618.5,377.5 " />
</g>

<g fill="none" stroke="#000000" stroke-opacity="1" stroke-width="1" stroke-linecap="round" stroke-linejoin="round" transform="matrix(1.00313,0,0,1.00313,0,0)"
font-family="Sans Serif" font-size="9" font-weight="400" font-style="normal" 
>
<polyline fill="none" vector-effect="none" points="45.5,377.5 51.5,377.5 " />
<polyline fill="none" vector-effect="none" points="618.5,377.5 612.5,377.5 " />
</g>

<g fill="none" stroke="#000000" stroke-opacity="1" stroke-width="1" stroke-linecap="square" stroke-linejoin="bevel" transform="matrix(1.00313,0,0,1.00313,0,0)"
font-family="Sans Serif" font-size="9" font-weight="400" font-style="normal" 
>
</g>

<g fill="none" stroke="#000000" stroke-opacity="1" stroke-width="1" stroke-linecap="square" stroke-linejoin="bevel" transform="matrix(1.00313,0,0,1.00313,16.05,383.695)"
font-family="Sans Serif" font-size="9" font-weight="400" font-style="normal" 
>
</g>

<g fill="none" stroke="#000000" stroke-opacity="1" stroke-width="1" stroke-linecap="square" stroke-linejoin="bevel" transform="matrix(1.00313,0,0,1.00313,16.05,383.695)"
font-family="Sans Serif" font-size="9" font-weight="400" font-style="normal" 
>
</g>

<g fill="none" stroke="#000000" stroke-opacity="1" stroke-width="1" stroke-linecap="square" stroke-linejoin="bevel" transform="matrix(1.00313,0,0,1.00313,16.05,383.695)"
font-family="Sans Serif" font-size="9" font-weight="400" font-style="normal" 
>
</g>

<g fill="none" stroke="#000000" stroke-opacity="1" stroke-width="1" stroke-linecap="square" stroke-linejoin="bevel" transform="matrix(1.00313,0,0,1.00313,16.05,383.695)"
font-family="Sans Serif" font-size="9" font-weight="400" font-style="normal" 
>
</g>

<g fill="none" stroke="#000000" stroke-opacity="1" stroke-width="1" stroke-linecap="square" stroke-linejoin="bevel" transform="matrix(1.00313,0,0,1.00313,16.05,383.695)"
font-family="Sans Serif" font-size="9" font-weight="400" font-style="normal" 
>
</g>

<g fill="none" stroke="#000000" stroke-opacity="1" stroke-width="1" stroke-linecap="square" stroke-linejoin="bevel" transform="matrix(1.00313,0,0,1.00313,16.05,383.695)"
font-family="Sans" font-size="9" font-weight="400" font-style="normal" 
>
<text fill="#000000" fill-opacity="1" stroke="none" xml:space="preserve" x="0" y="0" font-family="Sans" font-size="9" font-weight="400" font-style="normal" 
 >-0.2</text>
</g>

<g fill="none" stroke="#000000" stroke-opacity="1" stroke-width="1" stroke-linecap="square" stroke-linejoin="bevel" transform="matrix(1.00313,0,0,1.00313,16.05,383.695)"
font-family="Sans Serif" font-size="9" font-weight="400" font-style="normal" 
>
</g>

<g fill="none" stroke="#000000" stroke-opacity="1" stroke-width="1" stroke-linecap="square" stroke-linejoin="bevel" transform="matrix(1.00313,0,0,1.00313,0,0)"
font-family="Sans Serif" font-size="9" font-weight="400" font-style="normal" 
>
</g>

<g fill="none" stroke="#a0a0a4" stroke-opacity="1" stroke-dasharray="0.5,1" stroke-dashoffset="0" stroke-width="0.5" stroke-linecap="round" stroke-linejoin="round" transform="matrix(1.00313,0,0,1.00313,0,0)"
font-family="Sans Serif" font-size="9" font-weight="400" font-style="normal" 
>
<polyline fill="none" vector-effect="none" points="45.5,305.5 618.5,305.5 " />
</g>

<g fill="none" stroke="#000000" stroke-opacity="1" stroke-width="1" stroke-linecap="round" stroke-linejoin="round" transform="matrix(1.00313,0,0,1.00313,0,0)"
font-family="Sans Serif" font-size="9" font-weight="400" font-style="normal" 
>
<polyline fill="none" vector-effect="none" points="45.5,305.5 51.5,305.5 " />
<polyline fill="none" vector-effect="none" points="618.5,305.5 612.5,305.5 " />
</g>

<g fill="none" stroke="#000000" stroke-opacity="1" stroke-width="1" stroke-linecap="square" stroke-linejoin="bevel" transform="matrix(1.00313,0,0,1.00313,0,0)"
font-family="Sans Serif" font-size="9" font-weight="400" font-style="normal" 
>
</g>

<g fill="none" stroke="#000000" stroke-opacity="1" stroke-width="1" stroke-linecap="square" stroke-linejoin="bevel" transform="matrix(1.00313,0,0,1.00313,28.0875,310.467)"
font-family="Sans Serif" font-size="9" font-weight="400" font-style="normal" 
>
</g>

<g fill="none" stroke="#000000" stroke-opacity="1" stroke-width="1" stroke-linecap="square" stroke-linejoin="bevel" transform="matrix(1.00313,0,0,1.00313,28.0875,310.467)"
font-family="Sans Serif" font-size="9" font-weight="400" font-style="normal" 
>
</g>

<g fill="none" stroke="#000000" stroke-opacity="1" stroke-width="1" stroke-linecap="square" stroke-linejoin="bevel" transform="matrix(1.00313,0,0,1.00313,28.0875,310.467)"
font-family="Sans Serif" font-size="9" font-weight="400" font-style="normal" 
>
</g>

<g fill="none" stroke="#000000" stroke-opacity="1" stroke-width="1" stroke-linecap="square" stroke-linejoin="bevel" transform="matrix(1.00313,0,0,1.00313,28.0875,310.467)"
font-family="Sans Serif" font-size="9" font-weight="400" font-style="normal" 
>
</g>

<g fill="none" stroke="#000000" stroke-opacity="1" stroke-width="1" stroke-linecap="square" stroke-linejoin="bevel" transform="matrix(1.00313,0,0,1.00313,28.0875,310.467)"
font-family="Sans Serif" font-size="9" font-weight="400" font-style="normal" 
>
</g>

<g fill="none" stroke="#000000" stroke-opacity="1" stroke-width="1" stroke-linecap="square" stroke-linejoin="bevel" transform="matrix(1.00313,0,0,1.00313,28.0875,310.467)"
font-family="Sans" font-size="9" font-weight="400" font-style="normal" 
>
<text fill="#000000" fill-opacity="1" stroke="none" xml:space="preserve" x="0" y="0" font-family="Sans" font-size="9" font-weight="400" font-style="normal" 
 > 0</text>
</g>

<g fill="none" stroke="#000000" stroke-opacity="1" stroke-width="1" stroke-linecap="square" stroke-linejoin="bevel" transform="matrix(1.00313,0,0,1.00313,28.0875,310.467)"
font-family="Sans Serif" font-size="9" font-weight="400" font-style="normal" 
>
</g>

<g fill="none" stroke="#000000" stroke-opacity="1" stroke-width="1" stroke-linecap="square" stroke-linejoin="bevel" transform="matrix(1.00313,0,0,1.00313,0,0)"
font-family="Sans Serif" font-size="9" font-weight="400" font-style="normal" 
>
</g>

<g fill="none" stroke="#a0a0a4" stroke-opacity="1" stroke-dasharray="0.5,1" stroke-dashoffset="0" stroke-width="0.5" stroke-linecap="round" stroke-linejoin="round" transform="matrix(1.00313,0,0,1.00313,0,0)"
font-family="Sans Serif" font-size="9" font-weight="400" font-style="normal" 
>
<polyline fill="none" vector-effect="none" points="45.5,232.5 618.5,232.5 " />
</g>

<g fill="none" stroke="#000000" stroke-opacity="1" stroke-width="1" stroke-linecap="round" stroke-linejoin="round" transform="matrix(1.00313,0,0,1.00313,0,0)"
font-family="Sans Serif" font-size="9" font-weight="400" font-style="normal" 
>
<polyline fill="none" vector-effect="none" points="45.5,232.5 51.5,232.5 " />
<polyline fill="none" vector-effect="none" points="618.5,232.5 612.5,232.5 " />
</g>

<g fill="none" stroke="#000000" stroke-opacity="1" stroke-width="1" stroke-linecap="square" stroke-linejoin="bevel" transform="matrix(1.00313,0,0,1.00313,0,0)"
font-family="Sans Serif" font-size="9" font-weight="400" font-style="normal" 
>
</g>

<g fill="none" stroke="#000000" stroke-opacity="1" stroke-width="1" stroke-linecap="square" stroke-linejoin="bevel" transform="matrix(1.00313,0,0,1.00313,16.05,238.242)"
font-family="Sans Serif" font-size="9" font-weight="400" font-style="normal" 
>
</g>

<g fill="none" stroke="#000000" stroke-opacity="1" stroke-width="1" stroke-linecap="square" stroke-linejoin="bevel" transform="matrix(1.00313,0,0,1.00313,16.05,238.242)"
font-family="Sans Serif" font-size="9" font-weight="400" font-style="normal" 
>
</g>

<g fill="none" stroke="#000000" stroke-opacity="1" stroke-width="1" stroke-linecap="square" stroke-linejoin="bevel" transform="matrix(1.00313,0,0,1.00313,16.05,238.242)"
font-family="Sans Serif" font-size="9" font-weight="400" font-style="normal" 
>
</g>

<g fill="none" stroke="#000000" stroke-opacity="1" stroke-width="1" stroke-linecap="square" stroke-linejoin="bevel" transform="matrix(1.00313,0,0,1.00313,16.05,238.242)"
font-family="Sans Serif" font-size="9" font-weight="400" font-style="normal" 
>
</g>

<g fill="none" stroke="#000000" stroke-opacity="1" stroke-width="1" stroke-linecap="square" stroke-linejoin="bevel" transform="matrix(1.00313,0,0,1.00313,16.05,238.242)"
font-family="Sans Serif" font-size="9" font-weight="400" font-style="normal" 
>
</g>

<g fill="none" stroke="#000000" stroke-opacity="1" stroke-width="1" stroke-linecap="square" stroke-linejoin="bevel" transform="matrix(1.00313,0,0,1.00313,16.05,238.242)"
font-family="Sans" font-size="9" font-weight="400" font-style="normal" 
>
<text fill="#000000" fill-opacity="1" stroke="none" xml:space="preserve" x="0" y="0" font-family="Sans" font-size="9" font-weight="400" font-style="normal" 
 > 0.2</text>
</g>

<g fill="none" stroke="#000000" stroke-opacity="1" stroke-width="1" stroke-linecap="square" stroke-linejoin="bevel" transform="matrix(1.00313,0,0,1.00313,16.05,238.242)"
font-family="Sans Serif" font-size="9" font-weight="400" font-style="normal" 
>
</g>

<g fill="none" stroke="#000000" stroke-opacity="1" stroke-width="1" stroke-linecap="square" stroke-linejoin="bevel" transform="matrix(1.00313,0,0,1.00313,0,0)"
font-family="Sans Serif" font-size="9" font-weight="400" font-style="normal" 
>
</g>

<g fill="none" stroke="#a0a0a4" stroke-opacity="1" stroke-dasharray="0.5,1" stroke-dashoffset="0" stroke-width="0.5" stroke-linecap="round" stroke-linejoin="round" transform="matrix(1.00313,0,0,1.00313,0,0)"
font-family="Sans Serif" font-size="9" font-weight="400" font-style="normal" 
>
<polyline fill="none" vector-effect="none" points="45.5,160.5 618.5,160.5 " />
</g>

<g fill="none" stroke="#000000" stroke-opacity="1" stroke-width="1" stroke-linecap="round" stroke-linejoin="round" transform="matrix(1.00313,0,0,1.00313,0,0)"
font-family="Sans Serif" font-size="9" font-weight="400" font-style="normal" 
>
<polyline fill="none" vector-effect="none" points="45.5,160.5 51.5,160.5 " />
<polyline fill="none" vector-effect="none" points="618.5,160.5 612.5,160.5 " />
</g>

<g fill="none" stroke="#000000" stroke-opacity="1" stroke-width="1" stroke-linecap="square" stroke-linejoin="bevel" transform="matrix(1.00313,0,0,1.00313,0,0)"
font-family="Sans Serif" font-size="9" font-weight="400" font-style="normal" 
>
</g>

<g fill="none" stroke="#000000" stroke-opacity="1" stroke-width="1" stroke-linecap="square" stroke-linejoin="bevel" transform="matrix(1.00313,0,0,1.00313,16.05,165.014)"
font-family="Sans Serif" font-size="9" font-weight="400" font-style="normal" 
>
</g>

<g fill="none" stroke="#000000" stroke-opacity="1" stroke-width="1" stroke-linecap="square" stroke-linejoin="bevel" transform="matrix(1.00313,0,0,1.00313,16.05,165.014)"
font-family="Sans Serif" font-size="9" font-weight="400" font-style="normal" 
>
</g>

<g fill="none" stroke="#000000" stroke-opacity="1" stroke-width="1" stroke-linecap="square" stroke-linejoin="bevel" transform="matrix(1.00313,0,0,1.00313,16.05,165.014)"
font-family="Sans Serif" font-size="9" font-weight="400" font-style="normal" 
>
</g>

<g fill="none" stroke="#000000" stroke-opacity="1" stroke-width="1" stroke-linecap="square" stroke-linejoin="bevel" transform="matrix(1.00313,0,0,1.00313,16.05,165.014)"
font-family="Sans Serif" font-size="9" font-weight="400" font-style="normal" 
>
</g>

<g fill="none" stroke="#000000" stroke-opacity="1" stroke-width="1" stroke-linecap="square" stroke-linejoin="bevel" transform="matrix(1.00313,0,0,1.00313,16.05,165.014)"
font-family="Sans Serif" font-size="9" font-weight="400" font-style="normal" 
>
</g>

<g fill="none" stroke="#000000" stroke-opacity="1" stroke-width="1" stroke-linecap="square" stroke-linejoin="bevel" transform="matrix(1.00313,0,0,1.00313,16.05,165.014)"
font-family="Sans" font-size="9" font-weight="400" font-style="normal" 
>
<text fill="#000000" fill-opacity="1" stroke="none" xml:space="preserve" x="0" y="0" font-family="Sans" font-size="9" font-weight="400" font-style="normal" 
 > 0.4</text>
</g>

<g fill="none" stroke="#000000" stroke-opacity="1" stroke-width="1" stroke-linecap="square" stroke-linejoin="bevel" transform="matrix(1.00313,0,0,1.00313,16.05,165.014)"
font-family="Sans Serif" font-size="9" font-weight="400" font-style="normal" 
>
</g>

<g fill="none" stroke="#000000" stroke-opacity="1" stroke-width="1" stroke-linecap="square" stroke-linejoin="bevel" transform="matrix(1.00313,0,0,1.00313,0,0)"
font-family="Sans Serif" font-size="9" font-weight="400" font-style="normal" 
>
</g>

<g fill="none" stroke="#a0a0a4" stroke-opacity="1" stroke-dasharray="0.5,1" stroke-dashoffset="0" stroke-width="0.5" stroke-linecap="round" stroke-linejoin="round" transform="matrix(1.00313,0,0,1.00313,0,0)"
font-family="Sans Serif" font-size="9" font-weight="400" font-style="normal" 
>
<polyline fill="none" vector-effect="none" points="45.5,87.5 618.5,87.5 " />
</g>

<g fill="none" stroke="#000000" stroke-opacity="1" stroke-width="1" stroke-linecap="round" stroke-linejoin="round" transform="matrix(1.00313,0,0,1.00313,0,0)"
font-family="Sans Serif" font-size="9" font-weight="400" font-style="normal" 
>
<polyline fill="none" vector-effect="none" points="45.5,87.5 51.5,87.5 " />
<polyline fill="none" vector-effect="none" points="618.5,87.5 612.5,87.5 " />
</g>

<g fill="none" stroke="#000000" stroke-opacity="1" stroke-width="1" stroke-linecap="square" stroke-linejoin="bevel" transform="matrix(1.00313,0,0,1.00313,0,0)"
font-family="Sans Serif" font-size="9" font-weight="400" font-style="normal" 
>
</g>

<g fill="none" stroke="#000000" stroke-opacity="1" stroke-width="1" stroke-linecap="square" stroke-linejoin="bevel" transform="matrix(1.00313,0,0,1.00313,16.05,92.7891)"
font-family="Sans Serif" font-size="9" font-weight="400" font-style="normal" 
>
</g>

<g fill="none" stroke="#000000" stroke-opacity="1" stroke-width="1" stroke-linecap="square" stroke-linejoin="bevel" transform="matrix(1.00313,0,0,1.00313,16.05,92.7891)"
font-family="Sans Serif" font-size="9" font-weight="400" font-style="normal" 
>
</g>

<g fill="none" stroke="#000000" stroke-opacity="1" stroke-width="1" stroke-linecap="square" stroke-linejoin="bevel" transform="matrix(1.00313,0,0,1.00313,16.05,92.7891)"
font-family="Sans Serif" font-size="9" font-weight="400" font-style="normal" 
>
</g>

<g fill="none" stroke="#000000" stroke-opacity="1" stroke-width="1" stroke-linecap="square" stroke-linejoin="bevel" transform="matrix(1.00313,0,0,1.00313,16.05,92.7891)"
font-family="Sans Serif" font-size="9" font-weight="400" font-style="normal" 
>
</g>

<g fill="none" stroke="#000000" stroke-opacity="1" stroke-width="1" stroke-linecap="square" stroke-linejoin="bevel" transform="matrix(1.00313,0,0,1.00313,16.05,92.7891)"
font-family="Sans Serif" font-size="9" font-weight="400" font-style="normal" 
>
</g>

<g fill="none" stroke="#000000" stroke-opacity="1" stroke-width="1" stroke-linecap="square" stroke-linejoin="bevel" transform="matrix(1.00313,0,0,1.00313,16.05,92.7891)"
font-family="Sans" font-size="9" font-weight="400" font-style="normal" 
>
<text fill="#000000" fill-opacity="1" stroke="none" xml:space="preserve" x="0" y="0" font-family="Sans" font-size="9" font-weight="400" font-style="normal" 
 > 0.6</text>
</g>

<g fill="none" stroke="#000000" stroke-opacity="1" stroke-width="1" stroke-linecap="square" stroke-linejoin="bevel" transform="matrix(1.00313,0,0,1.00313,16.05,92.7891)"
font-family="Sans Serif" font-size="9" font-weight="400" font-style="normal" 
>
</g>

<g fill="none" stroke="#000000" stroke-opacity="1" stroke-width="1" stroke-linecap="square" stroke-linejoin="bevel" transform="matrix(1.00313,0,0,1.00313,0,0)"
font-family="Sans Serif" font-size="9" font-weight="400" font-style="normal" 
>
</g>

<g fill="none" stroke="#a0a0a4" stroke-opacity="1" stroke-dasharray="0.5,1" stroke-dashoffset="0" stroke-width="0.5" stroke-linecap="round" stroke-linejoin="round" transform="matrix(1.00313,0,0,1.00313,0,0)"
font-family="Sans Serif" font-size="9" font-weight="400" font-style="normal" 
>
<polyline fill="none" vector-effect="none" points="45.5,15.5 618.5,15.5 " />
</g>

<g fill="none" stroke="#000000" stroke-opacity="1" stroke-width="1" stroke-linecap="round" stroke-linejoin="round" transform="matrix(1.00313,0,0,1.00313,0,0)"
font-family="Sans Serif" font-size="9" font-weight="400" font-style="normal" 
>
<polyline fill="none" vector-effect="none" points="45.5,15.5 51.5,15.5 " />
<polyline fill="none" vector-effect="none" points="618.5,15.5 612.5,15.5 " />
</g>

<g fill="none" stroke="#000000" stroke-opacity="1" stroke-width="1" stroke-linecap="square" stroke-linejoin="bevel" transform="matrix(1.00313,0,0,1.00313,0,0)"
font-family="Sans Serif" font-size="9" font-weight="400" font-style="normal" 
>
</g>

<g fill="none" stroke="#000000" stroke-opacity="1" stroke-width="1" stroke-linecap="square" stroke-linejoin="bevel" transform="matrix(1.00313,0,0,1.00313,16.05,19.5609)"
font-family="Sans Serif" font-size="9" font-weight="400" font-style="normal" 
>
</g>

<g fill="none" stroke="#000000" stroke-opacity="1" stroke-width="1" stroke-linecap="square" stroke-linejoin="bevel" transform="matrix(1.00313,0,0,1.00313,16.05,19.5609)"
font-family="Sans Serif" font-size="9" font-weight="400" font-style="normal" 
>
</g>

<g fill="none" stroke="#000000" stroke-opacity="1" stroke-width="1" stroke-linecap="square" stroke-linejoin="bevel" transform="matrix(1.00313,0,0,1.00313,16.05,19.5609)"
font-family="Sans Serif" font-size="9" font-weight="400" font-style="normal" 
>
</g>

<g fill="none" stroke="#000000" stroke-opacity="1" stroke-width="1" stroke-linecap="square" stroke-linejoin="bevel" transform="matrix(1.00313,0,0,1.00313,16.05,19.5609)"
font-family="Sans Serif" font-size="9" font-weight="400" font-style="normal" 
>
</g>

<g fill="none" stroke="#000000" stroke-opacity="1" stroke-width="1" stroke-linecap="square" stroke-linejoin="bevel" transform="matrix(1.00313,0,0,1.00313,16.05,19.5609)"
font-family="Sans Serif" font-size="9" font-weight="400" font-style="normal" 
>
</g>

<g fill="none" stroke="#000000" stroke-opacity="1" stroke-width="1" stroke-linecap="square" stroke-linejoin="bevel" transform="matrix(1.00313,0,0,1.00313,16.05,19.5609)"
font-family="Sans" font-size="9" font-weight="400" font-style="normal" 
>
<text fill="#000000" fill-opacity="1" stroke="none" xml:space="preserve" x="0" y="0" font-family="Sans" font-size="9" font-weight="400" font-style="normal" 
 > 0.8</text>
</g>

<g fill="none" stroke="#000000" stroke-opacity="1" stroke-width="1" stroke-linecap="square" stroke-linejoin="bevel" transform="matrix(1.00313,0,0,1.00313,16.05,19.5609)"
font-family="Sans Serif" font-size="9" font-weight="400" font-style="normal" 
>
</g>

<g fill="none" stroke="#000000" stroke-opacity="1" stroke-width="1" stroke-linecap="square" stroke-linejoin="bevel" transform="matrix(1.00313,0,0,1.00313,0,0)"
font-family="Sans Serif" font-size="9" font-weight="400" font-style="normal" 
>
</g>

<g fill="none" stroke="#a0a0a4" stroke-opacity="1" stroke-dasharray="0.5,1" stroke-dashoffset="0" stroke-width="0.5" stroke-linecap="round" stroke-linejoin="round" transform="matrix(1.00313,0,0,1.00313,0,0)"
font-family="Sans Serif" font-size="9" font-weight="400" font-style="normal" 
>
<polyline fill="none" vector-effect="none" points="45.5,450.5 45.5,15.5 " />
</g>

<g fill="none" stroke="#000000" stroke-opacity="1" stroke-width="1" stroke-linecap="round" stroke-linejoin="round" transform="matrix(1.00313,0,0,1.00313,0,0)"
font-family="Sans Serif" font-size="9" font-weight="400" font-style="normal" 
>
<polyline fill="none" vector-effect="none" points="45.5,450.5 45.5,444.5 " />
<polyline fill="none" vector-effect="none" points="45.5,15.5 45.5,21.5 " />
</g>

<g fill="none" stroke="#000000" stroke-opacity="1" stroke-width="1" stroke-linecap="square" stroke-linejoin="bevel" transform="matrix(1.00313,0,0,1.00313,0,0)"
font-family="Sans Serif" font-size="9" font-weight="400" font-style="normal" 
>
</g>

<g fill="none" stroke="#000000" stroke-opacity="1" stroke-width="1" stroke-linecap="square" stroke-linejoin="bevel" transform="matrix(1.00313,0,0,1.00313,40.6266,470.967)"
font-family="Sans Serif" font-size="9" font-weight="400" font-style="normal" 
>
</g>

<g fill="none" stroke="#000000" stroke-opacity="1" stroke-width="1" stroke-linecap="square" stroke-linejoin="bevel" transform="matrix(1.00313,0,0,1.00313,40.6266,470.967)"
font-family="Sans Serif" font-size="9" font-weight="400" font-style="normal" 
>
</g>

<g fill="none" stroke="#000000" stroke-opacity="1" stroke-width="1" stroke-linecap="square" stroke-linejoin="bevel" transform="matrix(1.00313,0,0,1.00313,40.6266,470.967)"
font-family="Sans Serif" font-size="9" font-weight="400" font-style="normal" 
>
</g>

<g fill="none" stroke="#000000" stroke-opacity="1" stroke-width="1" stroke-linecap="square" stroke-linejoin="bevel" transform="matrix(1.00313,0,0,1.00313,40.6266,470.967)"
font-family="Sans Serif" font-size="9" font-weight="400" font-style="normal" 
>
</g>

<g fill="none" stroke="#000000" stroke-opacity="1" stroke-width="1" stroke-linecap="square" stroke-linejoin="bevel" transform="matrix(1.00313,0,0,1.00313,40.6266,470.967)"
font-family="Sans Serif" font-size="9" font-weight="400" font-style="normal" 
>
</g>

<g fill="none" stroke="#000000" stroke-opacity="1" stroke-width="1" stroke-linecap="square" stroke-linejoin="bevel" transform="matrix(1.00313,0,0,1.00313,40.6266,470.967)"
font-family="Sans" font-size="9" font-weight="400" font-style="normal" 
>
<text fill="#000000" fill-opacity="1" stroke="none" xml:space="preserve" x="0" y="0" font-family="Sans" font-size="9" font-weight="400" font-style="normal" 
 > 0</text>
</g>

<g fill="none" stroke="#000000" stroke-opacity="1" stroke-width="1" stroke-linecap="square" stroke-linejoin="bevel" transform="matrix(1.00313,0,0,1.00313,40.6266,470.967)"
font-family="Sans Serif" font-size="9" font-weight="400" font-style="normal" 
>
</g>

<g fill="none" stroke="#000000" stroke-opacity="1" stroke-width="1" stroke-linecap="square" stroke-linejoin="bevel" transform="matrix(1.00313,0,0,1.00313,0,0)"
font-family="Sans Serif" font-size="9" font-weight="400" font-style="normal" 
>
</g>

<g fill="none" stroke="#a0a0a4" stroke-opacity="1" stroke-dasharray="0.5,1" stroke-dashoffset="0" stroke-width="0.5" stroke-linecap="round" stroke-linejoin="round" transform="matrix(1.00313,0,0,1.00313,0,0)"
font-family="Sans Serif" font-size="9" font-weight="400" font-style="normal" 
>
<polyline fill="none" vector-effect="none" points="160.5,450.5 160.5,15.5 " />
</g>

<g fill="none" stroke="#000000" stroke-opacity="1" stroke-width="1" stroke-linecap="round" stroke-linejoin="round" transform="matrix(1.00313,0,0,1.00313,0,0)"
font-family="Sans Serif" font-size="9" font-weight="400" font-style="normal" 
>
<polyline fill="none" vector-effect="none" points="160.5,450.5 160.5,444.5 " />
<polyline fill="none" vector-effect="none" points="160.5,15.5 160.5,21.5 " />
</g>

<g fill="none" stroke="#000000" stroke-opacity="1" stroke-width="1" stroke-linecap="square" stroke-linejoin="bevel" transform="matrix(1.00313,0,0,1.00313,0,0)"
font-family="Sans Serif" font-size="9" font-weight="400" font-style="normal" 
>
</g>

<g fill="none" stroke="#000000" stroke-opacity="1" stroke-width="1" stroke-linecap="square" stroke-linejoin="bevel" transform="matrix(1.00313,0,0,1.00313,146.958,470.967)"
font-family="Sans Serif" font-size="9" font-weight="400" font-style="normal" 
>
</g>

<g fill="none" stroke="#000000" stroke-opacity="1" stroke-width="1" stroke-linecap="square" stroke-linejoin="bevel" transform="matrix(1.00313,0,0,1.00313,146.958,470.967)"
font-family="Sans Serif" font-size="9" font-weight="400" font-style="normal" 
>
</g>

<g fill="none" stroke="#000000" stroke-opacity="1" stroke-width="1" stroke-linecap="square" stroke-linejoin="bevel" transform="matrix(1.00313,0,0,1.00313,146.958,470.967)"
font-family="Sans Serif" font-size="9" font-weight="400" font-style="normal" 
>
</g>

<g fill="none" stroke="#000000" stroke-opacity="1" stroke-width="1" stroke-linecap="square" stroke-linejoin="bevel" transform="matrix(1.00313,0,0,1.00313,146.958,470.967)"
font-family="Sans Serif" font-size="9" font-weight="400" font-style="normal" 
>
</g>

<g fill="none" stroke="#000000" stroke-opacity="1" stroke-width="1" stroke-linecap="square" stroke-linejoin="bevel" transform="matrix(1.00313,0,0,1.00313,146.958,470.967)"
font-family="Sans Serif" font-size="9" font-weight="400" font-style="normal" 
>
</g>

<g fill="none" stroke="#000000" stroke-opacity="1" stroke-width="1" stroke-linecap="square" stroke-linejoin="bevel" transform="matrix(1.00313,0,0,1.00313,146.958,470.967)"
font-family="Sans" font-size="9" font-weight="400" font-style="normal" 
>
<text fill="#000000" fill-opacity="1" stroke="none" xml:space="preserve" x="0" y="0" font-family="Sans" font-size="9" font-weight="400" font-style="normal" 
 > 200</text>
</g>

<g fill="none" stroke="#000000" stroke-opacity="1" stroke-width="1" stroke-linecap="square" stroke-linejoin="bevel" transform="matrix(1.00313,0,0,1.00313,146.958,470.967)"
font-family="Sans Serif" font-size="9" font-weight="400" font-style="normal" 
>
</g>

<g fill="none" stroke="#000000" stroke-opacity="1" stroke-width="1" stroke-linecap="square" stroke-linejoin="bevel" transform="matrix(1.00313,0,0,1.00313,0,0)"
font-family="Sans Serif" font-size="9" font-weight="400" font-style="normal" 
>
</g>

<g fill="none" stroke="#a0a0a4" stroke-opacity="1" stroke-dasharray="0.5,1" stroke-dashoffset="0" stroke-width="0.5" stroke-linecap="round" stroke-linejoin="round" transform="matrix(1.00313,0,0,1.00313,0,0)"
font-family="Sans Serif" font-size="9" font-weight="400" font-style="normal" 
>
<polyline fill="none" vector-effect="none" points="274.5,450.5 274.5,15.5 " />
</g>

<g fill="none" stroke="#000000" stroke-opacity="1" stroke-width="1" stroke-linecap="round" stroke-linejoin="round" transform="matrix(1.00313,0,0,1.00313,0,0)"
font-family="Sans Serif" font-size="9" font-weight="400" font-style="normal" 
>
<polyline fill="none" vector-effect="none" points="274.5,450.5 274.5,444.5 " />
<polyline fill="none" vector-effect="none" points="274.5,15.5 274.5,21.5 " />
</g>

<g fill="none" stroke="#000000" stroke-opacity="1" stroke-width="1" stroke-linecap="square" stroke-linejoin="bevel" transform="matrix(1.00313,0,0,1.00313,0,0)"
font-family="Sans Serif" font-size="9" font-weight="400" font-style="normal" 
>
</g>

<g fill="none" stroke="#000000" stroke-opacity="1" stroke-width="1" stroke-linecap="square" stroke-linejoin="bevel" transform="matrix(1.00313,0,0,1.00313,262.317,470.967)"
font-family="Sans Serif" font-size="9" font-weight="400" font-style="normal" 
>
</g>

<g fill="none" stroke="#000000" stroke-opacity="1" stroke-width="1" stroke-linecap="square" stroke-linejoin="bevel" transform="matrix(1.00313,0,0,1.00313,262.317,470.967)"
font-family="Sans Serif" font-size="9" font-weight="400" font-style="normal" 
>
</g>

<g fill="none" stroke="#000000" stroke-opacity="1" stroke-width="1" stroke-linecap="square" stroke-linejoin="bevel" transform="matrix(1.00313,0,0,1.00313,262.317,470.967)"
font-family="Sans Serif" font-size="9" font-weight="400" font-style="normal" 
>
</g>

<g fill="none" stroke="#000000" stroke-opacity="1" stroke-width="1" stroke-linecap="square" stroke-linejoin="bevel" transform="matrix(1.00313,0,0,1.00313,262.317,470.967)"
font-family="Sans Serif" font-size="9" font-weight="400" font-style="normal" 
>
</g>

<g fill="none" stroke="#000000" stroke-opacity="1" stroke-width="1" stroke-linecap="square" stroke-linejoin="bevel" transform="matrix(1.00313,0,0,1.00313,262.317,470.967)"
font-family="Sans Serif" font-size="9" font-weight="400" font-style="normal" 
>
</g>

<g fill="none" stroke="#000000" stroke-opacity="1" stroke-width="1" stroke-linecap="square" stroke-linejoin="bevel" transform="matrix(1.00313,0,0,1.00313,262.317,470.967)"
font-family="Sans" font-size="9" font-weight="400" font-style="normal" 
>
<text fill="#000000" fill-opacity="1" stroke="none" xml:space="preserve" x="0" y="0" font-family="Sans" font-size="9" font-weight="400" font-style="normal" 
 > 400</text>
</g>

<g fill="none" stroke="#000000" stroke-opacity="1" stroke-width="1" stroke-linecap="square" stroke-linejoin="bevel" transform="matrix(1.00313,0,0,1.00313,262.317,470.967)"
font-family="Sans Serif" font-size="9" font-weight="400" font-style="normal" 
>
</g>

<g fill="none" stroke="#000000" stroke-opacity="1" stroke-width="1" stroke-linecap="square" stroke-linejoin="bevel" transform="matrix(1.00313,0,0,1.00313,0,0)"
font-family="Sans Serif" font-size="9" font-weight="400" font-style="normal" 
>
</g>

<g fill="none" stroke="#a0a0a4" stroke-opacity="1" stroke-dasharray="0.5,1" stroke-dashoffset="0" stroke-width="0.5" stroke-linecap="round" stroke-linejoin="round" transform="matrix(1.00313,0,0,1.00313,0,0)"
font-family="Sans Serif" font-size="9" font-weight="400" font-style="normal" 
>
<polyline fill="none" vector-effect="none" points="389.5,450.5 389.5,15.5 " />
</g>

<g fill="none" stroke="#000000" stroke-opacity="1" stroke-width="1" stroke-linecap="round" stroke-linejoin="round" transform="matrix(1.00313,0,0,1.00313,0,0)"
font-family="Sans Serif" font-size="9" font-weight="400" font-style="normal" 
>
<polyline fill="none" vector-effect="none" points="389.5,450.5 389.5,444.5 " />
<polyline fill="none" vector-effect="none" points="389.5,15.5 389.5,21.5 " />
</g>

<g fill="none" stroke="#000000" stroke-opacity="1" stroke-width="1" stroke-linecap="square" stroke-linejoin="bevel" transform="matrix(1.00313,0,0,1.00313,0,0)"
font-family="Sans Serif" font-size="9" font-weight="400" font-style="normal" 
>
</g>

<g fill="none" stroke="#000000" stroke-opacity="1" stroke-width="1" stroke-linecap="square" stroke-linejoin="bevel" transform="matrix(1.00313,0,0,1.00313,377.677,470.967)"
font-family="Sans Serif" font-size="9" font-weight="400" font-style="normal" 
>
</g>

<g fill="none" stroke="#000000" stroke-opacity="1" stroke-width="1" stroke-linecap="square" stroke-linejoin="bevel" transform="matrix(1.00313,0,0,1.00313,377.677,470.967)"
font-family="Sans Serif" font-size="9" font-weight="400" font-style="normal" 
>
</g>

<g fill="none" stroke="#000000" stroke-opacity="1" stroke-width="1" stroke-linecap="square" stroke-linejoin="bevel" transform="matrix(1.00313,0,0,1.00313,377.677,470.967)"
font-family="Sans Serif" font-size="9" font-weight="400" font-style="normal" 
>
</g>

<g fill="none" stroke="#000000" stroke-opacity="1" stroke-width="1" stroke-linecap="square" stroke-linejoin="bevel" transform="matrix(1.00313,0,0,1.00313,377.677,470.967)"
font-family="Sans Serif" font-size="9" font-weight="400" font-style="normal" 
>
</g>

<g fill="none" stroke="#000000" stroke-opacity="1" stroke-width="1" stroke-linecap="square" stroke-linejoin="bevel" transform="matrix(1.00313,0,0,1.00313,377.677,470.967)"
font-family="Sans Serif" font-size="9" font-weight="400" font-style="normal" 
>
</g>

<g fill="none" stroke="#000000" stroke-opacity="1" stroke-width="1" stroke-linecap="square" stroke-linejoin="bevel" transform="matrix(1.00313,0,0,1.00313,377.677,470.967)"
font-family="Sans" font-size="9" font-weight="400" font-style="normal" 
>
<text fill="#000000" fill-opacity="1" stroke="none" xml:space="preserve" x="0" y="0" font-family="Sans" font-size="9" font-weight="400" font-style="normal" 
 > 600</text>
</g>

<g fill="none" stroke="#000000" stroke-opacity="1" stroke-width="1" stroke-linecap="square" stroke-linejoin="bevel" transform="matrix(1.00313,0,0,1.00313,377.677,470.967)"
font-family="Sans Serif" font-size="9" font-weight="400" font-style="normal" 
>
</g>

<g fill="none" stroke="#000000" stroke-opacity="1" stroke-width="1" stroke-linecap="square" stroke-linejoin="bevel" transform="matrix(1.00313,0,0,1.00313,0,0)"
font-family="Sans Serif" font-size="9" font-weight="400" font-style="normal" 
>
</g>

<g fill="none" stroke="#a0a0a4" stroke-opacity="1" stroke-dasharray="0.5,1" stroke-dashoffset="0" stroke-width="0.5" stroke-linecap="round" stroke-linejoin="round" transform="matrix(1.00313,0,0,1.00313,0,0)"
font-family="Sans Serif" font-size="9" font-weight="400" font-style="normal" 
>
<polyline fill="none" vector-effect="none" points="504.5,450.5 504.5,51.5 " />
<polyline fill="none" vector-effect="none" points="504.5,21.5 504.5,15.5 " />
</g>

<g fill="none" stroke="#000000" stroke-opacity="1" stroke-width="1" stroke-linecap="round" stroke-linejoin="round" transform="matrix(1.00313,0,0,1.00313,0,0)"
font-family="Sans Serif" font-size="9" font-weight="400" font-style="normal" 
>
<polyline fill="none" vector-effect="none" points="504.5,450.5 504.5,444.5 " />
<polyline fill="none" vector-effect="none" points="504.5,15.5 504.5,21.5 " />
</g>

<g fill="none" stroke="#000000" stroke-opacity="1" stroke-width="1" stroke-linecap="square" stroke-linejoin="bevel" transform="matrix(1.00313,0,0,1.00313,0,0)"
font-family="Sans Serif" font-size="9" font-weight="400" font-style="normal" 
>
</g>

<g fill="none" stroke="#000000" stroke-opacity="1" stroke-width="1" stroke-linecap="square" stroke-linejoin="bevel" transform="matrix(1.00313,0,0,1.00313,492.033,470.967)"
font-family="Sans Serif" font-size="9" font-weight="400" font-style="normal" 
>
</g>

<g fill="none" stroke="#000000" stroke-opacity="1" stroke-width="1" stroke-linecap="square" stroke-linejoin="bevel" transform="matrix(1.00313,0,0,1.00313,492.033,470.967)"
font-family="Sans Serif" font-size="9" font-weight="400" font-style="normal" 
>
</g>

<g fill="none" stroke="#000000" stroke-opacity="1" stroke-width="1" stroke-linecap="square" stroke-linejoin="bevel" transform="matrix(1.00313,0,0,1.00313,492.033,470.967)"
font-family="Sans Serif" font-size="9" font-weight="400" font-style="normal" 
>
</g>

<g fill="none" stroke="#000000" stroke-opacity="1" stroke-width="1" stroke-linecap="square" stroke-linejoin="bevel" transform="matrix(1.00313,0,0,1.00313,492.033,470.967)"
font-family="Sans Serif" font-size="9" font-weight="400" font-style="normal" 
>
</g>

<g fill="none" stroke="#000000" stroke-opacity="1" stroke-width="1" stroke-linecap="square" stroke-linejoin="bevel" transform="matrix(1.00313,0,0,1.00313,492.033,470.967)"
font-family="Sans Serif" font-size="9" font-weight="400" font-style="normal" 
>
</g>

<g fill="none" stroke="#000000" stroke-opacity="1" stroke-width="1" stroke-linecap="square" stroke-linejoin="bevel" transform="matrix(1.00313,0,0,1.00313,492.033,470.967)"
font-family="Sans" font-size="9" font-weight="400" font-style="normal" 
>
<text fill="#000000" fill-opacity="1" stroke="none" xml:space="preserve" x="0" y="0" font-family="Sans" font-size="9" font-weight="400" font-style="normal" 
 > 800</text>
</g>

<g fill="none" stroke="#000000" stroke-opacity="1" stroke-width="1" stroke-linecap="square" stroke-linejoin="bevel" transform="matrix(1.00313,0,0,1.00313,492.033,470.967)"
font-family="Sans Serif" font-size="9" font-weight="400" font-style="normal" 
>
</g>

<g fill="none" stroke="#000000" stroke-opacity="1" stroke-width="1" stroke-linecap="square" stroke-linejoin="bevel" transform="matrix(1.00313,0,0,1.00313,0,0)"
font-family="Sans Serif" font-size="9" font-weight="400" font-style="normal" 
>
</g>

<g fill="none" stroke="#a0a0a4" stroke-opacity="1" stroke-dasharray="0.5,1" stroke-dashoffset="0" stroke-width="0.5" stroke-linecap="round" stroke-linejoin="round" transform="matrix(1.00313,0,0,1.00313,0,0)"
font-family="Sans Serif" font-size="9" font-weight="400" font-style="normal" 
>
<polyline fill="none" vector-effect="none" points="618.5,450.5 618.5,15.5 " />
</g>

<g fill="none" stroke="#000000" stroke-opacity="1" stroke-width="1" stroke-linecap="round" stroke-linejoin="round" transform="matrix(1.00313,0,0,1.00313,0,0)"
font-family="Sans Serif" font-size="9" font-weight="400" font-style="normal" 
>
<polyline fill="none" vector-effect="none" points="618.5,450.5 618.5,444.5 " />
<polyline fill="none" vector-effect="none" points="618.5,15.5 618.5,21.5 " />
</g>

<g fill="none" stroke="#000000" stroke-opacity="1" stroke-width="1" stroke-linecap="square" stroke-linejoin="bevel" transform="matrix(1.00313,0,0,1.00313,0,0)"
font-family="Sans Serif" font-size="9" font-weight="400" font-style="normal" 
>
</g>

<g fill="none" stroke="#000000" stroke-opacity="1" stroke-width="1" stroke-linecap="square" stroke-linejoin="bevel" transform="matrix(1.00313,0,0,1.00313,603.38,470.967)"
font-family="Sans Serif" font-size="9" font-weight="400" font-style="normal" 
>
</g>

<g fill="none" stroke="#000000" stroke-opacity="1" stroke-width="1" stroke-linecap="square" stroke-linejoin="bevel" transform="matrix(1.00313,0,0,1.00313,603.38,470.967)"
font-family="Sans Serif" font-size="9" font-weight="400" font-style="normal" 
>
</g>

<g fill="none" stroke="#000000" stroke-opacity="1" stroke-width="1" stroke-linecap="square" stroke-linejoin="bevel" transform="matrix(1.00313,0,0,1.00313,603.38,470.967)"
font-family="Sans Serif" font-size="9" font-weight="400" font-style="normal" 
>
</g>

<g fill="none" stroke="#000000" stroke-opacity="1" stroke-width="1" stroke-linecap="square" stroke-linejoin="bevel" transform="matrix(1.00313,0,0,1.00313,603.38,470.967)"
font-family="Sans Serif" font-size="9" font-weight="400" font-style="normal" 
>
</g>

<g fill="none" stroke="#000000" stroke-opacity="1" stroke-width="1" stroke-linecap="square" stroke-linejoin="bevel" transform="matrix(1.00313,0,0,1.00313,603.38,470.967)"
font-family="Sans Serif" font-size="9" font-weight="400" font-style="normal" 
>
</g>

<g fill="none" stroke="#000000" stroke-opacity="1" stroke-width="1" stroke-linecap="square" stroke-linejoin="bevel" transform="matrix(1.00313,0,0,1.00313,603.38,470.967)"
font-family="Sans" font-size="9" font-weight="400" font-style="normal" 
>
<text fill="#000000" fill-opacity="1" stroke="none" xml:space="preserve" x="0" y="0" font-family="Sans" font-size="9" font-weight="400" font-style="normal" 
 > 1000</text>
</g>

<g fill="none" stroke="#000000" stroke-opacity="1" stroke-width="1" stroke-linecap="square" stroke-linejoin="bevel" transform="matrix(1.00313,0,0,1.00313,603.38,470.967)"
font-family="Sans Serif" font-size="9" font-weight="400" font-style="normal" 
>
</g>

<g fill="none" stroke="#000000" stroke-opacity="1" stroke-width="1" stroke-linecap="square" stroke-linejoin="bevel" transform="matrix(1.00313,0,0,1.00313,0,0)"
font-family="Sans Serif" font-size="9" font-weight="400" font-style="normal" 
>
</g>

<g fill="none" stroke="#000000" stroke-opacity="1" stroke-width="1" stroke-linecap="round" stroke-linejoin="round" transform="matrix(1.00313,0,0,1.00313,0,0)"
font-family="Sans Serif" font-size="9" font-weight="400" font-style="normal" 
>
<polyline fill="none" vector-effect="none" points="45.5,15.5 45.5,450.5 618.5,450.5 618.5,15.5 45.5,15.5 " />
</g>

<g fill="none" stroke="#000000" stroke-opacity="1" stroke-width="1" stroke-linecap="square" stroke-linejoin="bevel" transform="matrix(1.00313,0,0,1.00313,0,0)"
font-family="Sans Serif" font-size="9" font-weight="400" font-style="normal" 
>
</g>

<g fill="none" stroke="#000000" stroke-opacity="1" stroke-width="1" stroke-linecap="square" stroke-linejoin="bevel" transform="matrix(1.00313,0,0,1.00313,528.647,33.6047)"
font-family="Sans Serif" font-size="9" font-weight="400" font-style="normal" 
>
</g>

<g fill="none" stroke="#000000" stroke-opacity="1" stroke-width="1" stroke-linecap="square" stroke-linejoin="bevel" transform="matrix(1.00313,0,0,1.00313,528.647,33.6047)"
font-family="Sans Serif" font-size="9" font-weight="400" font-style="normal" 
>
</g>

<g fill="none" stroke="#000000" stroke-opacity="1" stroke-width="1" stroke-linecap="square" stroke-linejoin="bevel" transform="matrix(1.00313,0,0,1.00313,528.647,33.6047)"
font-family="Sans Serif" font-size="9" font-weight="400" font-style="normal" 
>
</g>

<g fill="none" stroke="#000000" stroke-opacity="1" stroke-width="1" stroke-linecap="square" stroke-linejoin="bevel" transform="matrix(1.00313,0,0,1.00313,528.647,33.6047)"
font-family="Sans Serif" font-size="9" font-weight="400" font-style="normal" 
>
</g>

<g fill="none" stroke="#000000" stroke-opacity="1" stroke-width="1" stroke-linecap="square" stroke-linejoin="bevel" transform="matrix(1.00313,0,0,1.00313,528.647,33.6047)"
font-family="Sans Serif" font-size="9" font-weight="400" font-style="normal" 
>
</g>

<g fill="none" stroke="#000000" stroke-opacity="1" stroke-width="1" stroke-linecap="square" stroke-linejoin="bevel" transform="matrix(1.00313,0,0,1.00313,528.647,33.6047)"
font-family="Sans" font-size="9" font-weight="400" font-style="normal" 
>
<text fill="#000000" fill-opacity="1" stroke="none" xml:space="preserve" x="0" y="0" font-family="Sans" font-size="9" font-weight="400" font-style="normal" 
 >Signal</text>
</g>

<g fill="none" stroke="#000000" stroke-opacity="1" stroke-width="1" stroke-linecap="square" stroke-linejoin="bevel" transform="matrix(1.00313,0,0,1.00313,528.647,33.6047)"
font-family="Sans Serif" font-size="9" font-weight="400" font-style="normal" 
>
</g>

<g fill="none" stroke="#000000" stroke-opacity="1" stroke-width="1" stroke-linecap="square" stroke-linejoin="bevel" transform="matrix(1.00313,0,0,1.00313,0,0)"
font-family="Sans Serif" font-size="9" font-weight="400" font-style="normal" 
>
</g>

<g fill="none" stroke="#9400d3" stroke-opacity="1" stroke-width="1" stroke-linecap="round" stroke-linejoin="round" transform="matrix(1.00313,0,0,1.00313,0,0)"
font-family="Sans Serif" font-size="9" font-weight="400" font-style="normal" 
>
<path vector-effect="none" fill-rule="evenodd" d="M570.5,28.5 L604.5,28.5"/>
</g>

<g fill="none" stroke="#000000" stroke-opacity="1" stroke-width="1" stroke-linecap="square" stroke-linejoin="bevel" transform="matrix(1.00313,0,0,1.00313,0,0)"
font-family="Sans Serif" font-size="9" font-weight="400" font-style="normal" 
>
</g>

<g fill="none" stroke="#000000" stroke-opacity="1" stroke-width="1" stroke-linecap="square" stroke-linejoin="bevel" transform="matrix(1.00313,0,0,1.00313,0,0)"
font-family="Sans Serif" font-size="9" font-weight="400" font-style="normal" 
>
</g>

<g fill="none" stroke="#000000" stroke-opacity="1" stroke-width="1" stroke-linecap="square" stroke-linejoin="bevel" transform="matrix(1.00313,0,0,1.00313,0,0)"
font-family="Sans Serif" font-size="9" font-weight="400" font-style="normal" 
>
</g>

<g fill="none" stroke="#000000" stroke-opacity="1" stroke-width="1" stroke-linecap="square" stroke-linejoin="bevel" transform="matrix(1.00313,0,0,1.00313,0,0)"
font-family="Sans Serif" font-size="9" font-weight="400" font-style="normal" 
>
</g>

<g fill="none" stroke="#9400d3" stroke-opacity="1" stroke-width="1" stroke-linecap="round" stroke-linejoin="round" transform="matrix(1.00313,0,0,1.00313,0,0)"
font-family="Sans Serif" font-size="9" font-weight="400" font-style="normal" 
>
<polyline fill="none" vector-effect="none" points="45.5,300.2 45.5,300.2 46.1,308.2 46.6,244.3 47.2,278.4 47.8,268.9 48.4,351.3 48.9,391.9 49.5,329.7 50.1,306.5 50.7,272.6 51.2,305.7 51.8,352 52.4,329.2 53,298.4 53.5,274.9 54.1,324.9 54.7,328.2 55.2,304.8 55.8,329.3 56.4,335 57,282.8 57.5,318.4 58.1,315.5 58.7,338.3 59.3,326.2 59.8,302.7 60.4,303.3 61,332.2 61.6,310.3 62.1,251.6 62.7,312.5 63.3,314.5 63.8,310 64.4,397.2 65,284.1 65.6,306.3 66.1,313.2 66.7,279.1 67.3,247.9 67.9,319.2 68.4,262.2 69,240 69.6,331.5 70.2,327.9 70.7,230 71.3,337.8 71.9,242.1 72.4,254.9 73,318.6 73.6,316.1 74.2,259.6 74.7,315 75.3,306.7 75.9,276.1 76.5,285.5 77,301.9 77.6,255.9 78.2,304.5 78.8,277.8 79.3,362.1 79.9,313.6 80.5,292.8 81.1,307.9 81.6,324.6 82.2,355.1 82.8,242.8 83.3,289.9 83.9,249.8 84.5,280.2 85.1,326.4 85.6,257.3 86.2,335.2 86.8,277 87.4,334.2 87.9,308.1 88.5,250.8 89.1,290.6 89.7,184 90.2,239.8 90.8,241.4 91.4,280.8 91.9,343.1 92.5,293.1 93.1,288.5 93.7,390.1 94.2,327.3 94.8,383.4 95.4,341.3 96,321.8 96.5,334.7 97.1,298.4 97.7,319.3 98.3,365.5 98.8,339.3 99.4,304.9 100,263.1 100.5,237 101.1,301 101.7,298.5 102.3,258.7 102.8,284.3 103.4,322.1 104,288.2 104.6,231.9 105.1,227.1 105.7,318.5 106.3,332 106.9,351.4 107.4,355.4 108,318.9 108.6,251.3 109.1,353.3 109.7,343 110.3,310.2 110.9,298.5 111.4,220.4 112,292.3 112.6,291.6 113.2,331.2 113.7,242.5 114.3,318.2 114.9,236.1 115.5,290.3 116,341.3 116.6,294.7 117.2,317.2 117.7,272.2 118.3,257.3 118.9,276.2 119.5,319.4 120,284.3 120.6,328 121.2,324.4 121.8,277.3 122.3,298 122.9,321.5 123.5,287.3 124.1,322 124.6,303.5 125.2,286.7 125.8,202.6 126.3,329 126.9,328.4 127.5,241 128.1,250.2 128.6,292.6 129.2,307.9 129.8,311.4 130.4,392.6 130.9,339.9 131.5,305.7 132.1,306.5 132.7,309.9 133.2,300.8 133.8,279.9 134.4,329.5 135,307.1 135.5,310.8 136.1,304.6 136.7,255.6 137.2,354.3 137.8,269.9 138.4,343.6 139,282.9 139.5,293.4 140.1,294.8 140.7,279.1 141.3,313.2 141.8,298.3 142.4,269.1 143,321 143.6,330.2 144.1,352.9 144.7,270.7 145.3,317.4 145.8,339.7 146.4,259.4 147,365.7 147.6,262.9 148.1,303.2 148.7,290.6 149.3,224.4 149.9,253.2 150.4,313.1 151,323.8 151.6,356.4 152.2,333.4 152.7,307.9 153.3,335.5 153.9,259.9 154.4,312.7 155,323.6 155.6,333.2 156.2,286.2 156.7,230.7 157.3,273.1 157.9,316.6 158.5,292.8 159,311.8 159.6,318.3 160.2,302.6 160.8,285.3 161.3,302.3 161.9,310 162.5,321.4 163,358.3 163.6,281.4 164.2,280.1 164.8,366.4 165.3,330.6 165.9,331.7 166.5,277.8 167.1,257.9 167.6,277.1 168.2,267.5 168.8,329.1 169.4,281.6 169.9,274.7 170.5,277 171.1,315.6 171.6,294.2 172.2,269.1 172.8,359 173.4,244.5 173.9,358 174.5,350.7 175.1,312.9 175.7,374.3 176.2,309.5 176.8,395.9 177.4,293.1 178,313.5 178.5,293.3 179.1,308.9 179.7,299.6 180.2,328.5 180.8,309.8 181.4,283.1 182,299.9 182.5,288.5 183.1,329.1 183.7,305.7 184.3,260.9 184.8,402.4 185.4,349.8 186,364.2 186.6,266.3 187.1,327.6 187.7,318 188.3,329 188.9,208 189.4,375 190,291 190.6,320 191.1,269.9 191.7,243.6 192.3,349.9 192.9,336.1 193.4,262.8 194,309.7 194.6,348.6 195.2,265 195.7,319 196.3,318.6 196.9,316.5 197.5,312.6 198,293.3 198.6,298.7 199.2,324.9 199.7,325.2 200.3,255 200.9,346.2 201.5,290.5 202,305.8 202.6,261.1 203.2,314.5 203.8,309.3 204.3,334.6 204.9,284.5 205.5,329.1 206.1,285.5 206.6,285.1 207.2,338.5 207.8,234.3 208.3,293.1 208.9,267 209.5,284.9 210.1,302.4 210.6,262.8 211.2,245.3 211.8,291.3 212.4,309.5 212.9,301.5 213.5,326.9 214.1,275.4 214.7,321.8 215.2,274.1 215.8,328 216.4,342.1 216.9,339.1 217.5,303.3 218.1,274.8 218.7,309.8 219.2,359.7 219.8,280.5 220.4,305.3 221,296.1 221.5,263.6 222.1,254.5 222.7,325 223.3,356.5 223.8,326.2 224.4,266.9 225,300.9 225.5,297.2 226.1,334.9 226.7,263.1 227.3,202.2 227.8,298.5 228.4,280 229,316 229.6,401.1 230.1,268.6 230.7,337.9 231.3,341.5 231.9,352.7 232.4,285.3 233,339.1 233.6,284.7 234.1,303.6 234.7,357.7 235.3,327.6 235.9,314.2 236.4,292.4 237,291 237.6,335.6 238.2,288.6 238.7,309.3 239.3,301.1 239.9,300.5 240.5,251.8 241,361.3 241.6,303.9 242.2,307.1 242.7,387 243.3,341.5 243.9,297.4 244.5,343.9 245,302.4 245.6,298.1 246.2,326.1 246.8,222.2 247.3,280.5 247.9,334.9 248.5,346.1 249.1,350.7 249.6,266.7 250.2,223.6 250.8,309.7 251.4,265.6 251.9,284.9 252.5,255.2 253.1,254 253.6,313.4 254.2,280.3 254.8,304.3 255.4,315 255.9,256.6 256.5,305.5 257.1,294 257.7,325.8 258.2,259.4 258.8,310.5 259.4,296.3 260,281.8 260.5,357.7 261.1,265.9 261.7,332.9 262.2,307.8 262.8,273.6 263.4,335.8 264,320.4 264.5,337.6 265.1,302.4 265.7,296.1 266.3,297.2 266.8,245.4 267.4,295.4 268,305.6 268.6,278.2 269.1,284.3 269.7,241.6 270.3,387.7 270.8,263.9 271.4,315.1 272,224.9 272.6,324 273.1,275.2 273.7,384.1 274.3,389.9 274.9,292.8 275.4,335.7 276,276.2 276.6,299 277.2,306.8 277.7,365.5 278.3,367.5 278.9,312.2 279.4,314.4 280,291.8 280.6,300.1 281.2,316.8 281.7,300.6 282.3,263.7 282.9,274.3 283.5,253.1 284,330.8 284.6,249.7 285.2,308.5 285.8,308.5 286.3,341 286.9,307 287.5,275.4 288,311.2 288.6,316 289.2,291 289.8,322.2 290.3,289.7 290.9,305.5 291.5,280.6 292.1,285.8 292.6,265.6 293.2,288.6 293.8,299.7 294.4,310.4 294.9,262.8 295.5,295.4 296.1,341.7 296.6,311 297.2,315 297.8,327.5 298.4,338.4 298.9,314.3 299.5,301.7 300.1,275.4 300.7,267.2 301.2,371.3 301.8,324.7 302.4,325.2 303,296 303.5,273.1 304.1,330.1 304.7,235.9 305.3,261.7 305.8,242.3 306.4,338.9 307,291.3 307.5,310.1 308.1,337 308.7,248.2 309.3,334.4 309.8,215 310.4,348.4 311,279.6 311.6,341.4 312.1,371.5 312.7,331.2 313.3,324.9 313.9,347.5 314.4,216.7 315,333.6 315.6,266.8 316.1,292.1 316.7,263.6 317.3,278.5 317.9,325 318.4,364.2 319,342.5 319.6,276.7 320.2,348.8 320.7,282.6 321.3,315.6 321.9,301.1 322.5,270.4 323,306.7 323.6,325.6 324.2,322.1 324.7,298.8 325.3,322.3 325.9,333.2 326.5,332.3 327,340.5 327.6,262.7 328.2,346.1 328.8,284.7 329.3,293.3 329.9,258.6 330.5,300.4 331.1,271.3 331.6,291.4 332.2,305.7 332.8,119.3 333.3,137.8 333.9,95.8 334.5,170.6 335.1,122.5 335.6,29.9 336.2,116.2 336.8,160 337.4,95.7 337.9,137.3 338.5,128.4 339.1,111.1 339.7,99.8 340.2,157.1 340.8,111.1 341.4,156 341.9,127.2 342.5,138.8 343.1,167.5 343.7,151 344.2,99 344.8,96.4 345.4,156.2 346,159.6 346.5,128.4 347.1,144.8 347.7,96.9 348.3,87.9 348.8,112.6 349.4,168.7 350,53.2 350.5,104.6 351.1,83 351.7,169.7 352.3,159.9 352.8,106.3 353.4,119.6 354,86.3 354.6,57.5 355.1,161.4 355.7,72.2 356.3,109.5 356.9,118.6 357.4,156.9 358,64.9 358.6,54.9 359.1,56.9 359.7,127 360.3,109.5 360.9,161.4 361.4,149.8 362,130.6 362.6,44 363.2,143.4 363.7,159 364.3,134.4 364.9,144.7 365.5,145.2 366,117.8 366.6,100.3 367.2,67.9 367.8,165.4 368.3,88.9 368.9,117.2 369.5,82.4 370,158 370.6,118.3 371.2,121 371.8,163.1 372.3,127 372.9,104.7 373.5,139.8 374.1,95.7 374.6,110.2 375.2,124.4 375.8,135.5 376.4,124.1 376.9,113 377.5,156.7 378.1,146 378.6,120.7 379.2,134.9 379.8,147.8 380.4,107.2 380.9,43.8 381.5,149.1 382.1,112.8 382.7,30.8 383.2,106.3 383.8,124.9 384.4,154.8 385,156.3 385.5,155 386.1,163.7 386.7,131.8 387.2,150.1 387.8,139.4 388.4,88.3 389,170.5 389.5,134.5 390.1,162.8 390.7,152.5 391.3,89.2 391.8,99.9 392.4,73 393,143.9 393.6,173.1 394.1,203.1 394.7,203.7 395.3,142.8 395.8,99.7 396.4,141.8 397,95.1 397.6,130.5 398.1,88 398.7,152.8 399.3,113.7 399.9,98.8 400.4,67.4 401,131.4 401.6,121.4 402.2,114 402.7,120.2 403.3,121 403.9,123.8 404.4,190.4 405,184.1 405.6,82.9 406.2,107.1 406.7,81.2 407.3,121.5 407.9,181.6 408.5,158 409,69.9 409.6,76.8 410.2,127.1 410.8,81.2 411.3,188.2 411.9,127.5 412.5,194 413,114.6 413.6,130.7 414.2,98.1 414.8,106.9 415.3,96.9 415.9,120.7 416.5,144.6 417.1,111.8 417.6,123.3 418.2,96.2 418.8,116.7 419.4,166.2 419.9,95.1 420.5,104.5 421.1,94.6 421.7,141 422.2,63.2 422.8,127.6 423.4,167 423.9,140.9 424.5,207.5 425.1,220.2 425.7,56.2 426.2,129.1 426.8,90.3 427.4,155.3 428,161.1 428.5,121.5 429.1,134.7 429.7,115.3 430.3,70.4 430.8,169.3 431.4,173.7 432,57.5 432.5,131.9 433.1,127.5 433.7,171.1 434.3,107 434.8,122 435.4,162.1 436,92.3 436.6,142.4 437.1,134.4 437.7,147.9 438.3,84 438.9,190.9 439.4,144.9 440,100.4 440.6,184.3 441.1,118.7 441.7,106.1 442.3,67.6 442.9,169.1 443.4,130.4 444,139.1 444.6,156 445.2,102.2 445.7,121.3 446.3,145.7 446.9,91.6 447.5,89.8 448,163.9 448.6,92.6 449.2,121.4 449.7,193.6 450.3,163 450.9,91.6 451.5,140.8 452,146.4 452.6,140.9 453.2,97.7 453.8,184.2 454.3,113.4 454.9,175.8 455.5,162.7 456.1,58.7 456.6,155.6 457.2,130 457.8,173.2 458.3,145.5 458.9,96.9 459.5,126.2 460.1,169.7 460.6,148.5 461.2,154.9 461.8,64.8 462.4,28.1 462.9,179.3 463.5,118.3 464.1,73.9 464.7,156.8 465.2,92.7 465.8,115.9 466.4,106.3 466.9,205.1 467.5,106.4 468.1,143.9 468.7,98.3 469.2,59.4 469.8,107.5 470.4,183.8 471,140.3 471.5,144.4 472.1,133.4 472.7,160.6 473.3,118.8 473.8,136.6 474.4,152.7 475,78.9 475.6,78.1 476.1,126.7 476.7,135.8 477.3,76.5 477.8,154.1 478.4,149 479,128.9 479.6,153.5 480.1,94.2 480.7,109 481.3,122.6 481.9,42.8 482.4,154.5 483,136.3 483.6,114.8 484.2,173.8 484.7,133.6 485.3,109.7 485.9,141.2 486.4,126.4 487,141.2 487.6,103.6 488.2,92.9 488.7,96.6 489.3,71.9 489.9,117 490.5,118.1 491,145.5 491.6,76.5 492.2,137.6 492.8,84.3 493.3,146.4 493.9,91.7 494.5,101.7 495,146.7 495.6,115.9 496.2,128 496.8,130.3 497.3,166.3 497.9,102.3 498.5,165.1 499.1,88.1 499.6,162.6 500.2,79 500.8,144.9 501.4,114.7 501.9,192.6 502.5,92.2 503.1,80 503.6,118.5 504.2,115.3 504.8,125.4 505.4,117 505.9,180.7 506.5,142.2 507.1,106.1 507.7,74.4 508.2,112.1 508.8,173.8 509.4,138.7 510,95.1 510.5,82.9 511.1,135.5 511.7,57.5 512.2,112.4 512.8,100 513.4,125.1 514,133.1 514.5,115.5 515.1,80.2 515.7,125.2 516.3,98.2 516.8,75 517.4,196.8 518,101.9 518.6,131.9 519.1,95.2 519.7,64.3 520.3,125.7 520.8,142.2 521.4,122.5 522,103.3 522.6,178.7 523.1,123.7 523.7,95.1 524.3,116.3 524.9,164.3 525.4,116.8 526,94.1 526.6,148.4 527.2,85.2 527.7,145.4 528.3,121.8 528.9,150.4 529.4,125.1 530,130.4 530.6,141.9 531.2,118.1 531.7,162.5 532.3,184.3 532.9,70.4 533.5,106.8 534,134.2 534.6,98.4 535.2,98.7 535.8,160.4 536.3,108.7 536.9,170.3 537.5,134.2 538.1,127.5 538.6,155.7 539.2,80.5 539.8,131 540.3,164.6 540.9,151.5 541.5,104.1 542.1,202.4 542.6,159.2 543.2,86.5 543.8,88 544.4,129.1 544.9,142.5 545.5,137.2 546.1,186.6 546.7,127.8 547.2,95.2 547.8,119 548.4,106.9 548.9,130.6 549.5,103.4 550.1,129.4 550.7,145.8 551.2,84.3 551.8,137.6 552.4,201.6 553,151.5 553.5,118.4 554.1,143 554.7,92 555.3,133.9 555.8,114.7 556.4,98.9 557,67.6 557.5,87.2 558.1,126 558.7,99.1 559.3,103.8 559.8,116.5 560.4,127.8 561,140.8 561.6,126.6 562.1,187.6 562.7,183.6 563.3,183.5 563.9,158.2 564.4,126.2 565,112.3 565.6,169.1 566.1,148.4 566.7,137.3 567.3,161.3 567.9,104 568.4,112 569,53.8 569.6,88.3 570.2,139.3 570.7,147.9 571.3,95.3 571.9,185.6 572.5,150.2 573,146.8 573.6,101.5 574.2,92.9 574.7,136.3 575.3,130.1 575.9,69.4 576.5,111 577,140.6 577.6,181.2 578.2,115.5 578.8,68.4 579.3,129.4 579.9,115.6 580.5,103.2 581.1,116.3 581.6,158.7 582.2,63 582.8,106.9 583.3,164.6 583.9,180.8 584.5,97.2 585.1,67.9 585.6,82.1 586.2,116.1 586.8,68.6 587.4,129.7 587.9,70.2 588.5,106 589.1,176.8 589.7,136.1 590.2,166.4 590.8,152.2 591.4,115 592,82 592.5,91.7 593.1,122.9 593.7,152.5 594.2,103.5 594.8,80.7 595.4,96.3 596,150.3 596.5,168.9 597.1,145.4 597.7,209.4 598.3,108.7 598.8,77.8 599.4,103.5 600,153.8 600.6,148.2 601.1,128.8 601.7,135 602.3,140 602.8,108 603.4,174.8 604,128.3 604.6,148 605.1,202.7 605.7,103.6 606.3,91.7 606.9,133.3 607.4,65.7 608,116.1 608.6,117.2 609.2,139.9 609.7,111.3 610.3,84.7 610.9,142.7 611.4,160.6 612,172.5 612.6,65.1 613.2,118.2 613.7,136.8 614.3,126.7 614.9,106.1 615.5,86.3 616,102 616.6,149.2 617.2,76.3 617.8,116 618.3,146.2 " />
</g>

<g fill="none" stroke="#000000" stroke-opacity="1" stroke-width="1" stroke-linecap="square" stroke-linejoin="bevel" transform="matrix(1.00313,0,0,1.00313,0,0)"
font-family="Sans Serif" font-size="9" font-weight="400" font-style="normal" 
>
</g>

<g fill="none" stroke="#000000" stroke-opacity="1" stroke-width="1" stroke-linecap="square" stroke-linejoin="bevel" transform="matrix(1.00313,0,0,1.00313,408.272,48.6516)"
font-family="Sans Serif" font-size="9" font-weight="400" font-style="normal" 
>
</g>

<g fill="none" stroke="#000000" stroke-opacity="1" stroke-width="1" stroke-linecap="square" stroke-linejoin="bevel" transform="matrix(1.00313,0,0,1.00313,408.272,48.6516)"
font-family="Sans Serif" font-size="9" font-weight="400" font-style="normal" 
>
</g>

<g fill="none" stroke="#000000" stroke-opacity="1" stroke-width="1" stroke-linecap="square" stroke-linejoin="bevel" transform="matrix(1.00313,0,0,1.00313,408.272,48.6516)"
font-family="Sans Serif" font-size="9" font-weight="400" font-style="normal" 
>
</g>

<g fill="none" stroke="#000000" stroke-opacity="1" stroke-width="1" stroke-linecap="square" stroke-linejoin="bevel" transform="matrix(1.00313,0,0,1.00313,408.272,48.6516)"
font-family="Sans Serif" font-size="9" font-weight="400" font-style="normal" 
>
</g>

<g fill="none" stroke="#000000" stroke-opacity="1" stroke-width="1" stroke-linecap="square" stroke-linejoin="bevel" transform="matrix(1.00313,0,0,1.00313,408.272,48.6516)"
font-family="Sans Serif" font-size="9" font-weight="400" font-style="normal" 
>
</g>

<g fill="none" stroke="#000000" stroke-opacity="1" stroke-width="1" stroke-linecap="square" stroke-linejoin="bevel" transform="matrix(1.00313,0,0,1.00313,408.272,48.6516)"
font-family="Sans" font-size="9" font-weight="400" font-style="normal" 
>
<text fill="#000000" fill-opacity="1" stroke="none" xml:space="preserve" x="0" y="0" font-family="Sans" font-size="9" font-weight="400" font-style="normal" 
 >Gaussian smoothed signal</text>
</g>

<g fill="none" stroke="#000000" stroke-opacity="1" stroke-width="1" stroke-linecap="square" stroke-linejoin="bevel" transform="matrix(1.00313,0,0,1.00313,408.272,48.6516)"
font-family="Sans Serif" font-size="9" font-weight="400" font-style="normal" 
>
</g>

<g fill="none" stroke="#000000" stroke-opacity="1" stroke-width="1" stroke-linecap="square" stroke-linejoin="bevel" transform="matrix(1.00313,0,0,1.00313,0,0)"
font-family="Sans Serif" font-size="9" font-weight="400" font-style="normal" 
>
</g>

<g fill="none" stroke="#009e73" stroke-opacity="1" stroke-width="1" stroke-linecap="round" stroke-linejoin="round" transform="matrix(1.00313,0,0,1.00313,0,0)"
font-family="Sans Serif" font-size="9" font-weight="400" font-style="normal" 
>
<path vector-effect="none" fill-rule="evenodd" d="M570.5,43.5 L604.5,43.5"/>
</g>

<g fill="none" stroke="#000000" stroke-opacity="1" stroke-width="1" stroke-linecap="square" stroke-linejoin="bevel" transform="matrix(1.00313,0,0,1.00313,0,0)"
font-family="Sans Serif" font-size="9" font-weight="400" font-style="normal" 
>
</g>

<g fill="none" stroke="#000000" stroke-opacity="1" stroke-width="1" stroke-linecap="square" stroke-linejoin="bevel" transform="matrix(1.00313,0,0,1.00313,0,0)"
font-family="Sans Serif" font-size="9" font-weight="400" font-style="normal" 
>
</g>

<g fill="none" stroke="#000000" stroke-opacity="1" stroke-width="1" stroke-linecap="square" stroke-linejoin="bevel" transform="matrix(1.00313,0,0,1.00313,0,0)"
font-family="Sans Serif" font-size="9" font-weight="400" font-style="normal" 
>
</g>

<g fill="none" stroke="#000000" stroke-opacity="1" stroke-width="1" stroke-linecap="square" stroke-linejoin="bevel" transform="matrix(1.00313,0,0,1.00313,0,0)"
font-family="Sans Serif" font-size="9" font-weight="400" font-style="normal" 
>
</g>

<g fill="none" stroke="#009e73" stroke-opacity="1" stroke-width="1" stroke-linecap="round" stroke-linejoin="round" transform="matrix(1.00313,0,0,1.00313,0,0)"
font-family="Sans Serif" font-size="9" font-weight="400" font-style="normal" 
>
<polyline fill="none" vector-effect="none" points="45.5,303.7 45.5,303.7 46.1,304.4 46.6,305.2 47.2,306 47.8,306.8 48.4,307.6 48.9,308.4 49.5,309.2 50.1,310 50.7,310.7 51.2,311.4 51.8,312 52.4,312.4 53,312.8 53.5,313.2 54.1,313.4 54.7,313.6 55.2,313.7 55.8,313.7 56.4,313.6 57,313.4 57.5,313.1 58.1,312.8 58.7,312.4 59.3,311.9 59.8,311.2 60.4,310.5 61,309.8 61.6,308.9 62.1,307.9 62.7,306.9 63.3,305.7 63.8,304.5 64.4,303.3 65,302.1 65.6,300.8 66.1,299.6 66.7,298.4 67.3,297.2 67.9,296.2 68.4,295.2 69,294.3 69.6,293.6 70.2,293 70.7,292.5 71.3,292.2 71.9,292.1 72.4,292.1 73,292.2 73.6,292.4 74.2,292.7 74.7,293.1 75.3,293.5 75.9,294 76.5,294.4 77,294.8 77.6,295.2 78.2,295.5 78.8,295.7 79.3,295.9 79.9,295.9 80.5,295.8 81.1,295.6 81.6,295.4 82.2,295 82.8,294.5 83.3,294 83.9,293.5 84.5,293 85.1,292.6 85.6,292.3 86.2,292 86.8,292 87.4,292.2 87.9,292.6 88.5,293.2 89.1,294 89.7,295.1 90.2,296.4 90.8,297.8 91.4,299.3 91.9,300.9 92.5,302.5 93.1,304 93.7,305.4 94.2,306.5 94.8,307.4 95.4,308.1 96,308.5 96.5,308.6 97.1,308.4 97.7,307.9 98.3,307.3 98.8,306.5 99.4,305.5 100,304.5 100.5,303.4 101.1,302.5 101.7,301.6 102.3,300.8 102.8,300.3 103.4,299.8 104,299.5 104.6,299.3 105.1,299.3 105.7,299.3 106.3,299.3 106.9,299.3 107.4,299.3 108,299.3 108.6,299.2 109.1,299 109.7,298.7 110.3,298.4 110.9,298 111.4,297.5 112,297.1 112.6,296.7 113.2,296.2 113.7,295.7 114.3,295.4 114.9,295.1 115.5,295 116,294.8 116.6,294.8 117.2,294.8 117.7,294.9 118.3,295 118.9,295.1 119.5,295.3 120,295.5 120.6,295.7 121.2,295.8 121.8,296 122.3,296.2 122.9,296.4 123.5,296.7 124.1,297 124.6,297.4 125.2,297.8 125.8,298.3 126.3,298.9 126.9,299.5 127.5,300.1 128.1,300.8 128.6,301.5 129.2,302.2 129.8,302.9 130.4,303.4 130.9,304 131.5,304.4 132.1,304.8 132.7,305.1 133.2,305.3 133.8,305.3 134.4,305.3 135,305.2 135.5,305 136.1,304.8 136.7,304.6 137.2,304.4 137.8,304.2 138.4,304 139,303.8 139.5,303.7 140.1,303.6 140.7,303.5 141.3,303.4 141.8,303.3 142.4,303.3 143,303.2 143.6,303.1 144.1,303.1 144.7,303 145.3,302.9 145.8,302.8 146.4,302.7 147,302.6 147.6,302.6 148.1,302.5 148.7,302.5 149.3,302.5 149.9,302.5 150.4,302.5 151,302.6 151.6,302.6 152.2,302.6 152.7,302.7 153.3,302.7 153.9,302.7 154.4,302.7 155,302.7 155.6,302.8 156.2,302.8 156.7,302.9 157.3,303 157.9,303.1 158.5,303.3 159,303.4 159.6,303.6 160.2,303.8 160.8,303.9 161.3,304 161.9,304 162.5,304.1 163,304 163.6,303.9 164.2,303.7 164.8,303.6 165.3,303.4 165.9,303.2 166.5,303 167.1,303 167.6,303 168.2,303.2 168.8,303.5 169.4,304 169.9,304.6 170.5,305.3 171.1,306.2 171.6,307.2 172.2,308.2 172.8,309.3 173.4,310.3 173.9,311.3 174.5,312.2 175.1,313 175.7,313.7 176.2,314.3 176.8,314.7 177.4,315 178,315.1 178.5,315.2 179.1,315.2 179.7,315.1 180.2,315 180.8,314.8 181.4,314.6 182,314.4 182.5,314.1 183.1,313.9 183.7,313.6 184.3,313.2 184.8,312.9 185.4,312.5 186,312.1 186.6,311.6 187.1,311.1 187.7,310.6 188.3,310.1 188.9,309.5 189.4,309 190,308.5 190.6,308 191.1,307.6 191.7,307.2 192.3,307 192.9,306.7 193.4,306.5 194,306.3 194.6,306.2 195.2,306 195.7,305.9 196.3,305.8 196.9,305.6 197.5,305.4 198,305.1 198.6,304.8 199.2,304.5 199.7,304 200.3,303.5 200.9,302.9 201.5,302.3 202,301.7 202.6,301 203.2,300.2 203.8,299.5 204.3,298.7 204.9,298 205.5,297.2 206.1,296.5 206.6,296 207.2,295.4 207.8,295 208.3,294.7 208.9,294.6 209.5,294.7 210.1,294.9 210.6,295.2 211.2,295.7 211.8,296.3 212.4,297 212.9,297.7 213.5,298.5 214.1,299.3 214.7,300.1 215.2,300.9 215.8,301.5 216.4,302 216.9,302.5 217.5,302.8 218.1,303 218.7,303.1 219.2,303.1 219.8,303 220.4,302.9 221,302.8 221.5,302.6 222.1,302.4 222.7,302.3 223.3,302.3 223.8,302.3 224.4,302.4 225,302.7 225.5,303.1 226.1,303.5 226.7,304.2 227.3,304.8 227.8,305.6 228.4,306.5 229,307.4 229.6,308.2 230.1,309.1 230.7,309.9 231.3,310.6 231.9,311.3 232.4,311.8 233,312.3 233.6,312.6 234.1,312.9 234.7,313 235.3,313.1 235.9,313.1 236.4,313.1 237,313 237.6,312.9 238.2,312.7 238.7,312.5 239.3,312.3 239.9,312.1 240.5,311.8 241,311.5 241.6,311.1 242.2,310.6 242.7,310 243.3,309.3 243.9,308.4 244.5,307.4 245,306.3 245.6,305.1 246.2,303.9 246.8,302.5 247.3,301.2 247.9,299.8 248.5,298.5 249.1,297.3 249.6,296.1 250.2,295.1 250.8,294.2 251.4,293.5 251.9,293 252.5,292.6 253.1,292.4 253.6,292.5 254.2,292.6 254.8,293 255.4,293.5 255.9,294.1 256.5,294.8 257.1,295.5 257.7,296.2 258.2,297 258.8,297.7 259.4,298.4 260,299.1 260.5,299.6 261.1,300.1 261.7,300.4 262.2,300.7 262.8,300.8 263.4,300.8 264,300.8 264.5,300.8 265.1,300.8 265.7,300.7 266.3,300.7 266.8,300.8 267.4,300.9 268,301.2 268.6,301.5 269.1,302 269.7,302.6 270.3,303.3 270.8,304.2 271.4,305.1 272,306 272.6,306.9 273.1,307.8 273.7,308.6 274.3,309.3 274.9,309.9 275.4,310.2 276,310.5 276.6,310.5 277.2,310.3 277.7,309.9 278.3,309.4 278.9,308.7 279.4,307.9 280,307 280.6,306.1 281.2,305.1 281.7,304.2 282.3,303.3 282.9,302.5 283.5,301.8 284,301.1 284.6,300.6 285.2,300.1 285.8,299.7 286.3,299.3 286.9,299.2 287.5,299 288,298.9 288.6,298.9 289.2,298.9 289.8,299 290.3,299.1 290.9,299.3 291.5,299.5 292.1,299.9 292.6,300.2 293.2,300.6 293.8,301.1 294.4,301.6 294.9,302.1 295.5,302.5 296.1,302.9 296.6,303.3 297.2,303.6 297.8,303.8 298.4,303.9 298.9,303.9 299.5,303.8 300.1,303.5 300.7,303.2 301.2,302.8 301.8,302.3 302.4,301.8 303,301.4 303.5,300.9 304.1,300.6 304.7,300.4 305.3,300.2 305.8,300.2 306.4,300.3 307,300.5 307.5,300.8 308.1,301.1 308.7,301.6 309.3,302.1 309.8,302.7 310.4,303.2 311,303.7 311.6,304.3 312.1,304.7 312.7,305.2 313.3,305.5 313.9,305.9 314.4,306.2 315,306.4 315.6,306.7 316.1,306.9 316.7,307.1 317.3,307.3 317.9,307.5 318.4,307.6 319,307.7 319.6,307.7 320.2,307.6 320.7,307.4 321.3,307 321.9,306.3 322.5,305.5 323,304.3 323.6,302.8 324.2,300.8 324.7,298.3 325.3,295.3 325.9,291.7 326.5,287.5 327,282.6 327.6,277 328.2,270.9 328.8,264.1 329.3,256.8 329.9,248.9 330.5,240.6 331.1,232 331.6,223.2 332.2,214.3 332.8,205.5 333.3,196.8 333.9,188.5 334.5,180.6 335.1,173.2 335.6,166.4 336.2,160.2 336.8,154.7 337.4,149.9 337.9,145.7 338.5,142.2 339.1,139.2 339.7,136.8 340.2,134.8 340.8,133.1 341.4,131.8 341.9,130.7 342.5,129.7 343.1,128.9 343.7,128.1 344.2,127.3 344.8,126.4 345.4,125.6 346,124.7 346.5,123.8 347.1,122.8 347.7,121.9 348.3,120.8 348.8,119.8 349.4,118.8 350,117.7 350.5,116.8 351.1,115.8 351.7,114.9 352.3,114.1 352.8,113.3 353.4,112.6 354,112.1 354.6,111.6 355.1,111.3 355.7,111.1 356.3,111.1 356.9,111.2 357.4,111.4 358,111.8 358.6,112.2 359.1,112.8 359.7,113.5 360.3,114.2 360.9,115 361.4,115.7 362,116.5 362.6,117.2 363.2,118 363.7,118.6 364.3,119.1 364.9,119.7 365.5,120.1 366,120.5 366.6,120.8 367.2,121 367.8,121.3 368.3,121.5 368.9,121.6 369.5,121.8 370,122 370.6,122.2 371.2,122.3 371.8,122.5 372.3,122.6 372.9,122.8 373.5,122.9 374.1,122.9 374.6,123 375.2,123 375.8,123 376.4,122.9 376.9,122.9 377.5,122.9 378.1,122.8 378.6,122.8 379.2,122.9 379.8,123.1 380.4,123.4 380.9,123.8 381.5,124.2 382.1,124.8 382.7,125.4 383.2,126.1 383.8,126.9 384.4,127.8 385,128.7 385.5,129.5 386.1,130.4 386.7,131.2 387.2,131.9 387.8,132.6 388.4,133.2 389,133.6 389.5,134 390.1,134.2 390.7,134.4 391.3,134.4 391.8,134.2 392.4,133.9 393,133.5 393.6,133.1 394.1,132.5 394.7,131.8 395.3,131 395.8,130.2 396.4,129.3 397,128.5 397.6,127.7 398.1,127 398.7,126.2 399.3,125.6 399.9,125 400.4,124.6 401,124.2 401.6,124 402.2,123.8 402.7,123.7 403.3,123.7 403.9,123.7 404.4,123.8 405,123.9 405.6,124 406.2,124.1 406.7,124.1 407.3,124.2 407.9,124.2 408.5,124.1 409,124.1 409.6,124 410.2,123.9 410.8,123.8 411.3,123.6 411.9,123.5 412.5,123.3 413,123.1 413.6,122.9 414.2,122.7 414.8,122.6 415.3,122.5 415.9,122.4 416.5,122.4 417.1,122.6 417.6,122.7 418.2,123 418.8,123.4 419.4,123.8 419.9,124.4 420.5,125 421.1,125.7 421.7,126.4 422.2,127.1 422.8,127.8 423.4,128.4 423.9,129 424.5,129.5 425.1,129.9 425.7,130.3 426.2,130.5 426.8,130.7 427.4,130.7 428,130.7 428.5,130.7 429.1,130.6 429.7,130.5 430.3,130.4 430.8,130.3 431.4,130.3 432,130.2 432.5,130.2 433.1,130.2 433.7,130.3 434.3,130.3 434.8,130.4 435.4,130.5 436,130.6 436.6,130.6 437.1,130.6 437.7,130.6 438.3,130.6 438.9,130.5 439.4,130.4 440,130.2 440.6,130.2 441.1,130 441.7,129.9 442.3,129.7 442.9,129.6 443.4,129.5 444,129.5 444.6,129.5 445.2,129.6 445.7,129.8 446.3,130 446.9,130.3 447.5,130.6 448,131 448.6,131.4 449.2,131.9 449.7,132.3 450.3,132.8 450.9,133.2 451.5,133.5 452,133.8 452.6,134.1 453.2,134.2 453.8,134.3 454.3,134.2 454.9,133.9 455.5,133.6 456.1,133.2 456.6,132.7 457.2,132.1 457.8,131.3 458.3,130.6 458.9,129.7 459.5,128.9 460.1,128.1 460.6,127.2 461.2,126.4 461.8,125.7 462.4,125.1 462.9,124.6 463.5,124.2 464.1,123.9 464.7,123.7 465.2,123.6 465.8,123.6 466.4,123.7 466.9,123.9 467.5,124.1 468.1,124.4 468.7,124.6 469.2,124.9 469.8,125.1 470.4,125.3 471,125.4 471.5,125.5 472.1,125.5 472.7,125.4 473.3,125.3 473.8,125.1 474.4,124.9 475,124.6 475.6,124.3 476.1,124 476.7,123.8 477.3,123.5 477.8,123.3 478.4,123 479,122.8 479.6,122.6 480.1,122.4 480.7,122.2 481.3,122 481.9,121.7 482.4,121.5 483,121.2 483.6,120.9 484.2,120.6 484.7,120.2 485.3,119.7 485.9,119.3 486.4,118.8 487,118.4 487.6,118.1 488.2,117.7 488.7,117.5 489.3,117.3 489.9,117.2 490.5,117.2 491,117.4 491.6,117.6 492.2,118 492.8,118.4 493.3,118.9 493.9,119.4 494.5,120 495,120.7 495.6,121.3 496.2,121.8 496.8,122.4 497.3,122.8 497.9,123.2 498.5,123.5 499.1,123.7 499.6,123.9 500.2,123.9 500.8,123.9 501.4,123.8 501.9,123.6 502.5,123.3 503.1,123 503.6,122.6 504.2,122.2 504.8,121.7 505.4,121.1 505.9,120.5 506.5,119.9 507.1,119.3 507.7,118.6 508.2,117.9 508.8,117.3 509.4,116.7 510,116 510.5,115.5 511.1,115 511.7,114.6 512.2,114.3 512.8,114 513.4,113.9 514,113.9 514.5,113.9 515.1,114.1 515.7,114.4 516.3,114.8 516.8,115.2 517.4,115.7 518,116.3 518.6,116.9 519.1,117.5 519.7,118.2 520.3,118.9 520.8,119.6 521.4,120.3 522,121 522.6,121.7 523.1,122.4 523.7,123 524.3,123.7 524.9,124.2 525.4,124.8 526,125.4 526.6,125.9 527.2,126.3 527.7,126.8 528.3,127.1 528.9,127.5 529.4,127.8 530,128 530.6,128.3 531.2,128.5 531.7,128.8 532.3,128.9 532.9,129.2 533.5,129.4 534,129.6 534.6,129.9 535.2,130.1 535.8,130.4 536.3,130.7 536.9,131 537.5,131.2 538.1,131.5 538.6,131.8 539.2,132 539.8,132.1 540.3,132.2 540.9,132.3 541.5,132.2 542.1,132.1 542.6,131.9 543.2,131.7 543.8,131.4 544.4,131.1 544.9,130.7 545.5,130.3 546.1,129.9 546.7,129.4 547.2,129 547.8,128.6 548.4,128.1 548.9,127.7 549.5,127.3 550.1,126.8 550.7,126.3 551.2,125.9 551.8,125.4 552.4,125 553,124.6 553.5,124.2 554.1,124 554.7,123.8 555.3,123.7 555.8,123.8 556.4,124.1 557,124.4 557.5,125 558.1,125.7 558.7,126.6 559.3,127.5 559.8,128.5 560.4,129.5 561,130.4 561.6,131.3 562.1,132.1 562.7,132.8 563.3,133.3 563.9,133.6 564.4,133.6 565,133.5 565.6,133.2 566.1,132.8 566.7,132.2 567.3,131.5 567.9,130.7 568.4,129.9 569,129.1 569.6,128.3 570.2,127.5 570.7,126.7 571.3,126 571.9,125.3 572.5,124.6 573,124 573.6,123.4 574.2,122.8 574.7,122.3 575.3,121.8 575.9,121.3 576.5,120.8 577,120.3 577.6,119.8 578.2,119.3 578.8,118.8 579.3,118.4 579.9,118 580.5,117.5 581.1,117.1 581.6,116.8 582.2,116.5 582.8,116.3 583.3,116.2 583.9,116.1 584.5,116.1 585.1,116.1 585.6,116.2 586.2,116.5 586.8,116.8 587.4,117.1 587.9,117.6 588.5,118.1 589.1,118.7 589.7,119.4 590.2,120 590.8,120.8 591.4,121.5 592,122.3 592.5,123 593.1,123.8 593.7,124.6 594.2,125.4 594.8,126.1 595.4,126.9 596,127.6 596.5,128.3 597.1,128.9 597.7,129.6 598.3,130 598.8,130.4 599.4,130.8 600,131.1 600.6,131.2 601.1,131.2 601.7,131.1 602.3,130.9 602.8,130.5 603.4,130.1 604,129.5 604.6,129 605.1,128.3 605.7,127.6 606.3,126.9 606.9,126.3 607.4,125.6 608,125 608.6,124.4 609.2,123.9 609.7,123.5 610.3,123.1 610.9,122.9 611.4,122.7 612,122.7 612.6,122.8 613.2,123.1 613.7,123.5 614.3,124.1 614.9,124.7 615.5,125.5 616,126.5 616.6,127.5 617.2,128.6 617.8,129.9 618.3,131.1 " />
</g>

<g fill="none" stroke="#000000" stroke-opacity="1" stroke-width="1" stroke-linecap="square" stroke-linejoin="bevel" transform="matrix(1.00313,0,0,1.00313,0,0)"
font-family="Sans Serif" font-size="9" font-weight="400" font-style="normal" 
>
</g>

<g fill="none" stroke="#000000" stroke-opacity="1" stroke-width="1" stroke-linecap="square" stroke-linejoin="bevel" transform="matrix(1.00313,0,0,1.00313,0,0)"
font-family="Sans Serif" font-size="9" font-weight="400" font-style="normal" 
>
</g>

<g fill="none" stroke="#000000" stroke-opacity="1" stroke-width="1" stroke-linecap="round" stroke-linejoin="round" transform="matrix(1.00313,0,0,1.00313,0,0)"
font-family="Sans Serif" font-size="9" font-weight="400" font-style="normal" 
>
<polyline fill="none" vector-effect="none" points="45.5,15.5 45.5,450.5 618.5,450.5 618.5,15.5 45.5,15.5 " />
</g>

<g fill="none" stroke="#000000" stroke-opacity="1" stroke-width="1" stroke-linecap="square" stroke-linejoin="bevel" transform="matrix(1.00313,0,0,1.00313,0,0)"
font-family="Sans Serif" font-size="9" font-weight="400" font-style="normal" 
>
</g>

<g fill="none" stroke="#000000" stroke-opacity="1" stroke-width="1" stroke-linecap="square" stroke-linejoin="bevel" transform="matrix(1,0,0,1,0,0)"
font-family="Sans Serif" font-size="9" font-weight="400" font-style="normal" 
>
</g>
</g>
</svg>
