<?xml version="1.0" encoding="UTF-8" standalone="no"?>
<svg width="226.483mm" height="170.039mm"
 viewBox="0 0 642 482"
 xmlns="http://www.w3.org/2000/svg" xmlns:xlink="http://www.w3.org/1999/xlink"  version="1.2" baseProfile="tiny">
<title>Qt SVG Document</title>
<desc>Generated with Qt</desc>
<defs>
</defs>
<g fill="none" stroke="black" stroke-width="1" fill-rule="evenodd" stroke-linecap="square" stroke-linejoin="bevel" >

<g fill="none" stroke="#000000" stroke-opacity="1" stroke-width="1" stroke-linecap="square" stroke-linejoin="bevel" transform="matrix(1,0,0,1,0,0)"
font-family="Sans Serif" font-size="9" font-weight="400" font-style="normal" 
>
</g>

<g fill="none" stroke="#000000" stroke-opacity="1" stroke-width="1" stroke-linecap="square" stroke-linejoin="bevel" transform="matrix(1.00313,0,0,1.00313,0,0)"
font-family="Sans Serif" font-size="9" font-weight="400" font-style="normal" 
>
</g>

<g fill="none" stroke="#a0a0a4" stroke-opacity="1" stroke-dasharray="0.5,1" stroke-dashoffset="0" stroke-width="0.5" stroke-linecap="round" stroke-linejoin="round" transform="matrix(1.00313,0,0,1.00313,0,0)"
font-family="Sans Serif" font-size="9" font-weight="400" font-style="normal" 
>
<polyline fill="none" vector-effect="none" points="45.5,450.5 618.5,450.5 " />
</g>

<g fill="none" stroke="#000000" stroke-opacity="1" stroke-width="1" stroke-linecap="round" stroke-linejoin="round" transform="matrix(1.00313,0,0,1.00313,0,0)"
font-family="Sans Serif" font-size="9" font-weight="400" font-style="normal" 
>
<polyline fill="none" vector-effect="none" points="45.5,450.5 51.5,450.5 " />
<polyline fill="none" vector-effect="none" points="618.5,450.5 612.5,450.5 " />
</g>

<g fill="none" stroke="#000000" stroke-opacity="1" stroke-width="1" stroke-linecap="square" stroke-linejoin="bevel" transform="matrix(1.00313,0,0,1.00313,0,0)"
font-family="Sans Serif" font-size="9" font-weight="400" font-style="normal" 
>
</g>

<g fill="none" stroke="#000000" stroke-opacity="1" stroke-width="1" stroke-linecap="square" stroke-linejoin="bevel" transform="matrix(1.00313,0,0,1.00313,16.05,455.92)"
font-family="Sans Serif" font-size="9" font-weight="400" font-style="normal" 
>
</g>

<g fill="none" stroke="#000000" stroke-opacity="1" stroke-width="1" stroke-linecap="square" stroke-linejoin="bevel" transform="matrix(1.00313,0,0,1.00313,16.05,455.92)"
font-family="Sans Serif" font-size="9" font-weight="400" font-style="normal" 
>
</g>

<g fill="none" stroke="#000000" stroke-opacity="1" stroke-width="1" stroke-linecap="square" stroke-linejoin="bevel" transform="matrix(1.00313,0,0,1.00313,16.05,455.92)"
font-family="Sans Serif" font-size="9" font-weight="400" font-style="normal" 
>
</g>

<g fill="none" stroke="#000000" stroke-opacity="1" stroke-width="1" stroke-linecap="square" stroke-linejoin="bevel" transform="matrix(1.00313,0,0,1.00313,16.05,455.92)"
font-family="Sans Serif" font-size="9" font-weight="400" font-style="normal" 
>
</g>

<g fill="none" stroke="#000000" stroke-opacity="1" stroke-width="1" stroke-linecap="square" stroke-linejoin="bevel" transform="matrix(1.00313,0,0,1.00313,16.05,455.92)"
font-family="Sans Serif" font-size="9" font-weight="400" font-style="normal" 
>
</g>

<g fill="none" stroke="#000000" stroke-opacity="1" stroke-width="1" stroke-linecap="square" stroke-linejoin="bevel" transform="matrix(1.00313,0,0,1.00313,16.05,455.92)"
font-family="Sans" font-size="9" font-weight="400" font-style="normal" 
>
<text fill="#000000" fill-opacity="1" stroke="none" xml:space="preserve" x="0" y="0" font-family="Sans" font-size="9" font-weight="400" font-style="normal" 
 >-1.5</text>
</g>

<g fill="none" stroke="#000000" stroke-opacity="1" stroke-width="1" stroke-linecap="square" stroke-linejoin="bevel" transform="matrix(1.00313,0,0,1.00313,16.05,455.92)"
font-family="Sans Serif" font-size="9" font-weight="400" font-style="normal" 
>
</g>

<g fill="none" stroke="#000000" stroke-opacity="1" stroke-width="1" stroke-linecap="square" stroke-linejoin="bevel" transform="matrix(1.00313,0,0,1.00313,0,0)"
font-family="Sans Serif" font-size="9" font-weight="400" font-style="normal" 
>
</g>

<g fill="none" stroke="#a0a0a4" stroke-opacity="1" stroke-dasharray="0.5,1" stroke-dashoffset="0" stroke-width="0.5" stroke-linecap="round" stroke-linejoin="round" transform="matrix(1.00313,0,0,1.00313,0,0)"
font-family="Sans Serif" font-size="9" font-weight="400" font-style="normal" 
>
<polyline fill="none" vector-effect="none" points="45.5,377.5 618.5,377.5 " />
</g>

<g fill="none" stroke="#000000" stroke-opacity="1" stroke-width="1" stroke-linecap="round" stroke-linejoin="round" transform="matrix(1.00313,0,0,1.00313,0,0)"
font-family="Sans Serif" font-size="9" font-weight="400" font-style="normal" 
>
<polyline fill="none" vector-effect="none" points="45.5,377.5 51.5,377.5 " />
<polyline fill="none" vector-effect="none" points="618.5,377.5 612.5,377.5 " />
</g>

<g fill="none" stroke="#000000" stroke-opacity="1" stroke-width="1" stroke-linecap="square" stroke-linejoin="bevel" transform="matrix(1.00313,0,0,1.00313,0,0)"
font-family="Sans Serif" font-size="9" font-weight="400" font-style="normal" 
>
</g>

<g fill="none" stroke="#000000" stroke-opacity="1" stroke-width="1" stroke-linecap="square" stroke-linejoin="bevel" transform="matrix(1.00313,0,0,1.00313,28.0875,383.695)"
font-family="Sans Serif" font-size="9" font-weight="400" font-style="normal" 
>
</g>

<g fill="none" stroke="#000000" stroke-opacity="1" stroke-width="1" stroke-linecap="square" stroke-linejoin="bevel" transform="matrix(1.00313,0,0,1.00313,28.0875,383.695)"
font-family="Sans Serif" font-size="9" font-weight="400" font-style="normal" 
>
</g>

<g fill="none" stroke="#000000" stroke-opacity="1" stroke-width="1" stroke-linecap="square" stroke-linejoin="bevel" transform="matrix(1.00313,0,0,1.00313,28.0875,383.695)"
font-family="Sans Serif" font-size="9" font-weight="400" font-style="normal" 
>
</g>

<g fill="none" stroke="#000000" stroke-opacity="1" stroke-width="1" stroke-linecap="square" stroke-linejoin="bevel" transform="matrix(1.00313,0,0,1.00313,28.0875,383.695)"
font-family="Sans Serif" font-size="9" font-weight="400" font-style="normal" 
>
</g>

<g fill="none" stroke="#000000" stroke-opacity="1" stroke-width="1" stroke-linecap="square" stroke-linejoin="bevel" transform="matrix(1.00313,0,0,1.00313,28.0875,383.695)"
font-family="Sans Serif" font-size="9" font-weight="400" font-style="normal" 
>
</g>

<g fill="none" stroke="#000000" stroke-opacity="1" stroke-width="1" stroke-linecap="square" stroke-linejoin="bevel" transform="matrix(1.00313,0,0,1.00313,28.0875,383.695)"
font-family="Sans" font-size="9" font-weight="400" font-style="normal" 
>
<text fill="#000000" fill-opacity="1" stroke="none" xml:space="preserve" x="0" y="0" font-family="Sans" font-size="9" font-weight="400" font-style="normal" 
 >-1</text>
</g>

<g fill="none" stroke="#000000" stroke-opacity="1" stroke-width="1" stroke-linecap="square" stroke-linejoin="bevel" transform="matrix(1.00313,0,0,1.00313,28.0875,383.695)"
font-family="Sans Serif" font-size="9" font-weight="400" font-style="normal" 
>
</g>

<g fill="none" stroke="#000000" stroke-opacity="1" stroke-width="1" stroke-linecap="square" stroke-linejoin="bevel" transform="matrix(1.00313,0,0,1.00313,0,0)"
font-family="Sans Serif" font-size="9" font-weight="400" font-style="normal" 
>
</g>

<g fill="none" stroke="#a0a0a4" stroke-opacity="1" stroke-dasharray="0.5,1" stroke-dashoffset="0" stroke-width="0.5" stroke-linecap="round" stroke-linejoin="round" transform="matrix(1.00313,0,0,1.00313,0,0)"
font-family="Sans Serif" font-size="9" font-weight="400" font-style="normal" 
>
<polyline fill="none" vector-effect="none" points="45.5,305.5 618.5,305.5 " />
</g>

<g fill="none" stroke="#000000" stroke-opacity="1" stroke-width="1" stroke-linecap="round" stroke-linejoin="round" transform="matrix(1.00313,0,0,1.00313,0,0)"
font-family="Sans Serif" font-size="9" font-weight="400" font-style="normal" 
>
<polyline fill="none" vector-effect="none" points="45.5,305.5 51.5,305.5 " />
<polyline fill="none" vector-effect="none" points="618.5,305.5 612.5,305.5 " />
</g>

<g fill="none" stroke="#000000" stroke-opacity="1" stroke-width="1" stroke-linecap="square" stroke-linejoin="bevel" transform="matrix(1.00313,0,0,1.00313,0,0)"
font-family="Sans Serif" font-size="9" font-weight="400" font-style="normal" 
>
</g>

<g fill="none" stroke="#000000" stroke-opacity="1" stroke-width="1" stroke-linecap="square" stroke-linejoin="bevel" transform="matrix(1.00313,0,0,1.00313,16.05,310.467)"
font-family="Sans Serif" font-size="9" font-weight="400" font-style="normal" 
>
</g>

<g fill="none" stroke="#000000" stroke-opacity="1" stroke-width="1" stroke-linecap="square" stroke-linejoin="bevel" transform="matrix(1.00313,0,0,1.00313,16.05,310.467)"
font-family="Sans Serif" font-size="9" font-weight="400" font-style="normal" 
>
</g>

<g fill="none" stroke="#000000" stroke-opacity="1" stroke-width="1" stroke-linecap="square" stroke-linejoin="bevel" transform="matrix(1.00313,0,0,1.00313,16.05,310.467)"
font-family="Sans Serif" font-size="9" font-weight="400" font-style="normal" 
>
</g>

<g fill="none" stroke="#000000" stroke-opacity="1" stroke-width="1" stroke-linecap="square" stroke-linejoin="bevel" transform="matrix(1.00313,0,0,1.00313,16.05,310.467)"
font-family="Sans Serif" font-size="9" font-weight="400" font-style="normal" 
>
</g>

<g fill="none" stroke="#000000" stroke-opacity="1" stroke-width="1" stroke-linecap="square" stroke-linejoin="bevel" transform="matrix(1.00313,0,0,1.00313,16.05,310.467)"
font-family="Sans Serif" font-size="9" font-weight="400" font-style="normal" 
>
</g>

<g fill="none" stroke="#000000" stroke-opacity="1" stroke-width="1" stroke-linecap="square" stroke-linejoin="bevel" transform="matrix(1.00313,0,0,1.00313,16.05,310.467)"
font-family="Sans" font-size="9" font-weight="400" font-style="normal" 
>
<text fill="#000000" fill-opacity="1" stroke="none" xml:space="preserve" x="0" y="0" font-family="Sans" font-size="9" font-weight="400" font-style="normal" 
 >-0.5</text>
</g>

<g fill="none" stroke="#000000" stroke-opacity="1" stroke-width="1" stroke-linecap="square" stroke-linejoin="bevel" transform="matrix(1.00313,0,0,1.00313,16.05,310.467)"
font-family="Sans Serif" font-size="9" font-weight="400" font-style="normal" 
>
</g>

<g fill="none" stroke="#000000" stroke-opacity="1" stroke-width="1" stroke-linecap="square" stroke-linejoin="bevel" transform="matrix(1.00313,0,0,1.00313,0,0)"
font-family="Sans Serif" font-size="9" font-weight="400" font-style="normal" 
>
</g>

<g fill="none" stroke="#a0a0a4" stroke-opacity="1" stroke-dasharray="0.5,1" stroke-dashoffset="0" stroke-width="0.5" stroke-linecap="round" stroke-linejoin="round" transform="matrix(1.00313,0,0,1.00313,0,0)"
font-family="Sans Serif" font-size="9" font-weight="400" font-style="normal" 
>
<polyline fill="none" vector-effect="none" points="45.5,232.5 618.5,232.5 " />
</g>

<g fill="none" stroke="#000000" stroke-opacity="1" stroke-width="1" stroke-linecap="round" stroke-linejoin="round" transform="matrix(1.00313,0,0,1.00313,0,0)"
font-family="Sans Serif" font-size="9" font-weight="400" font-style="normal" 
>
<polyline fill="none" vector-effect="none" points="45.5,232.5 51.5,232.5 " />
<polyline fill="none" vector-effect="none" points="618.5,232.5 612.5,232.5 " />
</g>

<g fill="none" stroke="#000000" stroke-opacity="1" stroke-width="1" stroke-linecap="square" stroke-linejoin="bevel" transform="matrix(1.00313,0,0,1.00313,0,0)"
font-family="Sans Serif" font-size="9" font-weight="400" font-style="normal" 
>
</g>

<g fill="none" stroke="#000000" stroke-opacity="1" stroke-width="1" stroke-linecap="square" stroke-linejoin="bevel" transform="matrix(1.00313,0,0,1.00313,28.0875,238.242)"
font-family="Sans Serif" font-size="9" font-weight="400" font-style="normal" 
>
</g>

<g fill="none" stroke="#000000" stroke-opacity="1" stroke-width="1" stroke-linecap="square" stroke-linejoin="bevel" transform="matrix(1.00313,0,0,1.00313,28.0875,238.242)"
font-family="Sans Serif" font-size="9" font-weight="400" font-style="normal" 
>
</g>

<g fill="none" stroke="#000000" stroke-opacity="1" stroke-width="1" stroke-linecap="square" stroke-linejoin="bevel" transform="matrix(1.00313,0,0,1.00313,28.0875,238.242)"
font-family="Sans Serif" font-size="9" font-weight="400" font-style="normal" 
>
</g>

<g fill="none" stroke="#000000" stroke-opacity="1" stroke-width="1" stroke-linecap="square" stroke-linejoin="bevel" transform="matrix(1.00313,0,0,1.00313,28.0875,238.242)"
font-family="Sans Serif" font-size="9" font-weight="400" font-style="normal" 
>
</g>

<g fill="none" stroke="#000000" stroke-opacity="1" stroke-width="1" stroke-linecap="square" stroke-linejoin="bevel" transform="matrix(1.00313,0,0,1.00313,28.0875,238.242)"
font-family="Sans Serif" font-size="9" font-weight="400" font-style="normal" 
>
</g>

<g fill="none" stroke="#000000" stroke-opacity="1" stroke-width="1" stroke-linecap="square" stroke-linejoin="bevel" transform="matrix(1.00313,0,0,1.00313,28.0875,238.242)"
font-family="Sans" font-size="9" font-weight="400" font-style="normal" 
>
<text fill="#000000" fill-opacity="1" stroke="none" xml:space="preserve" x="0" y="0" font-family="Sans" font-size="9" font-weight="400" font-style="normal" 
 > 0</text>
</g>

<g fill="none" stroke="#000000" stroke-opacity="1" stroke-width="1" stroke-linecap="square" stroke-linejoin="bevel" transform="matrix(1.00313,0,0,1.00313,28.0875,238.242)"
font-family="Sans Serif" font-size="9" font-weight="400" font-style="normal" 
>
</g>

<g fill="none" stroke="#000000" stroke-opacity="1" stroke-width="1" stroke-linecap="square" stroke-linejoin="bevel" transform="matrix(1.00313,0,0,1.00313,0,0)"
font-family="Sans Serif" font-size="9" font-weight="400" font-style="normal" 
>
</g>

<g fill="none" stroke="#a0a0a4" stroke-opacity="1" stroke-dasharray="0.5,1" stroke-dashoffset="0" stroke-width="0.5" stroke-linecap="round" stroke-linejoin="round" transform="matrix(1.00313,0,0,1.00313,0,0)"
font-family="Sans Serif" font-size="9" font-weight="400" font-style="normal" 
>
<polyline fill="none" vector-effect="none" points="45.5,160.5 618.5,160.5 " />
</g>

<g fill="none" stroke="#000000" stroke-opacity="1" stroke-width="1" stroke-linecap="round" stroke-linejoin="round" transform="matrix(1.00313,0,0,1.00313,0,0)"
font-family="Sans Serif" font-size="9" font-weight="400" font-style="normal" 
>
<polyline fill="none" vector-effect="none" points="45.5,160.5 51.5,160.5 " />
<polyline fill="none" vector-effect="none" points="618.5,160.5 612.5,160.5 " />
</g>

<g fill="none" stroke="#000000" stroke-opacity="1" stroke-width="1" stroke-linecap="square" stroke-linejoin="bevel" transform="matrix(1.00313,0,0,1.00313,0,0)"
font-family="Sans Serif" font-size="9" font-weight="400" font-style="normal" 
>
</g>

<g fill="none" stroke="#000000" stroke-opacity="1" stroke-width="1" stroke-linecap="square" stroke-linejoin="bevel" transform="matrix(1.00313,0,0,1.00313,16.05,165.014)"
font-family="Sans Serif" font-size="9" font-weight="400" font-style="normal" 
>
</g>

<g fill="none" stroke="#000000" stroke-opacity="1" stroke-width="1" stroke-linecap="square" stroke-linejoin="bevel" transform="matrix(1.00313,0,0,1.00313,16.05,165.014)"
font-family="Sans Serif" font-size="9" font-weight="400" font-style="normal" 
>
</g>

<g fill="none" stroke="#000000" stroke-opacity="1" stroke-width="1" stroke-linecap="square" stroke-linejoin="bevel" transform="matrix(1.00313,0,0,1.00313,16.05,165.014)"
font-family="Sans Serif" font-size="9" font-weight="400" font-style="normal" 
>
</g>

<g fill="none" stroke="#000000" stroke-opacity="1" stroke-width="1" stroke-linecap="square" stroke-linejoin="bevel" transform="matrix(1.00313,0,0,1.00313,16.05,165.014)"
font-family="Sans Serif" font-size="9" font-weight="400" font-style="normal" 
>
</g>

<g fill="none" stroke="#000000" stroke-opacity="1" stroke-width="1" stroke-linecap="square" stroke-linejoin="bevel" transform="matrix(1.00313,0,0,1.00313,16.05,165.014)"
font-family="Sans Serif" font-size="9" font-weight="400" font-style="normal" 
>
</g>

<g fill="none" stroke="#000000" stroke-opacity="1" stroke-width="1" stroke-linecap="square" stroke-linejoin="bevel" transform="matrix(1.00313,0,0,1.00313,16.05,165.014)"
font-family="Sans" font-size="9" font-weight="400" font-style="normal" 
>
<text fill="#000000" fill-opacity="1" stroke="none" xml:space="preserve" x="0" y="0" font-family="Sans" font-size="9" font-weight="400" font-style="normal" 
 > 0.5</text>
</g>

<g fill="none" stroke="#000000" stroke-opacity="1" stroke-width="1" stroke-linecap="square" stroke-linejoin="bevel" transform="matrix(1.00313,0,0,1.00313,16.05,165.014)"
font-family="Sans Serif" font-size="9" font-weight="400" font-style="normal" 
>
</g>

<g fill="none" stroke="#000000" stroke-opacity="1" stroke-width="1" stroke-linecap="square" stroke-linejoin="bevel" transform="matrix(1.00313,0,0,1.00313,0,0)"
font-family="Sans Serif" font-size="9" font-weight="400" font-style="normal" 
>
</g>

<g fill="none" stroke="#a0a0a4" stroke-opacity="1" stroke-dasharray="0.5,1" stroke-dashoffset="0" stroke-width="0.5" stroke-linecap="round" stroke-linejoin="round" transform="matrix(1.00313,0,0,1.00313,0,0)"
font-family="Sans Serif" font-size="9" font-weight="400" font-style="normal" 
>
<polyline fill="none" vector-effect="none" points="45.5,87.5 618.5,87.5 " />
</g>

<g fill="none" stroke="#000000" stroke-opacity="1" stroke-width="1" stroke-linecap="round" stroke-linejoin="round" transform="matrix(1.00313,0,0,1.00313,0,0)"
font-family="Sans Serif" font-size="9" font-weight="400" font-style="normal" 
>
<polyline fill="none" vector-effect="none" points="45.5,87.5 51.5,87.5 " />
<polyline fill="none" vector-effect="none" points="618.5,87.5 612.5,87.5 " />
</g>

<g fill="none" stroke="#000000" stroke-opacity="1" stroke-width="1" stroke-linecap="square" stroke-linejoin="bevel" transform="matrix(1.00313,0,0,1.00313,0,0)"
font-family="Sans Serif" font-size="9" font-weight="400" font-style="normal" 
>
</g>

<g fill="none" stroke="#000000" stroke-opacity="1" stroke-width="1" stroke-linecap="square" stroke-linejoin="bevel" transform="matrix(1.00313,0,0,1.00313,28.0875,92.7891)"
font-family="Sans Serif" font-size="9" font-weight="400" font-style="normal" 
>
</g>

<g fill="none" stroke="#000000" stroke-opacity="1" stroke-width="1" stroke-linecap="square" stroke-linejoin="bevel" transform="matrix(1.00313,0,0,1.00313,28.0875,92.7891)"
font-family="Sans Serif" font-size="9" font-weight="400" font-style="normal" 
>
</g>

<g fill="none" stroke="#000000" stroke-opacity="1" stroke-width="1" stroke-linecap="square" stroke-linejoin="bevel" transform="matrix(1.00313,0,0,1.00313,28.0875,92.7891)"
font-family="Sans Serif" font-size="9" font-weight="400" font-style="normal" 
>
</g>

<g fill="none" stroke="#000000" stroke-opacity="1" stroke-width="1" stroke-linecap="square" stroke-linejoin="bevel" transform="matrix(1.00313,0,0,1.00313,28.0875,92.7891)"
font-family="Sans Serif" font-size="9" font-weight="400" font-style="normal" 
>
</g>

<g fill="none" stroke="#000000" stroke-opacity="1" stroke-width="1" stroke-linecap="square" stroke-linejoin="bevel" transform="matrix(1.00313,0,0,1.00313,28.0875,92.7891)"
font-family="Sans Serif" font-size="9" font-weight="400" font-style="normal" 
>
</g>

<g fill="none" stroke="#000000" stroke-opacity="1" stroke-width="1" stroke-linecap="square" stroke-linejoin="bevel" transform="matrix(1.00313,0,0,1.00313,28.0875,92.7891)"
font-family="Sans" font-size="9" font-weight="400" font-style="normal" 
>
<text fill="#000000" fill-opacity="1" stroke="none" xml:space="preserve" x="0" y="0" font-family="Sans" font-size="9" font-weight="400" font-style="normal" 
 > 1</text>
</g>

<g fill="none" stroke="#000000" stroke-opacity="1" stroke-width="1" stroke-linecap="square" stroke-linejoin="bevel" transform="matrix(1.00313,0,0,1.00313,28.0875,92.7891)"
font-family="Sans Serif" font-size="9" font-weight="400" font-style="normal" 
>
</g>

<g fill="none" stroke="#000000" stroke-opacity="1" stroke-width="1" stroke-linecap="square" stroke-linejoin="bevel" transform="matrix(1.00313,0,0,1.00313,0,0)"
font-family="Sans Serif" font-size="9" font-weight="400" font-style="normal" 
>
</g>

<g fill="none" stroke="#a0a0a4" stroke-opacity="1" stroke-dasharray="0.5,1" stroke-dashoffset="0" stroke-width="0.5" stroke-linecap="round" stroke-linejoin="round" transform="matrix(1.00313,0,0,1.00313,0,0)"
font-family="Sans Serif" font-size="9" font-weight="400" font-style="normal" 
>
<polyline fill="none" vector-effect="none" points="45.5,15.5 618.5,15.5 " />
</g>

<g fill="none" stroke="#000000" stroke-opacity="1" stroke-width="1" stroke-linecap="round" stroke-linejoin="round" transform="matrix(1.00313,0,0,1.00313,0,0)"
font-family="Sans Serif" font-size="9" font-weight="400" font-style="normal" 
>
<polyline fill="none" vector-effect="none" points="45.5,15.5 51.5,15.5 " />
<polyline fill="none" vector-effect="none" points="618.5,15.5 612.5,15.5 " />
</g>

<g fill="none" stroke="#000000" stroke-opacity="1" stroke-width="1" stroke-linecap="square" stroke-linejoin="bevel" transform="matrix(1.00313,0,0,1.00313,0,0)"
font-family="Sans Serif" font-size="9" font-weight="400" font-style="normal" 
>
</g>

<g fill="none" stroke="#000000" stroke-opacity="1" stroke-width="1" stroke-linecap="square" stroke-linejoin="bevel" transform="matrix(1.00313,0,0,1.00313,16.05,19.5609)"
font-family="Sans Serif" font-size="9" font-weight="400" font-style="normal" 
>
</g>

<g fill="none" stroke="#000000" stroke-opacity="1" stroke-width="1" stroke-linecap="square" stroke-linejoin="bevel" transform="matrix(1.00313,0,0,1.00313,16.05,19.5609)"
font-family="Sans Serif" font-size="9" font-weight="400" font-style="normal" 
>
</g>

<g fill="none" stroke="#000000" stroke-opacity="1" stroke-width="1" stroke-linecap="square" stroke-linejoin="bevel" transform="matrix(1.00313,0,0,1.00313,16.05,19.5609)"
font-family="Sans Serif" font-size="9" font-weight="400" font-style="normal" 
>
</g>

<g fill="none" stroke="#000000" stroke-opacity="1" stroke-width="1" stroke-linecap="square" stroke-linejoin="bevel" transform="matrix(1.00313,0,0,1.00313,16.05,19.5609)"
font-family="Sans Serif" font-size="9" font-weight="400" font-style="normal" 
>
</g>

<g fill="none" stroke="#000000" stroke-opacity="1" stroke-width="1" stroke-linecap="square" stroke-linejoin="bevel" transform="matrix(1.00313,0,0,1.00313,16.05,19.5609)"
font-family="Sans Serif" font-size="9" font-weight="400" font-style="normal" 
>
</g>

<g fill="none" stroke="#000000" stroke-opacity="1" stroke-width="1" stroke-linecap="square" stroke-linejoin="bevel" transform="matrix(1.00313,0,0,1.00313,16.05,19.5609)"
font-family="Sans" font-size="9" font-weight="400" font-style="normal" 
>
<text fill="#000000" fill-opacity="1" stroke="none" xml:space="preserve" x="0" y="0" font-family="Sans" font-size="9" font-weight="400" font-style="normal" 
 > 1.5</text>
</g>

<g fill="none" stroke="#000000" stroke-opacity="1" stroke-width="1" stroke-linecap="square" stroke-linejoin="bevel" transform="matrix(1.00313,0,0,1.00313,16.05,19.5609)"
font-family="Sans Serif" font-size="9" font-weight="400" font-style="normal" 
>
</g>

<g fill="none" stroke="#000000" stroke-opacity="1" stroke-width="1" stroke-linecap="square" stroke-linejoin="bevel" transform="matrix(1.00313,0,0,1.00313,0,0)"
font-family="Sans Serif" font-size="9" font-weight="400" font-style="normal" 
>
</g>

<g fill="none" stroke="#a0a0a4" stroke-opacity="1" stroke-dasharray="0.5,1" stroke-dashoffset="0" stroke-width="0.5" stroke-linecap="round" stroke-linejoin="round" transform="matrix(1.00313,0,0,1.00313,0,0)"
font-family="Sans Serif" font-size="9" font-weight="400" font-style="normal" 
>
<polyline fill="none" vector-effect="none" points="45.5,450.5 45.5,15.5 " />
</g>

<g fill="none" stroke="#000000" stroke-opacity="1" stroke-width="1" stroke-linecap="round" stroke-linejoin="round" transform="matrix(1.00313,0,0,1.00313,0,0)"
font-family="Sans Serif" font-size="9" font-weight="400" font-style="normal" 
>
<polyline fill="none" vector-effect="none" points="45.5,450.5 45.5,444.5 " />
<polyline fill="none" vector-effect="none" points="45.5,15.5 45.5,21.5 " />
</g>

<g fill="none" stroke="#000000" stroke-opacity="1" stroke-width="1" stroke-linecap="square" stroke-linejoin="bevel" transform="matrix(1.00313,0,0,1.00313,0,0)"
font-family="Sans Serif" font-size="9" font-weight="400" font-style="normal" 
>
</g>

<g fill="none" stroke="#000000" stroke-opacity="1" stroke-width="1" stroke-linecap="square" stroke-linejoin="bevel" transform="matrix(1.00313,0,0,1.00313,40.6266,470.967)"
font-family="Sans Serif" font-size="9" font-weight="400" font-style="normal" 
>
</g>

<g fill="none" stroke="#000000" stroke-opacity="1" stroke-width="1" stroke-linecap="square" stroke-linejoin="bevel" transform="matrix(1.00313,0,0,1.00313,40.6266,470.967)"
font-family="Sans Serif" font-size="9" font-weight="400" font-style="normal" 
>
</g>

<g fill="none" stroke="#000000" stroke-opacity="1" stroke-width="1" stroke-linecap="square" stroke-linejoin="bevel" transform="matrix(1.00313,0,0,1.00313,40.6266,470.967)"
font-family="Sans Serif" font-size="9" font-weight="400" font-style="normal" 
>
</g>

<g fill="none" stroke="#000000" stroke-opacity="1" stroke-width="1" stroke-linecap="square" stroke-linejoin="bevel" transform="matrix(1.00313,0,0,1.00313,40.6266,470.967)"
font-family="Sans Serif" font-size="9" font-weight="400" font-style="normal" 
>
</g>

<g fill="none" stroke="#000000" stroke-opacity="1" stroke-width="1" stroke-linecap="square" stroke-linejoin="bevel" transform="matrix(1.00313,0,0,1.00313,40.6266,470.967)"
font-family="Sans Serif" font-size="9" font-weight="400" font-style="normal" 
>
</g>

<g fill="none" stroke="#000000" stroke-opacity="1" stroke-width="1" stroke-linecap="square" stroke-linejoin="bevel" transform="matrix(1.00313,0,0,1.00313,40.6266,470.967)"
font-family="Sans" font-size="9" font-weight="400" font-style="normal" 
>
<text fill="#000000" fill-opacity="1" stroke="none" xml:space="preserve" x="0" y="0" font-family="Sans" font-size="9" font-weight="400" font-style="normal" 
 > 0</text>
</g>

<g fill="none" stroke="#000000" stroke-opacity="1" stroke-width="1" stroke-linecap="square" stroke-linejoin="bevel" transform="matrix(1.00313,0,0,1.00313,40.6266,470.967)"
font-family="Sans Serif" font-size="9" font-weight="400" font-style="normal" 
>
</g>

<g fill="none" stroke="#000000" stroke-opacity="1" stroke-width="1" stroke-linecap="square" stroke-linejoin="bevel" transform="matrix(1.00313,0,0,1.00313,0,0)"
font-family="Sans Serif" font-size="9" font-weight="400" font-style="normal" 
>
</g>

<g fill="none" stroke="#a0a0a4" stroke-opacity="1" stroke-dasharray="0.5,1" stroke-dashoffset="0" stroke-width="0.5" stroke-linecap="round" stroke-linejoin="round" transform="matrix(1.00313,0,0,1.00313,0,0)"
font-family="Sans Serif" font-size="9" font-weight="400" font-style="normal" 
>
<polyline fill="none" vector-effect="none" points="160.5,450.5 160.5,15.5 " />
</g>

<g fill="none" stroke="#000000" stroke-opacity="1" stroke-width="1" stroke-linecap="round" stroke-linejoin="round" transform="matrix(1.00313,0,0,1.00313,0,0)"
font-family="Sans Serif" font-size="9" font-weight="400" font-style="normal" 
>
<polyline fill="none" vector-effect="none" points="160.5,450.5 160.5,444.5 " />
<polyline fill="none" vector-effect="none" points="160.5,15.5 160.5,21.5 " />
</g>

<g fill="none" stroke="#000000" stroke-opacity="1" stroke-width="1" stroke-linecap="square" stroke-linejoin="bevel" transform="matrix(1.00313,0,0,1.00313,0,0)"
font-family="Sans Serif" font-size="9" font-weight="400" font-style="normal" 
>
</g>

<g fill="none" stroke="#000000" stroke-opacity="1" stroke-width="1" stroke-linecap="square" stroke-linejoin="bevel" transform="matrix(1.00313,0,0,1.00313,148.964,470.967)"
font-family="Sans Serif" font-size="9" font-weight="400" font-style="normal" 
>
</g>

<g fill="none" stroke="#000000" stroke-opacity="1" stroke-width="1" stroke-linecap="square" stroke-linejoin="bevel" transform="matrix(1.00313,0,0,1.00313,148.964,470.967)"
font-family="Sans Serif" font-size="9" font-weight="400" font-style="normal" 
>
</g>

<g fill="none" stroke="#000000" stroke-opacity="1" stroke-width="1" stroke-linecap="square" stroke-linejoin="bevel" transform="matrix(1.00313,0,0,1.00313,148.964,470.967)"
font-family="Sans Serif" font-size="9" font-weight="400" font-style="normal" 
>
</g>

<g fill="none" stroke="#000000" stroke-opacity="1" stroke-width="1" stroke-linecap="square" stroke-linejoin="bevel" transform="matrix(1.00313,0,0,1.00313,148.964,470.967)"
font-family="Sans Serif" font-size="9" font-weight="400" font-style="normal" 
>
</g>

<g fill="none" stroke="#000000" stroke-opacity="1" stroke-width="1" stroke-linecap="square" stroke-linejoin="bevel" transform="matrix(1.00313,0,0,1.00313,148.964,470.967)"
font-family="Sans Serif" font-size="9" font-weight="400" font-style="normal" 
>
</g>

<g fill="none" stroke="#000000" stroke-opacity="1" stroke-width="1" stroke-linecap="square" stroke-linejoin="bevel" transform="matrix(1.00313,0,0,1.00313,148.964,470.967)"
font-family="Sans" font-size="9" font-weight="400" font-style="normal" 
>
<text fill="#000000" fill-opacity="1" stroke="none" xml:space="preserve" x="0" y="0" font-family="Sans" font-size="9" font-weight="400" font-style="normal" 
 > 0.2</text>
</g>

<g fill="none" stroke="#000000" stroke-opacity="1" stroke-width="1" stroke-linecap="square" stroke-linejoin="bevel" transform="matrix(1.00313,0,0,1.00313,148.964,470.967)"
font-family="Sans Serif" font-size="9" font-weight="400" font-style="normal" 
>
</g>

<g fill="none" stroke="#000000" stroke-opacity="1" stroke-width="1" stroke-linecap="square" stroke-linejoin="bevel" transform="matrix(1.00313,0,0,1.00313,0,0)"
font-family="Sans Serif" font-size="9" font-weight="400" font-style="normal" 
>
</g>

<g fill="none" stroke="#a0a0a4" stroke-opacity="1" stroke-dasharray="0.5,1" stroke-dashoffset="0" stroke-width="0.5" stroke-linecap="round" stroke-linejoin="round" transform="matrix(1.00313,0,0,1.00313,0,0)"
font-family="Sans Serif" font-size="9" font-weight="400" font-style="normal" 
>
<polyline fill="none" vector-effect="none" points="274.5,450.5 274.5,15.5 " />
</g>

<g fill="none" stroke="#000000" stroke-opacity="1" stroke-width="1" stroke-linecap="round" stroke-linejoin="round" transform="matrix(1.00313,0,0,1.00313,0,0)"
font-family="Sans Serif" font-size="9" font-weight="400" font-style="normal" 
>
<polyline fill="none" vector-effect="none" points="274.5,450.5 274.5,444.5 " />
<polyline fill="none" vector-effect="none" points="274.5,15.5 274.5,21.5 " />
</g>

<g fill="none" stroke="#000000" stroke-opacity="1" stroke-width="1" stroke-linecap="square" stroke-linejoin="bevel" transform="matrix(1.00313,0,0,1.00313,0,0)"
font-family="Sans Serif" font-size="9" font-weight="400" font-style="normal" 
>
</g>

<g fill="none" stroke="#000000" stroke-opacity="1" stroke-width="1" stroke-linecap="square" stroke-linejoin="bevel" transform="matrix(1.00313,0,0,1.00313,264.323,470.967)"
font-family="Sans Serif" font-size="9" font-weight="400" font-style="normal" 
>
</g>

<g fill="none" stroke="#000000" stroke-opacity="1" stroke-width="1" stroke-linecap="square" stroke-linejoin="bevel" transform="matrix(1.00313,0,0,1.00313,264.323,470.967)"
font-family="Sans Serif" font-size="9" font-weight="400" font-style="normal" 
>
</g>

<g fill="none" stroke="#000000" stroke-opacity="1" stroke-width="1" stroke-linecap="square" stroke-linejoin="bevel" transform="matrix(1.00313,0,0,1.00313,264.323,470.967)"
font-family="Sans Serif" font-size="9" font-weight="400" font-style="normal" 
>
</g>

<g fill="none" stroke="#000000" stroke-opacity="1" stroke-width="1" stroke-linecap="square" stroke-linejoin="bevel" transform="matrix(1.00313,0,0,1.00313,264.323,470.967)"
font-family="Sans Serif" font-size="9" font-weight="400" font-style="normal" 
>
</g>

<g fill="none" stroke="#000000" stroke-opacity="1" stroke-width="1" stroke-linecap="square" stroke-linejoin="bevel" transform="matrix(1.00313,0,0,1.00313,264.323,470.967)"
font-family="Sans Serif" font-size="9" font-weight="400" font-style="normal" 
>
</g>

<g fill="none" stroke="#000000" stroke-opacity="1" stroke-width="1" stroke-linecap="square" stroke-linejoin="bevel" transform="matrix(1.00313,0,0,1.00313,264.323,470.967)"
font-family="Sans" font-size="9" font-weight="400" font-style="normal" 
>
<text fill="#000000" fill-opacity="1" stroke="none" xml:space="preserve" x="0" y="0" font-family="Sans" font-size="9" font-weight="400" font-style="normal" 
 > 0.4</text>
</g>

<g fill="none" stroke="#000000" stroke-opacity="1" stroke-width="1" stroke-linecap="square" stroke-linejoin="bevel" transform="matrix(1.00313,0,0,1.00313,264.323,470.967)"
font-family="Sans Serif" font-size="9" font-weight="400" font-style="normal" 
>
</g>

<g fill="none" stroke="#000000" stroke-opacity="1" stroke-width="1" stroke-linecap="square" stroke-linejoin="bevel" transform="matrix(1.00313,0,0,1.00313,0,0)"
font-family="Sans Serif" font-size="9" font-weight="400" font-style="normal" 
>
</g>

<g fill="none" stroke="#a0a0a4" stroke-opacity="1" stroke-dasharray="0.5,1" stroke-dashoffset="0" stroke-width="0.5" stroke-linecap="round" stroke-linejoin="round" transform="matrix(1.00313,0,0,1.00313,0,0)"
font-family="Sans Serif" font-size="9" font-weight="400" font-style="normal" 
>
<polyline fill="none" vector-effect="none" points="389.5,450.5 389.5,15.5 " />
</g>

<g fill="none" stroke="#000000" stroke-opacity="1" stroke-width="1" stroke-linecap="round" stroke-linejoin="round" transform="matrix(1.00313,0,0,1.00313,0,0)"
font-family="Sans Serif" font-size="9" font-weight="400" font-style="normal" 
>
<polyline fill="none" vector-effect="none" points="389.5,450.5 389.5,444.5 " />
<polyline fill="none" vector-effect="none" points="389.5,15.5 389.5,21.5 " />
</g>

<g fill="none" stroke="#000000" stroke-opacity="1" stroke-width="1" stroke-linecap="square" stroke-linejoin="bevel" transform="matrix(1.00313,0,0,1.00313,0,0)"
font-family="Sans Serif" font-size="9" font-weight="400" font-style="normal" 
>
</g>

<g fill="none" stroke="#000000" stroke-opacity="1" stroke-width="1" stroke-linecap="square" stroke-linejoin="bevel" transform="matrix(1.00313,0,0,1.00313,379.683,470.967)"
font-family="Sans Serif" font-size="9" font-weight="400" font-style="normal" 
>
</g>

<g fill="none" stroke="#000000" stroke-opacity="1" stroke-width="1" stroke-linecap="square" stroke-linejoin="bevel" transform="matrix(1.00313,0,0,1.00313,379.683,470.967)"
font-family="Sans Serif" font-size="9" font-weight="400" font-style="normal" 
>
</g>

<g fill="none" stroke="#000000" stroke-opacity="1" stroke-width="1" stroke-linecap="square" stroke-linejoin="bevel" transform="matrix(1.00313,0,0,1.00313,379.683,470.967)"
font-family="Sans Serif" font-size="9" font-weight="400" font-style="normal" 
>
</g>

<g fill="none" stroke="#000000" stroke-opacity="1" stroke-width="1" stroke-linecap="square" stroke-linejoin="bevel" transform="matrix(1.00313,0,0,1.00313,379.683,470.967)"
font-family="Sans Serif" font-size="9" font-weight="400" font-style="normal" 
>
</g>

<g fill="none" stroke="#000000" stroke-opacity="1" stroke-width="1" stroke-linecap="square" stroke-linejoin="bevel" transform="matrix(1.00313,0,0,1.00313,379.683,470.967)"
font-family="Sans Serif" font-size="9" font-weight="400" font-style="normal" 
>
</g>

<g fill="none" stroke="#000000" stroke-opacity="1" stroke-width="1" stroke-linecap="square" stroke-linejoin="bevel" transform="matrix(1.00313,0,0,1.00313,379.683,470.967)"
font-family="Sans" font-size="9" font-weight="400" font-style="normal" 
>
<text fill="#000000" fill-opacity="1" stroke="none" xml:space="preserve" x="0" y="0" font-family="Sans" font-size="9" font-weight="400" font-style="normal" 
 > 0.6</text>
</g>

<g fill="none" stroke="#000000" stroke-opacity="1" stroke-width="1" stroke-linecap="square" stroke-linejoin="bevel" transform="matrix(1.00313,0,0,1.00313,379.683,470.967)"
font-family="Sans Serif" font-size="9" font-weight="400" font-style="normal" 
>
</g>

<g fill="none" stroke="#000000" stroke-opacity="1" stroke-width="1" stroke-linecap="square" stroke-linejoin="bevel" transform="matrix(1.00313,0,0,1.00313,0,0)"
font-family="Sans Serif" font-size="9" font-weight="400" font-style="normal" 
>
</g>

<g fill="none" stroke="#a0a0a4" stroke-opacity="1" stroke-dasharray="0.5,1" stroke-dashoffset="0" stroke-width="0.5" stroke-linecap="round" stroke-linejoin="round" transform="matrix(1.00313,0,0,1.00313,0,0)"
font-family="Sans Serif" font-size="9" font-weight="400" font-style="normal" 
>
<polyline fill="none" vector-effect="none" points="504.5,450.5 504.5,66.5 " />
<polyline fill="none" vector-effect="none" points="504.5,21.5 504.5,15.5 " />
</g>

<g fill="none" stroke="#000000" stroke-opacity="1" stroke-width="1" stroke-linecap="round" stroke-linejoin="round" transform="matrix(1.00313,0,0,1.00313,0,0)"
font-family="Sans Serif" font-size="9" font-weight="400" font-style="normal" 
>
<polyline fill="none" vector-effect="none" points="504.5,450.5 504.5,444.5 " />
<polyline fill="none" vector-effect="none" points="504.5,15.5 504.5,21.5 " />
</g>

<g fill="none" stroke="#000000" stroke-opacity="1" stroke-width="1" stroke-linecap="square" stroke-linejoin="bevel" transform="matrix(1.00313,0,0,1.00313,0,0)"
font-family="Sans Serif" font-size="9" font-weight="400" font-style="normal" 
>
</g>

<g fill="none" stroke="#000000" stroke-opacity="1" stroke-width="1" stroke-linecap="square" stroke-linejoin="bevel" transform="matrix(1.00313,0,0,1.00313,494.039,470.967)"
font-family="Sans Serif" font-size="9" font-weight="400" font-style="normal" 
>
</g>

<g fill="none" stroke="#000000" stroke-opacity="1" stroke-width="1" stroke-linecap="square" stroke-linejoin="bevel" transform="matrix(1.00313,0,0,1.00313,494.039,470.967)"
font-family="Sans Serif" font-size="9" font-weight="400" font-style="normal" 
>
</g>

<g fill="none" stroke="#000000" stroke-opacity="1" stroke-width="1" stroke-linecap="square" stroke-linejoin="bevel" transform="matrix(1.00313,0,0,1.00313,494.039,470.967)"
font-family="Sans Serif" font-size="9" font-weight="400" font-style="normal" 
>
</g>

<g fill="none" stroke="#000000" stroke-opacity="1" stroke-width="1" stroke-linecap="square" stroke-linejoin="bevel" transform="matrix(1.00313,0,0,1.00313,494.039,470.967)"
font-family="Sans Serif" font-size="9" font-weight="400" font-style="normal" 
>
</g>

<g fill="none" stroke="#000000" stroke-opacity="1" stroke-width="1" stroke-linecap="square" stroke-linejoin="bevel" transform="matrix(1.00313,0,0,1.00313,494.039,470.967)"
font-family="Sans Serif" font-size="9" font-weight="400" font-style="normal" 
>
</g>

<g fill="none" stroke="#000000" stroke-opacity="1" stroke-width="1" stroke-linecap="square" stroke-linejoin="bevel" transform="matrix(1.00313,0,0,1.00313,494.039,470.967)"
font-family="Sans" font-size="9" font-weight="400" font-style="normal" 
>
<text fill="#000000" fill-opacity="1" stroke="none" xml:space="preserve" x="0" y="0" font-family="Sans" font-size="9" font-weight="400" font-style="normal" 
 > 0.8</text>
</g>

<g fill="none" stroke="#000000" stroke-opacity="1" stroke-width="1" stroke-linecap="square" stroke-linejoin="bevel" transform="matrix(1.00313,0,0,1.00313,494.039,470.967)"
font-family="Sans Serif" font-size="9" font-weight="400" font-style="normal" 
>
</g>

<g fill="none" stroke="#000000" stroke-opacity="1" stroke-width="1" stroke-linecap="square" stroke-linejoin="bevel" transform="matrix(1.00313,0,0,1.00313,0,0)"
font-family="Sans Serif" font-size="9" font-weight="400" font-style="normal" 
>
</g>

<g fill="none" stroke="#a0a0a4" stroke-opacity="1" stroke-dasharray="0.5,1" stroke-dashoffset="0" stroke-width="0.5" stroke-linecap="round" stroke-linejoin="round" transform="matrix(1.00313,0,0,1.00313,0,0)"
font-family="Sans Serif" font-size="9" font-weight="400" font-style="normal" 
>
<polyline fill="none" vector-effect="none" points="618.5,450.5 618.5,15.5 " />
</g>

<g fill="none" stroke="#000000" stroke-opacity="1" stroke-width="1" stroke-linecap="round" stroke-linejoin="round" transform="matrix(1.00313,0,0,1.00313,0,0)"
font-family="Sans Serif" font-size="9" font-weight="400" font-style="normal" 
>
<polyline fill="none" vector-effect="none" points="618.5,450.5 618.5,444.5 " />
<polyline fill="none" vector-effect="none" points="618.5,15.5 618.5,21.5 " />
</g>

<g fill="none" stroke="#000000" stroke-opacity="1" stroke-width="1" stroke-linecap="square" stroke-linejoin="bevel" transform="matrix(1.00313,0,0,1.00313,0,0)"
font-family="Sans Serif" font-size="9" font-weight="400" font-style="normal" 
>
</g>

<g fill="none" stroke="#000000" stroke-opacity="1" stroke-width="1" stroke-linecap="square" stroke-linejoin="bevel" transform="matrix(1.00313,0,0,1.00313,615.417,470.967)"
font-family="Sans Serif" font-size="9" font-weight="400" font-style="normal" 
>
</g>

<g fill="none" stroke="#000000" stroke-opacity="1" stroke-width="1" stroke-linecap="square" stroke-linejoin="bevel" transform="matrix(1.00313,0,0,1.00313,615.417,470.967)"
font-family="Sans Serif" font-size="9" font-weight="400" font-style="normal" 
>
</g>

<g fill="none" stroke="#000000" stroke-opacity="1" stroke-width="1" stroke-linecap="square" stroke-linejoin="bevel" transform="matrix(1.00313,0,0,1.00313,615.417,470.967)"
font-family="Sans Serif" font-size="9" font-weight="400" font-style="normal" 
>
</g>

<g fill="none" stroke="#000000" stroke-opacity="1" stroke-width="1" stroke-linecap="square" stroke-linejoin="bevel" transform="matrix(1.00313,0,0,1.00313,615.417,470.967)"
font-family="Sans Serif" font-size="9" font-weight="400" font-style="normal" 
>
</g>

<g fill="none" stroke="#000000" stroke-opacity="1" stroke-width="1" stroke-linecap="square" stroke-linejoin="bevel" transform="matrix(1.00313,0,0,1.00313,615.417,470.967)"
font-family="Sans Serif" font-size="9" font-weight="400" font-style="normal" 
>
</g>

<g fill="none" stroke="#000000" stroke-opacity="1" stroke-width="1" stroke-linecap="square" stroke-linejoin="bevel" transform="matrix(1.00313,0,0,1.00313,615.417,470.967)"
font-family="Sans" font-size="9" font-weight="400" font-style="normal" 
>
<text fill="#000000" fill-opacity="1" stroke="none" xml:space="preserve" x="0" y="0" font-family="Sans" font-size="9" font-weight="400" font-style="normal" 
 > 1</text>
</g>

<g fill="none" stroke="#000000" stroke-opacity="1" stroke-width="1" stroke-linecap="square" stroke-linejoin="bevel" transform="matrix(1.00313,0,0,1.00313,615.417,470.967)"
font-family="Sans Serif" font-size="9" font-weight="400" font-style="normal" 
>
</g>

<g fill="none" stroke="#000000" stroke-opacity="1" stroke-width="1" stroke-linecap="square" stroke-linejoin="bevel" transform="matrix(1.00313,0,0,1.00313,0,0)"
font-family="Sans Serif" font-size="9" font-weight="400" font-style="normal" 
>
</g>

<g fill="none" stroke="#000000" stroke-opacity="1" stroke-width="1" stroke-linecap="round" stroke-linejoin="round" transform="matrix(1.00313,0,0,1.00313,0,0)"
font-family="Sans Serif" font-size="9" font-weight="400" font-style="normal" 
>
<polyline fill="none" vector-effect="none" points="45.5,15.5 45.5,450.5 618.5,450.5 618.5,15.5 45.5,15.5 " />
</g>

<g fill="none" stroke="#000000" stroke-opacity="1" stroke-width="1" stroke-linecap="square" stroke-linejoin="bevel" transform="matrix(1.00313,0,0,1.00313,0,0)"
font-family="Sans Serif" font-size="9" font-weight="400" font-style="normal" 
>
</g>

<g fill="none" stroke="#000000" stroke-opacity="1" stroke-width="1" stroke-linecap="square" stroke-linejoin="bevel" transform="matrix(1.00313,0,0,1.00313,537.675,33.6047)"
font-family="Sans Serif" font-size="9" font-weight="400" font-style="normal" 
>
</g>

<g fill="none" stroke="#000000" stroke-opacity="1" stroke-width="1" stroke-linecap="square" stroke-linejoin="bevel" transform="matrix(1.00313,0,0,1.00313,537.675,33.6047)"
font-family="Sans Serif" font-size="9" font-weight="400" font-style="normal" 
>
</g>

<g fill="none" stroke="#000000" stroke-opacity="1" stroke-width="1" stroke-linecap="square" stroke-linejoin="bevel" transform="matrix(1.00313,0,0,1.00313,537.675,33.6047)"
font-family="Sans Serif" font-size="9" font-weight="400" font-style="normal" 
>
</g>

<g fill="none" stroke="#000000" stroke-opacity="1" stroke-width="1" stroke-linecap="square" stroke-linejoin="bevel" transform="matrix(1.00313,0,0,1.00313,537.675,33.6047)"
font-family="Sans Serif" font-size="9" font-weight="400" font-style="normal" 
>
</g>

<g fill="none" stroke="#000000" stroke-opacity="1" stroke-width="1" stroke-linecap="square" stroke-linejoin="bevel" transform="matrix(1.00313,0,0,1.00313,537.675,33.6047)"
font-family="Sans Serif" font-size="9" font-weight="400" font-style="normal" 
>
</g>

<g fill="none" stroke="#000000" stroke-opacity="1" stroke-width="1" stroke-linecap="square" stroke-linejoin="bevel" transform="matrix(1.00313,0,0,1.00313,537.675,33.6047)"
font-family="Sans" font-size="9" font-weight="400" font-style="normal" 
>
<text fill="#000000" fill-opacity="1" stroke="none" xml:space="preserve" x="0" y="0" font-family="Sans" font-size="9" font-weight="400" font-style="normal" 
 >Data</text>
</g>

<g fill="none" stroke="#000000" stroke-opacity="1" stroke-width="1" stroke-linecap="square" stroke-linejoin="bevel" transform="matrix(1.00313,0,0,1.00313,537.675,33.6047)"
font-family="Sans Serif" font-size="9" font-weight="400" font-style="normal" 
>
</g>

<g fill="none" stroke="#000000" stroke-opacity="1" stroke-width="1" stroke-linecap="square" stroke-linejoin="bevel" transform="matrix(1.00313,0,0,1.00313,0,0)"
font-family="Sans Serif" font-size="9" font-weight="400" font-style="normal" 
>
</g>

<g fill="none" stroke="#9400d3" stroke-opacity="1" stroke-width="1" stroke-linecap="round" stroke-linejoin="round" transform="matrix(1.00313,0,0,1.00313,0,0)"
font-family="Sans Serif" font-size="9" font-weight="400" font-style="normal" 
>
<path vector-effect="none" fill-rule="evenodd" d="M570.5,28.5 L604.5,28.5"/>
</g>

<g fill="none" stroke="#000000" stroke-opacity="1" stroke-width="1" stroke-linecap="square" stroke-linejoin="bevel" transform="matrix(1.00313,0,0,1.00313,0,0)"
font-family="Sans Serif" font-size="9" font-weight="400" font-style="normal" 
>
</g>

<g fill="none" stroke="#000000" stroke-opacity="1" stroke-width="1" stroke-linecap="square" stroke-linejoin="bevel" transform="matrix(1.00313,0,0,1.00313,0,0)"
font-family="Sans Serif" font-size="9" font-weight="400" font-style="normal" 
>
</g>

<g fill="none" stroke="#000000" stroke-opacity="1" stroke-width="1" stroke-linecap="square" stroke-linejoin="bevel" transform="matrix(1.00313,0,0,1.00313,0,0)"
font-family="Sans Serif" font-size="9" font-weight="400" font-style="normal" 
>
</g>

<g fill="none" stroke="#000000" stroke-opacity="1" stroke-width="1" stroke-linecap="square" stroke-linejoin="bevel" transform="matrix(1.00313,0,0,1.00313,0,0)"
font-family="Sans Serif" font-size="9" font-weight="400" font-style="normal" 
>
</g>

<g fill="none" stroke="#9400d3" stroke-opacity="1" stroke-width="1" stroke-linecap="round" stroke-linejoin="round" transform="matrix(1.00313,0,0,1.00313,0,0)"
font-family="Sans Serif" font-size="9" font-weight="400" font-style="normal" 
>
<polyline fill="none" vector-effect="none" points="45.5,85.6 45.5,85.6 46.1,88.9 46.6,63.3 47.2,76.9 47.8,73.1 48.4,106.1 48.9,122.3 49.5,97.4 50.1,88.2 50.7,74.6 51.2,87.8 51.8,106.4 52.4,97.3 53,84.9 53.5,75.5 54.1,95.5 54.7,96.8 55.3,87.5 55.8,97.3 56.4,99.6 57,78.7 57.6,92.9 58.1,91.8 58.7,100.9 59.3,96 59.8,86.6 60.4,86.9 61,98.5 61.6,89.7 62.1,66.2 62.7,90.6 63.3,91.4 63.9,89.6 64.4,124.5 65,79.2 65.6,88.1 66.2,90.9 66.7,77.2 67.3,64.7 67.9,93.3 68.5,70.4 69,61.6 69.6,98.2 70.2,96.7 70.8,57.6 71.3,100.7 71.9,62.4 72.5,67.5 73.1,93 73.6,92 74.2,69.4 74.8,91.6 75.3,88.3 75.9,76 76.5,79.8 77.1,86.3 77.6,67.9 78.2,87.4 78.8,76.7 79.4,110.4 79.9,91 80.5,82.7 81.1,88.7 81.7,95.4 82.2,107.6 82.8,62.7 83.4,81.5 84,65.5 84.5,77.6 85.1,96.1 85.7,68.5 86.3,99.7 86.8,76.4 87.4,99.2 88,88.8 88.5,65.9 89.1,81.8 89.7,39.2 90.3,61.5 90.8,62.1 91.4,77.9 92,102.8 92.6,82.8 93.1,81 93.7,121.6 94.3,96.5 94.9,118.9 95.4,102.1 96,94.3 96.6,99.4 97.2,84.9 97.7,93.3 98.3,111.8 98.9,101.3 99.5,87.5 100,70.8 100.6,60.4 101.2,86 101.7,85 102.3,69.1 102.9,369.2 103.5,384.3 104,370.8 104.6,348.3 105.2,346.4 105.8,382.9 106.3,388.3 106.9,396.1 107.5,397.6 108.1,383.1 108.6,356 109.2,396.8 109.8,392.7 110.4,379.6 110.9,374.9 111.5,343.7 112.1,372.4 112.7,372.1 113.2,388 113.8,352.5 114.4,382.8 115,349.9 115.5,371.6 116.1,392 116.7,373.4 117.2,382.4 117.8,364.4 118.4,358.4 119,366 119.5,383.3 120.1,369.2 120.7,386.7 121.3,385.3 121.8,366.4 122.4,374.7 123,384.1 123.6,370.4 124.1,384.3 124.7,376.9 125.3,370.2 125.9,336.5 126.4,387.1 127,386.9 127.6,351.9 128.2,355.6 128.7,372.6 129.3,378.6 129.9,380.1 130.4,412.5 131,391.5 131.6,377.8 132.2,378.1 132.7,379.5 133.3,375.8 133.9,367.4 134.5,387.3 135,378.4 135.6,379.8 136.2,377.3 136.8,357.8 137.3,397.2 137.9,363.5 138.5,393 139.1,368.7 139.6,372.9 140.2,373.4 140.8,367.2 141.4,380.8 141.9,374.8 142.5,363.1 143.1,383.9 143.6,387.6 144.2,396.7 144.8,363.8 145.4,382.5 145.9,391.4 146.5,359.3 147.1,401.8 147.7,360.6 148.2,376.8 148.8,371.7 149.4,345.3 150,356.8 150.5,380.7 151.1,385 151.7,398.1 152.3,388.9 152.8,378.7 153.4,389.7 154,359.5 154.6,380.6 155.1,384.9 155.7,388.8 156.3,370 156.9,347.8 157.4,364.7 158,382.1 158.6,372.6 159.1,380.2 159.7,382.8 160.3,86.6 160.9,79.7 161.4,86.5 162,89.6 162.6,94.1 163.2,108.9 163.7,78.1 164.3,77.6 164.9,112.1 165.5,97.8 166,98.2 166.6,76.7 167.2,68.7 167.8,76.4 168.3,72.6 168.9,97.2 169.5,78.2 170.1,75.4 170.6,76.4 171.2,91.8 171.8,83.3 172.3,73.2 172.9,109.2 173.5,63.4 174.1,108.8 174.6,105.9 175.2,90.7 175.8,115.3 176.4,89.4 176.9,123.9 177.5,82.8 178.1,91 178.7,82.9 179.2,89.1 179.8,85.4 180.4,97 181,89.5 181.5,78.8 182.1,85.5 182.7,81 183.3,97.2 183.8,87.9 184.4,69.9 185,126.5 185.5,105.5 186.1,111.2 186.7,72.1 187.3,96.6 187.8,92.8 188.4,97.2 189,48.8 189.6,115.6 190.1,82 190.7,93.6 191.3,73.5 191.9,63 192.4,105.5 193,100 193.6,70.7 194.2,89.5 194.7,105 195.3,71.6 195.9,93.2 196.5,93 197,92.2 197.6,90.6 198.2,82.9 198.8,85.1 199.3,95.5 199.9,95.7 200.5,67.6 201,104.1 201.6,81.8 202.2,87.9 202.8,70 203.3,91.4 203.9,89.3 204.5,99.4 205.1,79.4 205.6,97.2 206.2,79.8 206.8,79.6 207.4,101 207.9,59.3 208.5,82.8 209.1,72.4 209.7,79.5 210.2,86.5 210.8,70.7 211.4,63.7 212,82.1 212.5,89.4 213.1,86.2 213.7,96.3 214.2,75.7 214.8,94.3 215.4,75.2 216,96.8 216.5,102.4 217.1,101.2 217.7,376.8 218.3,365.4 218.8,379.4 219.4,399.4 220,367.7 220.6,377.6 221.1,373.9 221.7,360.9 222.3,357.3 222.9,385.5 223.4,398.1 224,386 224.6,362.3 225.2,375.9 225.7,374.4 226.3,389.5 226.9,360.8 227.4,336.4 228,374.9 228.6,367.5 229.2,381.9 229.7,416 230.3,362.9 230.9,390.6 231.5,392.1 232,396.6 232.6,369.6 233.2,391.2 233.8,369.4 234.3,376.9 234.9,398.6 235.5,386.5 236.1,381.2 236.6,372.4 237.2,371.9 237.8,389.8 238.4,371 238.9,379.2 239.5,375.9 240.1,375.7 240.7,356.2 241.2,400 241.8,377 242.4,378.3 242.9,410.3 243.5,392.1 244.1,374.5 244.7,393.1 245.2,376.4 245.8,374.8 246.4,385.9 247,344.4 247.5,367.7 248.1,389.4 248.7,393.9 249.3,395.8 249.8,362.2 250.4,344.9 251,379.4 251.6,361.7 252.1,369.5 252.7,357.6 253.3,357.1 253.9,380.9 254.4,367.6 255,377.2 255.6,381.5 256.1,358.1 256.7,377.7 257.3,373.1 257.9,385.8 258.4,359.2 259,379.7 259.6,374 260.2,368.2 260.7,398.6 261.3,361.9 261.9,388.6 262.5,378.6 263,365 263.6,389.8 264.2,383.7 264.8,390.5 265.3,376.5 265.9,373.9 266.5,374.4 267.1,353.7 267.6,373.7 268.2,377.8 268.8,366.8 269.3,369.2 269.9,352.1 270.5,410.6 271.1,361.1 271.6,381.6 272.2,345.5 272.8,385.1 273.4,365.6 273.9,409.1 274.5,411.5 275.1,82.7 275.7,99.9 276.2,76 276.8,85.2 277.4,88.3 278,111.8 278.5,112.6 279.1,90.4 279.7,91.3 280.3,82.3 280.8,85.6 281.4,92.3 282,85.8 282.6,71 283.1,75.3 283.7,66.8 284.3,97.9 284.8,65.5 285.4,89 286,89 286.6,102 287.1,88.4 287.7,75.7 288.3,90.1 288.9,92 289.4,82 290,94.4 290.6,81.5 291.2,87.8 291.7,77.8 292.3,79.9 292.9,71.8 293.5,81 294,85.5 294.6,89.7 295.2,70.7 295.8,83.7 296.3,102.2 296.9,90 297.5,91.6 298,96.6 298.6,100.9 299.2,91.3 299.8,86.2 300.3,75.7 300.9,72.5 301.5,114.1 302.1,95.5 302.6,95.6 303.2,84 303.8,74.8 304.4,97.6 304.9,59.9 305.5,70.3 306.1,62.5 306.7,101.1 307.2,82.1 307.8,89.6 308.4,100.4 309,64.8 309.5,99.3 310.1,51.6 310.7,104.9 311.2,77.4 311.8,102.1 312.4,114.2 313,98 313.5,95.5 314.1,104.6 314.7,52.3 315.3,99 315.8,72.3 316.4,82.4 317,71 317.6,77 318.1,95.6 318.7,111.3 319.3,102.6 319.9,76.3 320.4,105.1 321,78.6 321.6,91.8 322.2,86 322.7,73.7 323.3,88.2 323.9,95.8 324.5,94.4 325,85.1 325.6,94.5 326.2,98.9 326.7,98.5 327.3,101.8 327.9,70.7 328.5,104 329,79.4 329.6,82.9 330.2,69 330.8,85.7 331.3,74.1 331.9,82.1 332.5,377.8 333.1,375.7 333.6,383.1 334.2,366.3 334.8,396.2 335.4,377 335.9,339.9 336.5,374.5 337.1,392 337.7,366.3 338.2,382.9 338.8,379.3 339.4,372.4 339.9,367.9 340.5,390.8 341.1,372.4 341.7,390.4 342.2,378.9 342.8,383.5 343.4,395 344,388.4 344.5,367.6 345.1,366.5 345.7,390.5 346.3,391.8 346.8,379.3 347.4,385.9 348,366.7 348.6,363.1 349.1,373 349.7,395.5 350.3,349.3 350.9,369.8 351.4,361.2 352,395.9 352.6,392 353.2,370.5 353.7,375.8 354.3,362.5 354.9,351 355.4,392.5 356,356.9 356.6,371.8 357.2,375.4 357.7,390.7 358.3,354 358.9,350 359.5,350.7 360,378.8 360.6,371.8 361.2,392.5 361.8,387.9 362.3,380.2 362.9,345.6 363.5,385.4 364.1,391.6 364.6,381.8 365.2,385.9 365.8,386.1 366.4,375.1 366.9,368.1 367.5,355.2 368.1,394.2 368.6,363.5 369.2,374.9 369.8,361 370.4,391.2 370.9,375.3 371.5,376.4 372.1,393.2 372.7,378.8 373.2,369.9 373.8,383.9 374.4,366.3 375,372.1 375.5,377.7 376.1,382.2 376.7,377.6 377.3,373.2 377.8,390.7 378.4,386.4 379,376.3 379.6,381.9 380.1,387.1 380.7,370.9 381.3,345.5 381.8,387.6 382.4,373.1 383,340.3 383.6,370.5 384.1,377.9 384.7,389.9 385.3,390.5 385.9,390 386.4,393.5 387,380.7 387.6,388 388.2,383.8 388.7,363.3 389.3,396.2 389.9,91.8 390.5,103.2 391,99.1 391.6,73.7 392.2,78 392.8,67.3 393.3,95.6 393.9,107.3 394.5,119.3 395.1,119.5 395.6,95.2 396.2,77.9 396.8,94.8 397.3,76.1 397.9,90.2 398.5,73.2 399.1,99.2 399.6,83.5 400.2,77.6 400.8,65 401.4,90.6 401.9,86.6 402.5,83.6 403.1,86.1 403.7,86.4 404.2,87.6 404.8,114.2 405.4,111.7 406,71.2 406.5,80.9 407.1,70.5 407.7,86.7 408.3,110.7 408.8,101.3 409.4,66 410,68.8 410.5,88.9 411.1,70.5 411.7,113.3 412.3,89 412.8,115.7 413.4,83.9 414,90.3 414.6,77.3 415.1,80.8 415.7,76.8 416.3,86.3 416.9,95.9 417.4,82.8 418,87.4 418.6,76.5 419.2,84.7 419.7,104.5 420.3,76.1 420.9,79.8 421.5,75.9 422,94.5 422.6,63.4 423.2,89.1 423.7,104.8 424.3,94.4 424.9,121 425.5,126.1 426,60.5 426.6,89.7 427.2,74.2 427.8,100.2 428.3,102.5 428.9,86.7 429.5,91.9 430.1,84.2 430.6,66.2 431.2,105.8 431.8,107.5 432.4,61.1 432.9,90.8 433.5,89 434.1,106.5 434.7,80.9 435.2,86.8 435.8,102.9 436.4,75 437,95 437.5,91.8 438.1,97.2 438.7,71.6 439.2,114.4 439.8,96 440.4,78.2 441,111.8 441.5,85.5 442.1,80.5 442.7,65.1 443.3,105.7 443.8,90.2 444.4,93.7 445,100.5 445.6,78.9 446.1,86.6 446.7,96.3 447.3,364.6 447.9,363.9 448.4,393.6 449,365 449.6,376.5 450.2,405.4 450.7,393.2 451.3,364.6 451.9,384.3 452.4,386.6 453,384.4 453.6,367.1 454.2,401.7 454.7,373.3 455.3,398.3 455.9,393.1 456.5,351.5 457,390.2 457.6,380 458.2,397.3 458.8,386.2 459.3,366.8 459.9,378.5 460.5,395.9 461.1,387.4 461.6,389.9 462.2,353.9 462.8,339.2 463.4,399.7 463.9,375.3 464.5,357.5 465.1,390.7 465.6,365.1 466.2,374.4 466.8,370.5 467.4,410 467.9,370.6 468.5,385.6 469.1,367.3 469.7,351.7 470.2,371 470.8,401.5 471.4,384.1 472,385.8 472.5,381.4 473.1,392.2 473.7,375.5 474.3,382.6 474.8,389.1 475.4,359.6 476,359.2 476.6,378.7 477.1,382.3 477.7,358.6 478.3,389.6 478.9,387.6 479.4,379.6 480,389.4 480.6,365.6 481.1,371.6 481.7,377 482.3,345.1 482.9,389.8 483.4,382.5 484,373.9 484.6,397.5 485.2,381.4 485.7,371.9 486.3,384.5 486.9,378.5 487.5,384.5 488,369.4 488.6,365.1 489.2,366.6 489.8,356.7 490.3,374.8 490.9,375.2 491.5,386.2 492.1,358.6 492.6,383 493.2,361.7 493.8,386.5 494.3,364.7 494.9,368.7 495.5,386.7 496.1,374.3 496.6,379.2 497.2,380.1 497.8,394.5 498.4,368.9 498.9,394 499.5,363.2 500.1,393 500.7,359.6 501.2,385.9 501.8,373.9 502.4,405 503,364.9 503.5,360 504.1,375.4 504.7,84.2 505.3,88.2 505.8,84.9 506.4,110.3 507,94.9 507.5,80.5 508.1,67.8 508.7,82.9 509.3,107.6 509.8,93.6 510.4,76.1 511,71.2 511.6,92.3 512.1,61.1 512.7,83 513.3,78 513.9,88.1 514.4,91.3 515,84.2 515.6,70.1 516.2,88.1 516.7,77.3 517.3,68.1 517.9,116.8 518.5,78.8 519,90.8 519.6,76.1 520.2,63.8 520.8,88.3 521.3,94.9 521.9,87.1 522.5,79.4 523,109.5 523.6,87.5 524.2,76.1 524.8,84.6 525.3,103.8 525.9,84.8 526.5,75.7 527.1,97.4 527.6,72.1 528.2,96.2 528.8,86.8 529.4,98.2 529.9,88.1 530.5,90.2 531.1,94.8 531.7,85.3 532.2,103 532.8,111.8 533.4,66.2 534,80.8 534.5,91.7 535.1,77.4 535.7,77.5 536.2,102.2 536.8,81.5 537.4,106.2 538,91.7 538.5,89 539.1,100.3 539.7,70.3 540.3,90.5 540.8,103.9 541.4,98.7 542,79.7 542.6,119 543.1,101.7 543.7,72.7 544.3,73.2 544.9,89.7 545.4,95.1 546,92.9 546.6,112.7 547.2,89.2 547.7,76.1 548.3,85.7 548.9,80.8 549.4,90.3 550,79.4 550.6,89.8 551.2,96.4 551.7,71.8 552.3,93.1 552.9,118.7 553.5,98.7 554,85.4 554.6,95.2 555.2,74.8 555.8,91.6 556.3,83.9 556.9,77.6 557.5,65.1 558.1,72.9 558.6,88.4 559.2,77.7 559.8,79.6 560.4,84.6 560.9,89.2 561.5,94.4 562.1,378.6 562.7,403 563.2,401.4 563.8,401.4 564.4,391.3 564.9,378.5 565.5,372.9 566.1,395.6 566.7,387.4 567.2,382.9 567.8,392.5 568.4,369.6 569,372.8 569.5,349.5 570.1,363.3 570.7,383.7 571.3,387.2 571.8,366.1 572.4,402.2 573,388 573.6,386.7 574.1,368.6 574.7,365.1 575.3,382.5 575.9,380 576.4,355.8 577,372.4 577.6,384.2 578.1,400.5 578.7,374.2 579.3,355.3 579.9,379.8 580.4,374.2 581,369.3 581.6,374.5 582.2,391.5 582.7,353.2 583.3,370.8 583.9,393.8 584.5,400.3 585,366.9 585.6,355.2 586.2,360.8 586.8,374.4 587.3,355.4 587.9,379.9 588.5,356.1 589.1,370.4 589.6,398.7 590.2,382.4 590.8,394.6 591.3,388.9 591.9,374 592.5,360.8 593.1,364.7 593.6,377.2 594.2,389 594.8,369.4 595.4,360.3 595.9,366.5 596.5,388.1 597.1,395.6 597.7,386.1 598.2,411.8 598.8,371.5 599.4,359.1 600,369.4 600.5,389.5 601.1,387.3 601.7,379.5 602.3,382 602.8,384 603.4,371.2 604,397.9 604.6,379.3 605.1,387.2 605.7,409.1 606.3,369.4 606.8,364.7 607.4,381.3 608,354.3 608.6,374.4 609.1,374.9 609.7,383.9 610.3,372.5 610.9,361.9 611.4,385.1 612,392.2 612.6,397 613.2,354 613.7,375.3 614.3,382.7 614.9,378.7 615.5,370.4 616,362.5 616.6,368.8 617.2,387.7 617.8,358.5 618.3,374.4 618.9,386.5 " />
</g>

<g fill="none" stroke="#000000" stroke-opacity="1" stroke-width="1" stroke-linecap="square" stroke-linejoin="bevel" transform="matrix(1.00313,0,0,1.00313,0,0)"
font-family="Sans Serif" font-size="9" font-weight="400" font-style="normal" 
>
</g>

<g fill="none" stroke="#000000" stroke-opacity="1" stroke-width="1" stroke-linecap="square" stroke-linejoin="bevel" transform="matrix(1.00313,0,0,1.00313,428.334,48.6516)"
font-family="Sans Serif" font-size="9" font-weight="400" font-style="normal" 
>
</g>

<g fill="none" stroke="#000000" stroke-opacity="1" stroke-width="1" stroke-linecap="square" stroke-linejoin="bevel" transform="matrix(1.00313,0,0,1.00313,428.334,48.6516)"
font-family="Sans Serif" font-size="9" font-weight="400" font-style="normal" 
>
</g>

<g fill="none" stroke="#000000" stroke-opacity="1" stroke-width="1" stroke-linecap="square" stroke-linejoin="bevel" transform="matrix(1.00313,0,0,1.00313,428.334,48.6516)"
font-family="Sans Serif" font-size="9" font-weight="400" font-style="normal" 
>
</g>

<g fill="none" stroke="#000000" stroke-opacity="1" stroke-width="1" stroke-linecap="square" stroke-linejoin="bevel" transform="matrix(1.00313,0,0,1.00313,428.334,48.6516)"
font-family="Sans Serif" font-size="9" font-weight="400" font-style="normal" 
>
</g>

<g fill="none" stroke="#000000" stroke-opacity="1" stroke-width="1" stroke-linecap="square" stroke-linejoin="bevel" transform="matrix(1.00313,0,0,1.00313,428.334,48.6516)"
font-family="Sans Serif" font-size="9" font-weight="400" font-style="normal" 
>
</g>

<g fill="none" stroke="#000000" stroke-opacity="1" stroke-width="1" stroke-linecap="square" stroke-linejoin="bevel" transform="matrix(1.00313,0,0,1.00313,428.334,48.6516)"
font-family="Sans" font-size="9" font-weight="400" font-style="normal" 
>
<text fill="#000000" fill-opacity="1" stroke="none" xml:space="preserve" x="0" y="0" font-family="Sans" font-size="9" font-weight="400" font-style="normal" 
 >Standard Median Filter</text>
</g>

<g fill="none" stroke="#000000" stroke-opacity="1" stroke-width="1" stroke-linecap="square" stroke-linejoin="bevel" transform="matrix(1.00313,0,0,1.00313,428.334,48.6516)"
font-family="Sans Serif" font-size="9" font-weight="400" font-style="normal" 
>
</g>

<g fill="none" stroke="#000000" stroke-opacity="1" stroke-width="1" stroke-linecap="square" stroke-linejoin="bevel" transform="matrix(1.00313,0,0,1.00313,0,0)"
font-family="Sans Serif" font-size="9" font-weight="400" font-style="normal" 
>
</g>

<g fill="none" stroke="#009e73" stroke-opacity="1" stroke-width="1" stroke-linecap="round" stroke-linejoin="round" transform="matrix(1.00313,0,0,1.00313,0,0)"
font-family="Sans Serif" font-size="9" font-weight="400" font-style="normal" 
>
<path vector-effect="none" fill-rule="evenodd" d="M570.5,43.5 L604.5,43.5"/>
</g>

<g fill="none" stroke="#000000" stroke-opacity="1" stroke-width="1" stroke-linecap="square" stroke-linejoin="bevel" transform="matrix(1.00313,0,0,1.00313,0,0)"
font-family="Sans Serif" font-size="9" font-weight="400" font-style="normal" 
>
</g>

<g fill="none" stroke="#000000" stroke-opacity="1" stroke-width="1" stroke-linecap="square" stroke-linejoin="bevel" transform="matrix(1.00313,0,0,1.00313,0,0)"
font-family="Sans Serif" font-size="9" font-weight="400" font-style="normal" 
>
</g>

<g fill="none" stroke="#000000" stroke-opacity="1" stroke-width="1" stroke-linecap="square" stroke-linejoin="bevel" transform="matrix(1.00313,0,0,1.00313,0,0)"
font-family="Sans Serif" font-size="9" font-weight="400" font-style="normal" 
>
</g>

<g fill="none" stroke="#000000" stroke-opacity="1" stroke-width="1" stroke-linecap="square" stroke-linejoin="bevel" transform="matrix(1.00313,0,0,1.00313,0,0)"
font-family="Sans Serif" font-size="9" font-weight="400" font-style="normal" 
>
</g>

<g fill="none" stroke="#009e73" stroke-opacity="1" stroke-width="1" stroke-linecap="round" stroke-linejoin="round" transform="matrix(1.00313,0,0,1.00313,0,0)"
font-family="Sans Serif" font-size="9" font-weight="400" font-style="normal" 
>
<polyline fill="none" vector-effect="none" points="45.5,85.6 45.5,85.6 46.1,85.6 46.6,85.6 47.2,85.6 47.8,88.9 48.4,88.2 48.9,88.2 49.5,88.2 50.1,97.4 50.7,97.3 51.2,88.2 51.8,87.8 52.4,87.8 53,95.5 53.5,95.5 54.1,95.5 54.7,95.5 55.3,95.5 55.8,95.5 56.4,92.9 57,92.9 57.6,96 58.1,92.9 58.7,91.8 59.3,92.9 59.8,91.8 60.4,89.7 61,89.7 61.6,89.7 62.1,89.7 62.7,90.6 63.3,89.7 63.9,89.6 64.4,90.6 65,89.6 65.6,88.1 66.2,88.1 66.7,79.2 67.3,77.2 67.9,77.2 68.5,77.2 69,70.4 69.6,93.3 70.2,70.4 70.8,67.5 71.3,93 71.9,92 72.5,69.4 73.1,91.6 73.6,88.3 74.2,88.3 74.8,88.3 75.3,86.3 75.9,79.8 76.5,86.3 77.1,79.8 77.6,79.8 78.2,86.3 78.8,86.3 79.4,87.4 79.9,88.7 80.5,91 81.1,91 81.7,88.7 82.2,82.7 82.8,81.5 83.4,81.5 84,77.6 84.5,77.6 85.1,77.6 85.7,77.6 86.3,88.8 86.8,88.8 87.4,81.8 88,81.8 88.5,76.4 89.1,65.9 89.7,65.9 90.3,65.9 90.8,77.9 91.4,77.9 92,81 92.6,82.8 93.1,96.5 93.7,102.1 94.3,96.5 94.9,99.4 95.4,99.4 96,96.5 96.6,99.4 97.2,99.4 97.7,94.3 98.3,93.3 98.9,87.5 99.5,87.5 100,86 100.6,85 101.2,85 101.7,85 102.3,86 102.9,348.3 103.5,348.3 104,369.2 104.6,370.8 105.2,382.9 105.8,382.9 106.3,383.1 106.9,383.1 107.5,388.3 108.1,392.7 108.6,392.7 109.2,383.1 109.8,379.6 110.4,374.9 110.9,374.9 111.5,374.9 112.1,372.4 112.7,372.4 113.2,372.1 113.8,372.1 114.4,372.1 115,373.4 115.5,373.4 116.1,373.4 116.7,371.6 117.2,371.6 117.8,373.4 118.4,369.2 119,369.2 119.5,369.2 120.1,369.2 120.7,374.7 121.3,383.3 121.8,374.7 122.4,384.1 123,376.9 123.6,374.7 124.1,374.7 124.7,376.9 125.3,376.9 125.9,376.9 126.4,370.2 127,370.2 127.6,372.6 128.2,378.6 128.7,378.6 129.3,378.6 129.9,378.6 130.4,378.6 131,379.5 131.6,379.5 132.2,378.1 132.7,378.1 133.3,378.1 133.9,378.4 134.5,378.4 135,377.3 135.6,378.4 136.2,378.4 136.8,378.4 137.3,377.3 137.9,372.9 138.5,372.9 139.1,372.9 139.6,372.9 140.2,373.4 140.8,372.9 141.4,373.4 141.9,374.8 142.5,380.8 143.1,380.8 143.6,382.5 144.2,383.9 144.8,383.9 145.4,387.6 145.9,382.5 146.5,376.8 147.1,376.8 147.7,371.7 148.2,360.6 148.8,371.7 149.4,371.7 150,376.8 150.5,380.7 151.1,380.7 151.7,385 152.3,385 152.8,385 153.4,384.9 154,384.9 154.6,380.6 155.1,380.6 155.7,370 156.3,380.6 156.9,372.6 157.4,372.6 158,372.6 158.6,372.6 159.1,372.6 159.7,372.6 160.3,89.6 160.9,89.6 161.4,89.6 162,86.6 162.6,86.5 163.2,89.6 163.7,94.1 164.3,97.8 164.9,97.8 165.5,78.1 166,77.6 166.6,76.7 167.2,76.7 167.8,76.7 168.3,76.4 168.9,76.4 169.5,76.4 170.1,78.2 170.6,78.2 171.2,78.2 171.8,76.4 172.3,83.3 172.9,91.8 173.5,90.7 174.1,105.9 174.6,105.9 175.2,105.9 175.8,105.9 176.4,91 176.9,90.7 177.5,89.4 178.1,89.1 178.7,89.1 179.2,89.1 179.8,89.1 180.4,85.5 181,85.5 181.5,85.5 182.1,87.9 182.7,85.5 183.3,85.5 183.8,87.9 184.4,97.2 185,97.2 185.5,96.6 186.1,96.6 186.7,97.2 187.3,96.6 187.8,96.6 188.4,92.8 189,93.6 189.6,92.8 190.1,82 190.7,82 191.3,93.6 191.9,82 192.4,89.5 193,89.5 193.6,89.5 194.2,93.2 194.7,93 195.3,92.2 195.9,92.2 196.5,92.2 197,90.6 197.6,92.2 198.2,92.2 198.8,90.6 199.3,90.6 199.9,85.1 200.5,87.9 201,87.9 201.6,87.9 202.2,87.9 202.8,89.3 203.3,87.9 203.9,89.3 204.5,89.3 205.1,89.3 205.6,89.3 206.2,79.8 206.8,79.8 207.4,79.8 207.9,79.6 208.5,79.6 209.1,79.5 209.7,72.4 210.2,79.5 210.8,79.5 211.4,82.1 212,86.2 212.5,82.1 213.1,86.2 213.7,86.2 214.2,89.4 214.8,94.3 215.4,96.3 216,96.8 216.5,101.2 217.1,102.4 217.7,365.4 218.3,367.7 218.8,376.8 219.4,376.8 220,373.9 220.6,373.9 221.1,373.9 221.7,373.9 222.3,377.6 222.9,373.9 223.4,375.9 224,375.9 224.6,385.5 225.2,375.9 225.7,374.4 226.3,374.4 226.9,374.4 227.4,374.4 228,374.9 228.6,367.5 229.2,374.9 229.7,381.9 230.3,390.6 230.9,390.6 231.5,391.2 232,390.6 232.6,390.6 233.2,391.2 233.8,386.5 234.3,381.2 234.9,381.2 235.5,376.9 236.1,381.2 236.6,381.2 237.2,379.2 237.8,375.9 238.4,375.7 238.9,375.7 239.5,375.9 240.1,375.9 240.7,377 241.2,377 241.8,378.3 242.4,378.3 242.9,392.1 243.5,378.3 244.1,378.3 244.7,385.9 245.2,376.4 245.8,374.8 246.4,376.4 247,376.4 247.5,385.9 248.1,385.9 248.7,367.7 249.3,379.4 249.8,379.4 250.4,369.5 251,362.2 251.6,361.7 252.1,361.7 252.7,367.6 253.3,367.6 253.9,369.5 254.4,367.6 255,377.2 255.6,377.2 256.1,377.2 256.7,377.2 257.3,377.7 257.9,374 258.4,374 259,374 259.6,374 260.2,374 260.7,378.6 261.3,374 261.9,378.6 262.5,383.7 263,383.7 263.6,383.7 264.2,378.6 264.8,376.5 265.3,376.5 265.9,374.4 266.5,374.4 267.1,373.9 267.6,373.7 268.2,369.2 268.8,369.2 269.3,369.2 269.9,369.2 270.5,366.8 271.1,369.2 271.6,365.6 272.2,381.6 272.8,381.6 273.4,381.6 273.9,365.6 274.5,365.6 275.1,99.9 275.7,88.3 276.2,88.3 276.8,88.3 277.4,90.4 278,90.4 278.5,90.4 279.1,90.4 279.7,91.3 280.3,90.4 280.8,85.8 281.4,85.6 282,82.3 282.6,85.6 283.1,75.3 283.7,75.3 284.3,75.3 284.8,89 285.4,89 286,89 286.6,89 287.1,89 287.7,89 288.3,90.1 288.9,88.4 289.4,87.8 290,87.8 290.6,82 291.2,81.5 291.7,81 292.3,81 292.9,81 293.5,79.9 294,81 294.6,83.7 295.2,85.5 295.8,89.7 296.3,90 296.9,91.6 297.5,91.6 298,91.6 298.6,91.3 299.2,91.3 299.8,91.3 300.3,91.3 300.9,91.3 301.5,86.2 302.1,84 302.6,95.5 303.2,95.5 303.8,84 304.4,74.8 304.9,74.8 305.5,74.8 306.1,82.1 306.7,82.1 307.2,82.1 307.8,89.6 308.4,89.6 309,89.6 309.5,89.6 310.1,99.3 310.7,99.3 311.2,99.3 311.8,98 312.4,102.1 313,98 313.5,99 314.1,98 314.7,95.5 315.3,82.4 315.8,77 316.4,77 317,82.4 317.6,82.4 318.1,82.4 318.7,95.6 319.3,95.6 319.9,95.6 320.4,91.8 321,86 321.6,86 322.2,88.2 322.7,88.2 323.3,88.2 323.9,88.2 324.5,94.4 325,94.5 325.6,95.8 326.2,94.5 326.7,98.5 327.3,98.5 327.9,98.5 328.5,82.9 329,82.9 329.6,79.4 330.2,82.1 330.8,82.1 331.3,82.9 331.9,85.7 332.5,366.3 333.1,375.7 333.6,377 334.2,377 334.8,375.7 335.4,377 335.9,374.5 336.5,377 337.1,377 337.7,374.5 338.2,374.5 338.8,379.3 339.4,372.4 339.9,379.3 340.5,378.9 341.1,378.9 341.7,383.5 342.2,388.4 342.8,383.5 343.4,383.5 344,383.5 344.5,388.4 345.1,388.4 345.7,385.9 346.3,379.3 346.8,379.3 347.4,379.3 348,379.3 348.6,373 349.1,369.8 349.7,366.7 350.3,369.8 350.9,373 351.4,370.5 352,370.5 352.6,370.5 353.2,370.5 353.7,375.8 354.3,370.5 354.9,370.5 355.4,371.8 356,371.8 356.6,371.8 357.2,371.8 357.7,356.9 358.3,371.8 358.9,371.8 359.5,371.8 360,371.8 360.6,378.8 361.2,378.8 361.8,380.2 362.3,385.4 362.9,385.4 363.5,385.4 364.1,385.4 364.6,385.4 365.2,385.4 365.8,381.8 366.4,381.8 366.9,375.1 367.5,374.9 368.1,368.1 368.6,368.1 369.2,374.9 369.8,375.3 370.4,375.3 370.9,376.4 371.5,376.4 372.1,378.8 372.7,376.4 373.2,376.4 373.8,377.7 374.4,377.7 375,377.6 375.5,377.6 376.1,377.6 376.7,377.7 377.3,377.7 377.8,381.9 378.4,381.9 379,381.9 379.6,381.9 380.1,381.9 380.7,376.3 381.3,373.1 381.8,370.9 382.4,370.9 383,373.1 383.6,377.9 384.1,377.9 384.7,389.9 385.3,389.9 385.9,389.9 386.4,389.9 387,388 387.6,388 388.2,383.8 388.7,380.7 389.3,363.3 389.9,103.2 390.5,99.1 391,91.8 391.6,91.8 392.2,95.6 392.8,95.6 393.3,95.6 393.9,95.6 394.5,95.6 395.1,95.6 395.6,95.2 396.2,94.8 396.8,90.2 397.3,90.2 397.9,83.5 398.5,83.5 399.1,77.6 399.6,83.5 400.2,83.5 400.8,83.6 401.4,83.6 401.9,86.1 402.5,86.4 403.1,86.6 403.7,86.6 404.2,86.4 404.8,86.4 405.4,86.4 406,86.7 406.5,86.7 407.1,86.7 407.7,80.9 408.3,80.9 408.8,86.7 409.4,86.7 410,88.9 410.5,88.9 411.1,88.9 411.7,88.9 412.3,89 412.8,89 413.4,89 414,83.9 414.6,83.9 415.1,83.9 415.7,82.8 416.3,82.8 416.9,82.8 417.4,84.7 418,86.3 418.6,84.7 419.2,82.8 419.7,79.8 420.3,79.8 420.9,79.8 421.5,79.8 422,79.8 422.6,89.1 423.2,94.4 423.7,94.5 424.3,94.4 424.9,94.4 425.5,94.4 426,94.4 426.6,100.2 427.2,89.7 427.8,89.7 428.3,89.7 428.9,86.7 429.5,91.9 430.1,91.9 430.6,86.7 431.2,90.8 431.8,89 432.4,90.8 432.9,90.8 433.5,89 434.1,89 434.7,89 435.2,89 435.8,91.8 436.4,91.8 437,91.8 437.5,95 438.1,95 438.7,95 439.2,96 439.8,96 440.4,85.5 441,85.5 441.5,85.5 442.1,85.5 442.7,90.2 443.3,90.2 443.8,90.2 444.4,90.2 445,93.7 445.6,93.7 446.1,96.3 446.7,100.5 447.3,363.9 447.9,364.6 448.4,365 449,376.5 449.6,376.5 450.2,384.3 450.7,384.3 451.3,384.4 451.9,384.4 452.4,384.4 453,384.3 453.6,384.4 454.2,386.6 454.7,384.4 455.3,390.2 455.9,390.2 456.5,390.2 457,390.2 457.6,386.2 458.2,380 458.8,386.2 459.3,386.2 459.9,387.4 460.5,386.2 461.1,378.5 461.6,387.4 462.2,387.4 462.8,375.3 463.4,375.3 463.9,365.1 464.5,374.4 465.1,374.4 465.6,374.4 466.2,370.6 466.8,374.4 467.4,370.6 467.9,370.6 468.5,370.6 469.1,371 469.7,371 470.2,384.1 470.8,381.4 471.4,384.1 472,384.1 472.5,384.1 473.1,384.1 473.7,382.6 474.3,381.4 474.8,378.7 475.4,378.7 476,378.7 476.6,378.7 477.1,378.7 477.7,379.6 478.3,382.3 478.9,382.3 479.4,379.6 480,379.6 480.6,377 481.1,377 481.7,377 482.3,373.9 482.9,377 483.4,381.4 484,381.4 484.6,382.5 485.2,381.4 485.7,381.4 486.3,381.4 486.9,378.5 487.5,371.9 488,369.4 488.6,369.4 489.2,369.4 489.8,369.4 490.3,366.6 490.9,374.8 491.5,374.8 492.1,375.2 492.6,375.2 493.2,368.7 493.8,368.7 494.3,374.3 494.9,374.3 495.5,379.2 496.1,379.2 496.6,379.2 497.2,380.1 497.8,379.2 498.4,380.1 498.9,380.1 499.5,385.9 500.1,373.9 500.7,385.9 501.2,373.9 501.8,373.9 502.4,373.9 503,373.9 503.5,364.9 504.1,360 504.7,110.3 505.3,94.9 505.8,88.2 506.4,84.9 507,84.9 507.5,84.9 508.1,93.6 508.7,82.9 509.3,80.5 509.8,82.9 510.4,82.9 511,83 511.6,78 512.1,78 512.7,83 513.3,84.2 513.9,83 514.4,84.2 515,84.2 515.6,84.2 516.2,84.2 516.7,78.8 517.3,78.8 517.9,78.8 518.5,77.3 519,78.8 519.6,88.3 520.2,87.1 520.8,87.1 521.3,87.1 521.9,87.5 522.5,87.5 523,87.1 523.6,87.1 524.2,84.8 524.8,84.8 525.3,84.8 525.9,84.6 526.5,84.8 527.1,86.8 527.6,86.8 528.2,88.1 528.8,90.2 529.4,90.2 529.9,90.2 530.5,90.2 531.1,94.8 531.7,90.2 532.2,90.2 532.8,91.7 533.4,85.3 534,80.8 534.5,80.8 535.1,80.8 535.7,81.5 536.2,91.7 536.8,89 537.4,91.7 538,91.7 538.5,90.5 539.1,91.7 539.7,91.7 540.3,90.5 540.8,98.7 541.4,98.7 542,98.7 542.6,98.7 543.1,89.7 543.7,89.7 544.3,92.9 544.9,92.9 545.4,89.7 546,89.7 546.6,89.7 547.2,89.2 547.7,89.2 548.3,85.7 548.9,85.7 549.4,85.7 550,85.7 550.6,89.8 551.2,90.3 551.7,93.1 552.3,93.1 552.9,95.2 553.5,93.1 554,93.1 554.6,91.6 555.2,85.4 555.8,83.9 556.3,77.6 556.9,77.6 557.5,77.7 558.1,77.7 558.6,77.7 559.2,79.6 559.8,84.6 560.4,88.4 560.9,89.2 561.5,94.4 562.1,378.6 562.7,391.3 563.2,391.3 563.8,391.3 564.4,395.6 564.9,391.3 565.5,387.4 566.1,387.4 566.7,382.9 567.2,382.9 567.8,382.9 568.4,372.8 569,372.8 569.5,372.8 570.1,369.6 570.7,372.8 571.3,383.7 571.8,386.7 572.4,386.7 573,386.7 573.6,382.5 574.1,382.5 574.7,380 575.3,372.4 575.9,372.4 576.4,380 577,380 577.6,374.2 578.1,374.2 578.7,374.2 579.3,374.2 579.9,374.2 580.4,374.2 581,374.2 581.6,374.2 582.2,374.2 582.7,374.5 583.3,374.5 583.9,370.8 584.5,366.9 585,370.8 585.6,366.9 586.2,366.9 586.8,360.8 587.3,360.8 587.9,370.4 588.5,374.4 589.1,379.9 589.6,382.4 590.2,382.4 590.8,382.4 591.3,382.4 591.9,377.2 592.5,377.2 593.1,374 593.6,369.4 594.2,366.5 594.8,369.4 595.4,377.2 595.9,386.1 596.5,386.1 597.1,386.1 597.7,386.1 598.2,386.1 598.8,386.1 599.4,386.1 600,379.5 600.5,379.5 601.1,382 601.7,382 602.3,384 602.8,382 603.4,382 604,384 604.6,384 605.1,379.3 605.7,381.3 606.3,379.3 606.8,374.4 607.4,374.4 608,374.4 608.6,374.4 609.1,374.4 609.7,374.4 610.3,374.9 610.9,383.9 611.4,383.9 612,375.3 612.6,382.7 613.2,382.7 613.7,378.7 614.3,375.3 614.9,370.4 615.5,375.3 616,370.4 616.6,370.4 617.2,370.4 617.8,374.4 618.3,386.5 618.9,386.5 " />
</g>

<g fill="none" stroke="#000000" stroke-opacity="1" stroke-width="1" stroke-linecap="square" stroke-linejoin="bevel" transform="matrix(1.00313,0,0,1.00313,0,0)"
font-family="Sans Serif" font-size="9" font-weight="400" font-style="normal" 
>
</g>

<g fill="none" stroke="#000000" stroke-opacity="1" stroke-width="1" stroke-linecap="square" stroke-linejoin="bevel" transform="matrix(1.00313,0,0,1.00313,426.328,63.6984)"
font-family="Sans Serif" font-size="9" font-weight="400" font-style="normal" 
>
</g>

<g fill="none" stroke="#000000" stroke-opacity="1" stroke-width="1" stroke-linecap="square" stroke-linejoin="bevel" transform="matrix(1.00313,0,0,1.00313,426.328,63.6984)"
font-family="Sans Serif" font-size="9" font-weight="400" font-style="normal" 
>
</g>

<g fill="none" stroke="#000000" stroke-opacity="1" stroke-width="1" stroke-linecap="square" stroke-linejoin="bevel" transform="matrix(1.00313,0,0,1.00313,426.328,63.6984)"
font-family="Sans Serif" font-size="9" font-weight="400" font-style="normal" 
>
</g>

<g fill="none" stroke="#000000" stroke-opacity="1" stroke-width="1" stroke-linecap="square" stroke-linejoin="bevel" transform="matrix(1.00313,0,0,1.00313,426.328,63.6984)"
font-family="Sans Serif" font-size="9" font-weight="400" font-style="normal" 
>
</g>

<g fill="none" stroke="#000000" stroke-opacity="1" stroke-width="1" stroke-linecap="square" stroke-linejoin="bevel" transform="matrix(1.00313,0,0,1.00313,426.328,63.6984)"
font-family="Sans Serif" font-size="9" font-weight="400" font-style="normal" 
>
</g>

<g fill="none" stroke="#000000" stroke-opacity="1" stroke-width="1" stroke-linecap="square" stroke-linejoin="bevel" transform="matrix(1.00313,0,0,1.00313,426.328,63.6984)"
font-family="Sans" font-size="9" font-weight="400" font-style="normal" 
>
<text fill="#000000" fill-opacity="1" stroke="none" xml:space="preserve" x="0" y="0" font-family="Sans" font-size="9" font-weight="400" font-style="normal" 
 >Recursive Median Filter</text>
</g>

<g fill="none" stroke="#000000" stroke-opacity="1" stroke-width="1" stroke-linecap="square" stroke-linejoin="bevel" transform="matrix(1.00313,0,0,1.00313,426.328,63.6984)"
font-family="Sans Serif" font-size="9" font-weight="400" font-style="normal" 
>
</g>

<g fill="none" stroke="#000000" stroke-opacity="1" stroke-width="1" stroke-linecap="square" stroke-linejoin="bevel" transform="matrix(1.00313,0,0,1.00313,0,0)"
font-family="Sans Serif" font-size="9" font-weight="400" font-style="normal" 
>
</g>

<g fill="none" stroke="#56b4e9" stroke-opacity="1" stroke-width="1" stroke-linecap="round" stroke-linejoin="round" transform="matrix(1.00313,0,0,1.00313,0,0)"
font-family="Sans Serif" font-size="9" font-weight="400" font-style="normal" 
>
<path vector-effect="none" fill-rule="evenodd" d="M570.5,58.5 L604.5,58.5"/>
</g>

<g fill="none" stroke="#000000" stroke-opacity="1" stroke-width="1" stroke-linecap="square" stroke-linejoin="bevel" transform="matrix(1.00313,0,0,1.00313,0,0)"
font-family="Sans Serif" font-size="9" font-weight="400" font-style="normal" 
>
</g>

<g fill="none" stroke="#000000" stroke-opacity="1" stroke-width="1" stroke-linecap="square" stroke-linejoin="bevel" transform="matrix(1.00313,0,0,1.00313,0,0)"
font-family="Sans Serif" font-size="9" font-weight="400" font-style="normal" 
>
</g>

<g fill="none" stroke="#000000" stroke-opacity="1" stroke-width="1" stroke-linecap="square" stroke-linejoin="bevel" transform="matrix(1.00313,0,0,1.00313,0,0)"
font-family="Sans Serif" font-size="9" font-weight="400" font-style="normal" 
>
</g>

<g fill="none" stroke="#000000" stroke-opacity="1" stroke-width="1" stroke-linecap="square" stroke-linejoin="bevel" transform="matrix(1.00313,0,0,1.00313,0,0)"
font-family="Sans Serif" font-size="9" font-weight="400" font-style="normal" 
>
</g>

<g fill="none" stroke="#56b4e9" stroke-opacity="1" stroke-width="1" stroke-linecap="round" stroke-linejoin="round" transform="matrix(1.00313,0,0,1.00313,0,0)"
font-family="Sans Serif" font-size="9" font-weight="400" font-style="normal" 
>
<polyline fill="none" vector-effect="none" points="45.5,85.6 45.5,85.6 46.1,85.6 46.6,85.6 47.2,85.6 47.8,85.6 48.4,88.2 48.9,88.2 49.5,88.2 50.1,88.2 50.7,88.2 51.2,88.2 51.8,88.2 52.4,88.2 53,88.2 53.5,88.2 54.1,88.2 54.7,88.2 55.3,88.2 55.8,88.2 56.4,88.2 57,88.2 57.6,91.8 58.1,91.8 58.7,91.8 59.3,91.8 59.8,91.8 60.4,91.8 61,91.8 61.6,91.4 62.1,91.4 62.7,91.4 63.3,91.4 63.9,91.4 64.4,91.4 65,90.9 65.6,90.9 66.2,90.9 66.7,90.9 67.3,90.9 67.9,90.9 68.5,90.9 69,90.9 69.6,90.9 70.2,90.9 70.8,90.9 71.3,90.9 71.9,90.9 72.5,90.9 73.1,90.9 73.6,90.9 74.2,90.9 74.8,90.9 75.3,88.3 75.9,86.3 76.5,86.3 77.1,86.3 77.6,86.3 78.2,86.3 78.8,86.3 79.4,86.3 79.9,86.3 80.5,86.3 81.1,86.3 81.7,86.3 82.2,86.3 82.8,81.5 83.4,81.5 84,81.5 84.5,81.5 85.1,81.5 85.7,81.5 86.3,81.5 86.8,81.5 87.4,81.5 88,81.5 88.5,81.5 89.1,81.5 89.7,77.9 90.3,77.9 90.8,77.9 91.4,77.9 92,81 92.6,81 93.1,81 93.7,96.5 94.3,96.5 94.9,96.5 95.4,96.5 96,96.5 96.6,96.5 97.2,96.5 97.7,96.5 98.3,96.5 98.9,96.5 99.5,87.5 100,86 100.6,86 101.2,86 101.7,86 102.3,86 102.9,348.3 103.5,348.3 104,348.3 104.6,348.3 105.2,348.3 105.8,382.9 106.3,383.1 106.9,383.1 107.5,383.1 108.1,383.1 108.6,383.1 109.2,383.1 109.8,383.1 110.4,379.6 110.9,374.9 111.5,374.9 112.1,374.9 112.7,374.9 113.2,374.9 113.8,374.9 114.4,374.9 115,374.9 115.5,374.9 116.1,374.9 116.7,374.9 117.2,374.9 117.8,374.9 118.4,374.9 119,374.9 119.5,374.9 120.1,374.9 120.7,374.9 121.3,374.9 121.8,374.9 122.4,374.9 123,374.9 123.6,374.9 124.1,374.9 124.7,374.9 125.3,374.9 125.9,374.9 126.4,374.9 127,374.9 127.6,374.9 128.2,374.9 128.7,374.9 129.3,378.6 129.9,378.6 130.4,378.6 131,378.6 131.6,378.6 132.2,378.6 132.7,378.6 133.3,378.6 133.9,378.6 134.5,378.6 135,378.6 135.6,378.6 136.2,378.6 136.8,378.6 137.3,378.6 137.9,378.6 138.5,378.6 139.1,373.4 139.6,373.4 140.2,373.4 140.8,373.4 141.4,373.4 141.9,373.4 142.5,373.4 143.1,373.4 143.6,373.4 144.2,373.4 144.8,373.4 145.4,373.4 145.9,373.4 146.5,373.4 147.1,373.4 147.7,373.4 148.2,373.4 148.8,373.4 149.4,373.4 150,373.4 150.5,380.7 151.1,380.7 151.7,380.7 152.3,380.7 152.8,380.7 153.4,380.7 154,380.7 154.6,380.7 155.1,380.7 155.7,380.7 156.3,380.7 156.9,380.7 157.4,380.7 158,380.7 158.6,380.7 159.1,380.7 159.7,380.7 160.3,89.6 160.9,89.6 161.4,89.6 162,89.6 162.6,89.6 163.2,89.6 163.7,89.6 164.3,89.6 164.9,89.6 165.5,89.6 166,89.6 166.6,76.7 167.2,76.7 167.8,76.7 168.3,76.7 168.9,76.7 169.5,76.7 170.1,76.7 170.6,76.7 171.2,76.7 171.8,76.7 172.3,76.7 172.9,76.7 173.5,76.7 174.1,90.7 174.6,90.7 175.2,90.7 175.8,90.7 176.4,90.7 176.9,90.7 177.5,90.7 178.1,90.7 178.7,90.7 179.2,90.7 179.8,90.7 180.4,90.7 181,89.5 181.5,89.5 182.1,89.5 182.7,89.5 183.3,89.5 183.8,89.5 184.4,89.5 185,89.5 185.5,89.5 186.1,89.5 186.7,89.5 187.3,89.5 187.8,89.5 188.4,89.5 189,89.5 189.6,89.5 190.1,89.5 190.7,89.5 191.3,89.5 191.9,89.5 192.4,89.5 193,89.5 193.6,89.5 194.2,89.5 194.7,89.5 195.3,89.5 195.9,90.6 196.5,90.6 197,90.6 197.6,90.6 198.2,90.6 198.8,90.6 199.3,90.6 199.9,90.6 200.5,90.6 201,90.6 201.6,90.6 202.2,90.6 202.8,90.6 203.3,90.6 203.9,90.6 204.5,90.6 205.1,90.6 205.6,90.6 206.2,90.6 206.8,90.6 207.4,90.6 207.9,82.8 208.5,82.8 209.1,82.8 209.7,82.8 210.2,82.8 210.8,82.8 211.4,82.8 212,82.8 212.5,82.8 213.1,82.8 213.7,82.8 214.2,82.8 214.8,82.8 215.4,82.8 216,96.8 216.5,101.2 217.1,101.2 217.7,365.4 218.3,365.4 218.8,367.7 219.4,367.7 220,367.7 220.6,367.7 221.1,367.7 221.7,367.7 222.3,367.7 222.9,367.7 223.4,367.7 224,367.7 224.6,367.7 225.2,367.7 225.7,367.7 226.3,367.7 226.9,367.7 227.4,367.7 228,367.7 228.6,367.7 229.2,367.7 229.7,367.7 230.3,367.7 230.9,369.6 231.5,369.6 232,369.6 232.6,369.6 233.2,369.6 233.8,369.6 234.3,376.9 234.9,376.9 235.5,376.9 236.1,376.9 236.6,376.9 237.2,376.9 237.8,376.9 238.4,376.9 238.9,376.9 239.5,376.9 240.1,376.9 240.7,376.9 241.2,377 241.8,377 242.4,377 242.9,377 243.5,377 244.1,377 244.7,377 245.2,377 245.8,377 246.4,377 247,377 247.5,377 248.1,377 248.7,377 249.3,377 249.8,377 250.4,377 251,377 251.6,369.5 252.1,369.5 252.7,369.5 253.3,369.5 253.9,369.5 254.4,369.5 255,369.5 255.6,369.5 256.1,369.5 256.7,369.5 257.3,369.5 257.9,369.5 258.4,369.5 259,369.5 259.6,369.5 260.2,369.5 260.7,369.5 261.3,369.5 261.9,369.5 262.5,369.5 263,369.5 263.6,376.5 264.2,376.5 264.8,376.5 265.3,376.5 265.9,374.4 266.5,374.4 267.1,374.4 267.6,374.4 268.2,374.4 268.8,374.4 269.3,374.4 269.9,374.4 270.5,374.4 271.1,374.4 271.6,374.4 272.2,374.4 272.8,374.4 273.4,374.4 273.9,374.4 274.5,374.4 275.1,99.9 275.7,99.9 276.2,99.9 276.8,99.9 277.4,99.9 278,99.9 278.5,99.9 279.1,91.3 279.7,91.3 280.3,91.3 280.8,91.3 281.4,91.3 282,85.8 282.6,85.8 283.1,85.8 283.7,85.8 284.3,85.8 284.8,85.8 285.4,88.4 286,88.4 286.6,88.4 287.1,88.4 287.7,88.4 288.3,88.4 288.9,88.4 289.4,88.4 290,88.4 290.6,87.8 291.2,87.8 291.7,81 292.3,81 292.9,81 293.5,81 294,81 294.6,81 295.2,81 295.8,83.7 296.3,90 296.9,90 297.5,91.3 298,91.3 298.6,91.3 299.2,91.3 299.8,91.3 300.3,91.3 300.9,91.3 301.5,91.3 302.1,91.3 302.6,91.3 303.2,91.3 303.8,91.3 304.4,91.3 304.9,91.3 305.5,91.3 306.1,91.3 306.7,91.3 307.2,91.3 307.8,91.3 308.4,91.3 309,91.3 309.5,91.3 310.1,91.3 310.7,91.3 311.2,91.3 311.8,95.5 312.4,95.5 313,95.5 313.5,95.5 314.1,95.5 314.7,95.5 315.3,95.5 315.8,82.4 316.4,82.4 317,82.4 317.6,82.4 318.1,82.4 318.7,82.4 319.3,82.4 319.9,82.4 320.4,82.4 321,82.4 321.6,82.4 322.2,82.4 322.7,82.4 323.3,85.1 323.9,85.1 324.5,85.1 325,85.1 325.6,94.5 326.2,94.5 326.7,94.5 327.3,94.5 327.9,94.5 328.5,94.5 329,85.7 329.6,85.7 330.2,85.7 330.8,85.7 331.3,85.7 331.9,85.7 332.5,366.3 333.1,366.3 333.6,366.3 334.2,366.3 334.8,366.3 335.4,366.3 335.9,366.3 336.5,366.3 337.1,366.3 337.7,366.3 338.2,367.9 338.8,367.9 339.4,367.9 339.9,367.9 340.5,372.4 341.1,372.4 341.7,378.9 342.2,378.9 342.8,378.9 343.4,378.9 344,378.9 344.5,378.9 345.1,378.9 345.7,379.3 346.3,379.3 346.8,379.3 347.4,379.3 348,379.3 348.6,379.3 349.1,379.3 349.7,379.3 350.3,379.3 350.9,379.3 351.4,379.3 352,379.3 352.6,379.3 353.2,375.8 353.7,375.8 354.3,375.8 354.9,375.8 355.4,375.8 356,375.8 356.6,375.8 357.2,375.8 357.7,375.8 358.3,375.8 358.9,375.8 359.5,375.8 360,375.8 360.6,375.8 361.2,375.8 361.8,375.8 362.3,375.8 362.9,375.8 363.5,381.8 364.1,381.8 364.6,381.8 365.2,381.8 365.8,381.8 366.4,381.8 366.9,381.8 367.5,381.8 368.1,381.8 368.6,381.8 369.2,381.8 369.8,381.8 370.4,381.8 370.9,381.8 371.5,381.8 372.1,381.8 372.7,381.8 373.2,381.8 373.8,381.8 374.4,381.8 375,381.8 375.5,381.8 376.1,381.8 376.7,381.8 377.3,381.8 377.8,381.8 378.4,381.8 379,381.8 379.6,381.8 380.1,381.8 380.7,381.8 381.3,381.8 381.8,381.8 382.4,377.9 383,377.9 383.6,377.9 384.1,377.9 384.7,389.9 385.3,389.9 385.9,389.9 386.4,389.9 387,388 387.6,388 388.2,388 388.7,388 389.3,388 389.9,103.2 390.5,103.2 391,99.1 391.6,95.6 392.2,95.6 392.8,95.6 393.3,95.6 393.9,95.6 394.5,95.6 395.1,95.6 395.6,95.2 396.2,94.8 396.8,94.8 397.3,94.8 397.9,94.8 398.5,94.8 399.1,94.8 399.6,90.6 400.2,90.6 400.8,90.6 401.4,90.6 401.9,86.6 402.5,86.6 403.1,86.6 403.7,86.6 404.2,86.6 404.8,86.6 405.4,86.6 406,86.6 406.5,86.6 407.1,86.6 407.7,86.6 408.3,86.6 408.8,86.6 409.4,86.6 410,86.6 410.5,86.6 411.1,86.6 411.7,86.6 412.3,86.6 412.8,86.6 413.4,86.6 414,86.6 414.6,86.3 415.1,86.3 415.7,86.3 416.3,86.3 416.9,86.3 417.4,86.3 418,86.3 418.6,86.3 419.2,86.3 419.7,86.3 420.3,86.3 420.9,86.3 421.5,86.3 422,86.3 422.6,86.3 423.2,89.1 423.7,94.4 424.3,94.4 424.9,94.4 425.5,94.4 426,94.4 426.6,94.4 427.2,94.4 427.8,94.4 428.3,94.4 428.9,91.9 429.5,91.9 430.1,91.9 430.6,91.9 431.2,91.9 431.8,91.9 432.4,91.9 432.9,91.9 433.5,91.9 434.1,91.9 434.7,91.9 435.2,91.9 435.8,91.9 436.4,91.9 437,91.9 437.5,91.9 438.1,91.9 438.7,91.9 439.2,91.9 439.8,91.9 440.4,91.9 441,91.9 441.5,91.9 442.1,91.9 442.7,91.9 443.3,91.9 443.8,91.9 444.4,91.9 445,91.9 445.6,91.9 446.1,91.9 446.7,96.3 447.3,363.9 447.9,363.9 448.4,365 449,365 449.6,365 450.2,365 450.7,365 451.3,365 451.9,367.1 452.4,367.1 453,367.1 453.6,367.1 454.2,373.3 454.7,373.3 455.3,373.3 455.9,373.3 456.5,373.3 457,380 457.6,380 458.2,380 458.8,380 459.3,380 459.9,380 460.5,380 461.1,380 461.6,380 462.2,380 462.8,380 463.4,380 463.9,380 464.5,380 465.1,380 465.6,380 466.2,380 466.8,380 467.4,380 467.9,380 468.5,380 469.1,380 469.7,380 470.2,380 470.8,381.4 471.4,381.4 472,381.4 472.5,381.4 473.1,381.4 473.7,381.4 474.3,381.4 474.8,381.4 475.4,381.4 476,381.4 476.6,381.4 477.1,381.4 477.7,381.4 478.3,381.4 478.9,381.4 479.4,381.4 480,381.4 480.6,377 481.1,377 481.7,377 482.3,377 482.9,377 483.4,377 484,377 484.6,377 485.2,377 485.7,377 486.3,377 486.9,377 487.5,377 488,369.4 488.6,369.4 489.2,369.4 489.8,369.4 490.3,369.4 490.9,369.4 491.5,369.4 492.1,369.4 492.6,369.4 493.2,369.4 493.8,369.4 494.3,369.4 494.9,369.4 495.5,374.3 496.1,374.3 496.6,374.3 497.2,374.3 497.8,374.3 498.4,374.3 498.9,374.3 499.5,374.3 500.1,374.3 500.7,374.3 501.2,374.3 501.8,374.3 502.4,374.3 503,374.3 503.5,374.3 504.1,374.3 504.7,110.3 505.3,110.3 505.8,110.3 506.4,110.3 507,94.9 507.5,94.9 508.1,94.9 508.7,94.9 509.3,94.9 509.8,93.6 510.4,92.3 511,92.3 511.6,92.3 512.1,88.1 512.7,88.1 513.3,88.1 513.9,88.1 514.4,88.1 515,88.1 515.6,88.1 516.2,88.1 516.7,88.1 517.3,88.1 517.9,88.1 518.5,88.1 519,88.1 519.6,88.1 520.2,88.1 520.8,88.1 521.3,88.1 521.9,88.1 522.5,88.1 523,88.1 523.6,88.1 524.2,88.1 524.8,88.1 525.3,88.1 525.9,88.1 526.5,88.1 527.1,88.1 527.6,88.1 528.2,88.1 528.8,88.1 529.4,88.1 529.9,88.1 530.5,88.1 531.1,88.1 531.7,88.1 532.2,88.1 532.8,88.1 533.4,88.1 534,88.1 534.5,88.1 535.1,88.1 535.7,88.1 536.2,88.1 536.8,88.1 537.4,89 538,89 538.5,89 539.1,89 539.7,89 540.3,89 540.8,89 541.4,89 542,89 542.6,89 543.1,89 543.7,89 544.3,89 544.9,89.7 545.4,89.7 546,89.7 546.6,89.7 547.2,89.2 547.7,89.2 548.3,89.2 548.9,89.2 549.4,89.2 550,89.2 550.6,89.2 551.2,89.2 551.7,89.2 552.3,89.2 552.9,89.2 553.5,89.2 554,89.2 554.6,89.2 555.2,89.2 555.8,89.2 556.3,83.9 556.9,83.9 557.5,83.9 558.1,83.9 558.6,83.9 559.2,83.9 559.8,83.9 560.4,84.6 560.9,89.2 561.5,94.4 562.1,378.6 562.7,391.3 563.2,391.3 563.8,391.3 564.4,391.3 564.9,391.3 565.5,391.3 566.1,391.3 566.7,391.3 567.2,391.3 567.8,391.3 568.4,372.8 569,372.8 569.5,372.8 570.1,372.8 570.7,372.8 571.3,372.8 571.8,372.8 572.4,372.8 573,372.8 573.6,372.8 574.1,372.8 574.7,372.8 575.3,372.8 575.9,372.8 576.4,372.8 577,372.8 577.6,372.8 578.1,372.8 578.7,372.8 579.3,372.8 579.9,372.8 580.4,372.8 581,372.8 581.6,372.8 582.2,372.8 582.7,372.8 583.3,372.8 583.9,372.8 584.5,372.8 585,372.8 585.6,372.8 586.2,372.8 586.8,372.8 587.3,372.8 587.9,372.8 588.5,372.8 589.1,372.8 589.6,382.4 590.2,382.4 590.8,382.4 591.3,382.4 591.9,377.2 592.5,377.2 593.1,377.2 593.6,377.2 594.2,377.2 594.8,377.2 595.4,377.2 595.9,377.2 596.5,386.1 597.1,386.1 597.7,386.1 598.2,386.1 598.8,386.1 599.4,386.1 600,386.1 600.5,386.1 601.1,386.1 601.7,384 602.3,384 602.8,384 603.4,384 604,384 604.6,384 605.1,384 605.7,384 606.3,381.3 606.8,381.3 607.4,381.3 608,381.3 608.6,381.3 609.1,381.3 609.7,381.3 610.3,381.3 610.9,381.3 611.4,381.3 612,381.3 612.6,381.3 613.2,381.3 613.7,381.3 614.3,381.3 614.9,378.7 615.5,378.7 616,378.7 616.6,378.7 617.2,378.7 617.8,378.7 618.3,378.7 618.9,386.5 " />
</g>

<g fill="none" stroke="#000000" stroke-opacity="1" stroke-width="1" stroke-linecap="square" stroke-linejoin="bevel" transform="matrix(1.00313,0,0,1.00313,0,0)"
font-family="Sans Serif" font-size="9" font-weight="400" font-style="normal" 
>
</g>

<g fill="none" stroke="#000000" stroke-opacity="1" stroke-width="1" stroke-linecap="square" stroke-linejoin="bevel" transform="matrix(1.00313,0,0,1.00313,0,0)"
font-family="Sans Serif" font-size="9" font-weight="400" font-style="normal" 
>
</g>

<g fill="none" stroke="#000000" stroke-opacity="1" stroke-width="1" stroke-linecap="round" stroke-linejoin="round" transform="matrix(1.00313,0,0,1.00313,0,0)"
font-family="Sans Serif" font-size="9" font-weight="400" font-style="normal" 
>
<polyline fill="none" vector-effect="none" points="45.5,15.5 45.5,450.5 618.5,450.5 618.5,15.5 45.5,15.5 " />
</g>

<g fill="none" stroke="#000000" stroke-opacity="1" stroke-width="1" stroke-linecap="square" stroke-linejoin="bevel" transform="matrix(1.00313,0,0,1.00313,0,0)"
font-family="Sans Serif" font-size="9" font-weight="400" font-style="normal" 
>
</g>

<g fill="none" stroke="#000000" stroke-opacity="1" stroke-width="1" stroke-linecap="square" stroke-linejoin="bevel" transform="matrix(1,0,0,1,0,0)"
font-family="Sans Serif" font-size="9" font-weight="400" font-style="normal" 
>
</g>
</g>
</svg>
